<mxfile host="app.diagrams.net" modified="2022-08-29T04:37:56.989Z" agent="5.0 (Macintosh; Intel Mac OS X 10_15_7) AppleWebKit/537.36 (KHTML, like Gecko) Chrome/104.0.0.0 Safari/537.36" etag="dzmnGmcqpsmM_0U9Q1Ze" version="20.2.7" type="github">
  <diagram id="8uJ7HONg11rZsMOMs5Of" name="第 1 页">
    <mxGraphModel dx="2301" dy="1348" grid="1" gridSize="10" guides="1" tooltips="1" connect="1" arrows="1" fold="1" page="1" pageScale="1" pageWidth="827" pageHeight="1169" math="0" shadow="0">
      <root>
        <mxCell id="0" />
        <mxCell id="1" parent="0" />
        <mxCell id="cwWkL18HJ2zfGbkU8Gne-2" value="" style="rounded=1;whiteSpace=wrap;html=1;fontSize=13;strokeColor=#36393d;fillColor=#f9f7ed;dashed=1;" vertex="1" parent="1">
          <mxGeometry x="255" y="150" width="270" height="70" as="geometry" />
        </mxCell>
        <mxCell id="cwWkL18HJ2zfGbkU8Gne-3" value="" style="ellipse;whiteSpace=wrap;html=1;fontSize=13;strokeColor=default;fillColor=#FFFFFF;" vertex="1" parent="1">
          <mxGeometry x="269" y="154" width="65" height="50" as="geometry" />
        </mxCell>
        <mxCell id="cwWkL18HJ2zfGbkU8Gne-4" value="Normal" style="text;html=1;align=center;verticalAlign=middle;resizable=0;points=[];autosize=1;strokeColor=none;fillColor=none;fontSize=13;" vertex="1" parent="1">
          <mxGeometry x="266.5" y="164" width="70" height="30" as="geometry" />
        </mxCell>
        <mxCell id="cwWkL18HJ2zfGbkU8Gne-5" value="" style="ellipse;whiteSpace=wrap;html=1;fontSize=13;strokeColor=default;fillColor=#FFFFFF;" vertex="1" parent="1">
          <mxGeometry x="340" y="155" width="65" height="50" as="geometry" />
        </mxCell>
        <mxCell id="cwWkL18HJ2zfGbkU8Gne-6" value="Event" style="text;html=1;align=center;verticalAlign=middle;resizable=0;points=[];autosize=1;strokeColor=none;fillColor=none;fontSize=13;" vertex="1" parent="1">
          <mxGeometry x="342.5" y="165" width="60" height="30" as="geometry" />
        </mxCell>
        <mxCell id="cwWkL18HJ2zfGbkU8Gne-7" value="" style="ellipse;whiteSpace=wrap;html=1;fontSize=13;strokeColor=default;fillColor=#FFFFFF;" vertex="1" parent="1">
          <mxGeometry x="413" y="155" width="65" height="50" as="geometry" />
        </mxCell>
        <mxCell id="cwWkL18HJ2zfGbkU8Gne-8" value="Multi&amp;nbsp;" style="text;html=1;align=center;verticalAlign=middle;resizable=0;points=[];autosize=1;strokeColor=none;fillColor=none;fontSize=13;" vertex="1" parent="1">
          <mxGeometry x="420.5" y="165" width="50" height="30" as="geometry" />
        </mxCell>
        <mxCell id="cwWkL18HJ2zfGbkU8Gne-9" value="Assigner" style="text;html=1;align=center;verticalAlign=middle;resizable=0;points=[];autosize=1;strokeColor=none;fillColor=none;fontSize=13;" vertex="1" parent="1">
          <mxGeometry x="461" y="190" width="70" height="30" as="geometry" />
        </mxCell>
        <mxCell id="cwWkL18HJ2zfGbkU8Gne-10" value="" style="whiteSpace=wrap;html=1;fontSize=13;strokeColor=#36393d;fillColor=#f9f7ed;" vertex="1" parent="1">
          <mxGeometry x="300" y="480" width="110" height="50" as="geometry" />
        </mxCell>
        <mxCell id="cwWkL18HJ2zfGbkU8Gne-11" value="Assign" style="text;html=1;align=center;verticalAlign=middle;resizable=0;points=[];autosize=1;strokeColor=none;fillColor=none;fontSize=13;" vertex="1" parent="1">
          <mxGeometry x="325" y="495" width="60" height="30" as="geometry" />
        </mxCell>
        <mxCell id="cwWkL18HJ2zfGbkU8Gne-12" style="edgeStyle=orthogonalEdgeStyle;rounded=0;orthogonalLoop=1;jettySize=auto;html=1;exitX=0.5;exitY=1;exitDx=0;exitDy=0;entryX=1;entryY=0.5;entryDx=0;entryDy=0;fontSize=13;" edge="1" parent="1" source="cwWkL18HJ2zfGbkU8Gne-10" target="cwWkL18HJ2zfGbkU8Gne-10">
          <mxGeometry relative="1" as="geometry" />
        </mxCell>
        <mxCell id="cwWkL18HJ2zfGbkU8Gne-13" value="Iterate" style="text;html=1;align=center;verticalAlign=middle;resizable=0;points=[];autosize=1;strokeColor=none;fillColor=none;fontSize=13;" vertex="1" parent="1">
          <mxGeometry x="420" y="520" width="60" height="30" as="geometry" />
        </mxCell>
        <mxCell id="cwWkL18HJ2zfGbkU8Gne-14" value="" style="shape=image;verticalLabelPosition=bottom;labelBackgroundColor=default;verticalAlign=top;aspect=fixed;imageAspect=0;image=data:image/png,iVBORw0KGgoAAAANSUhEUgAAAKgAAABoCAYAAABlo7sAAAAAAXNSR0IArs4c6QAAAHhlWElmTU0AKgAAAAgABAEaAAUAAAABAAAAPgEbAAUAAAABAAAARgEoAAMAAAABAAIAAIdpAAQAAAABAAAATgAAAAAAAACQAAAAAQAAAJAAAAABAAOgAQADAAAAAQABAACgAgAEAAAAAQAAAKigAwAEAAAAAQAAAGgAAAAAShRNrAAAAAlwSFlzAAAWJQAAFiUBSVIk8AAAQABJREFUeAGUvQecnGl15X26qjpVV1d3V+dcnbNaOY9G0mQmkky2jb81BmMD3g/bBAMCHBaTP2Awa2BmTGYGmDyjLI1yarXUUueccw7Vef/3FbP7+34b7C3QqLtVXfW+z3Ofe88999xbYX3tPesLEwNa7RtV9v0HFR0ZqcGOLnW2NMkTWlVCcrL8Gclyhbm1MDml1JIirUWGK1JhunH2tKr33q01rcq17lJz3W3lFxdqcW1Nc139mp0Yl7cwS3N9k1qam+Z3CxS97lZEbIzCIt1aC5PG7HnD48reUKrwqEhNdA9oqLVdccFUJWblKDw8gnfiYf9ZXVfz5avKKCzQxPiYFmfmVLR1E+8vrXANEXLr8Hf/q4q2bFAMv7swPav5yUGV7dqj26+fVO6GKo0tzih2NUxT87PKKC6We31Nv/vq17Xv3e9WRHycVrn2SHe4ZmenFBkTo0BiirrbmjXd0qH40kKtTswpvThfkzPTilgPU0Scl3de10BLu/zxCVqfX1ZKZaF6Glrk8/qUnJepzqZmBYP5aqy7KV9yopan5xQV41WYK0wxgXjF+mJZu3olp6ZpemJCSSkparl0SVUP3s89zGluekqL0zNKSE9RdEKs5sem1H7tppJzc5RZwnv192hpaFKZxUF1Nbcoxu9nraT18DBl5edpqK1Ti7PzWvO45Q33sA/sEfcdKY9uXbyi4ooy9Xa3c00xuvqrF1WxY5uiinIUHxPPe0/I4/ZocmpaSZnpmp2clI/rjfb7NNTdI2+UV9PT01oPC1NkRKQivNFKSk1xvudH//5jnesMW9fq6jK7J82HFhUVHcvaSCM36uT++re+cWjkVrPWWaxQeDg7vapkLiSroFDemEill5XKxc/nRiY0OTmhib5htVy8psW+AS0OjCmai50cH1c/i+CLilZfOxuZmCivz6+5qXFlFhUpkJykKQw0MxjUKhfT3d6uRDZjdTakhYU5ZVWUqO92s/zJCRrr6dcMmx8eE61AWgrGty43d2r/G23v0hQbmJCRpuT0DK2tr2h5eYVDFS03193b26tAMEO3fve6Nj3+FsWlBLS6sqKxmjqtxsVoycMKLK1hzLyaL0peNumH/++n9b4vf1FLGP/KwoKS0tPVfOu2MvODGFiszj3/qoo2Vjv3klNVqdHhYS2EQnw/qZXZBcWlpcrtcSnCFc6BW1MIQ4iNi9coBy97QxlXz/8WF3Xz/CVlB3OVxhrMTU0oNTNb3U0tCmMnJkZGOXvryszLVXxKsrPJkwNDmuscVGRGQIGkZHlTkhTt9bIWbtUcPqoA676yuCpfboYC/nhN9w3KfievolzTvH5OabHCOUDXj57iPXO0HuXGWDHgljbF+HwYQbSzpinZGbp27Ki8GEUGe1V29x7VvHpYwYoKZ79TE1MVlhKvZK7h5pkLSkoIyBMZoaGBAeXw/IX5OS2tLCu3uEj+hASFWJtF/ti18gb//oPn2N66XG5dev2YUjlQkRHh6r5wXh31rXJ/4dChQ+1HzyoiK0VF1Ruck9rT2IRZr6kfYwv3xsjtcuFBXcqpLOPUZioGQ0rMTMHoZrUY7VZaRiYXOq+YxAStLS4pJS9HnugI9Q/3cpoyFOZ2abJ/SCE82vLqCifXpeGhQa0uLCoVL7DGaZnsHdRIe7cyt1QoqxCvUFuHR0rUysqSRoaH1NXQyKZmKqu8RF09XUrE6GPi4jTGv61jhKMcmEQOVnJahrrPX1TBnl2aC1vl9OOBvR65WNSWM5eVy7Ul5WSp/aWTHIpbOvhnf8IiuvE6sRro69VQf78K2eQJNnuQQ+eN9irSG6nJwQGlFORrjevPLCq4cy8Y49zSgvwBDiSHc2l+QYGiPPVcqpXbG67Q4Igi/ByM+ZBiI6I0ymt2tbLoRIUIDn24J1wR0ZFaX15TBgdufmkRb92muZkZNiqozlu3VLhpo1bWlzTR0avB+hZdPXocT5qq7KoyJZXkqenYOQmvn5CTqWnXshIx8LWVNd04c05JrFFUIFYJgSRND41opKtXxRy2+uvX2Zd0Dfdj1BhzkEiyOr/IYUvW0OCQNuzfp5f+4Zva+vj97L9X4XaIRkeUlRvEf62qqbFBlZu3aLCnh70LUyY/d4wRR+IlMgzxuuHYTER01L9roCvsne3v7Ni440HjiGK3Xnhd4yPD2v2H77ljoC2/O6zU7VXyEVrsxLuw4KSsNCw5Qn5/QAtzcxrp7nMMwMLyMqE1bC6kKbwEti95I5SIt4v04pUIL0sLIefiVjDaSE8UbzbKqZ5Uem6uopLjFRcIaGl4UqmlBZrDgw40thI281jMOK1MzSk0NuZ40FMvvKT0rCyl4DHTcrLVj4eMS2TRCcE9jS2Kxijmh0fV2d2lsm1btDgxq3FO9vzspPrPX1f29i2EtCj5eL8Q15RXXKA6POLlX/9GpY8eUOXDD8tNiKo/c8aBF0EMMzbGp2EMc254zAmTWZsqFZeapKYLl5WJV1omBEX7YrS+irck7M0vhiRPGNcxxj1OsZlraiY0BTJSlZCUqJ62VifcrS8sKy6W0MjrZ+JJay9dVvGmDYrFuPubW9VyuwHvneIYwdLUrGOEs+OjOvvDn7B5U5yhVc1wX3e9421Kw8v0YrDTHPr0knzNsT9JWRnyEh1qz15w1qygstzx9hFs2BDrlle1QROToxoZHFRxZZVuXLikosoK1hOPSGiOjPVqdGhIrsl5Nd2q04Ytm3X73EWiQIUDwaaAVIm8x/jYqMoqKnXr/AUlEMqT0tLuQDzswHGYhGwzsrBwt9xuC9r/58cMh9ED7EhKZb14vR996tMqqazUxrc/Qdjntv/yQx861HTkjJIqWPwlQibuOYwXXiFkujGAKJ9XEWDDxbVlxYJ/QJtsZoRaz57DA2CY1VWEtFjHI5gHsDDT39oplztMYw2t8oI34zjxKVmZspuM9cdpmUMQSUi8cOKEkhzjy+H0hGmCBe9rawdLFcsL7i3duEltNTeVUVKMNwTjEN60tESI8SiOzR/q6cWrlyuca1znwNj3meDcnKoqPfXlL2nXow/KExWlmtcPE/Zf1QLG7M5I0cH3vUerLo9GRvG+eMSknHStEqa9nPgFDG6F95jgkORvqNTYyJBiWPAQRhC9It3G+7iBJrPAkOyNeNrRUfkjwKHcrxltLM+db+9XVHaafGDSpel5pRfmK5zXngZLzk/NEEXWVLJ9s4bHhjXfPcS9pqiMe53gcPlTLGos6vT3/00F+7bh3UrVfbtRwY0YM5s4MzHJwfTy97hWOAwZeUEtcTC7MPD4vAwihkuL47zP3DyOZBa4wHNHxjS7uqDsgiLNTwNNFpaAL9Fa5N69YEmLjlPAtBEgVBxeN4F7mFkPaal9QC6v24FnwbJydeI5k4BvXS0tSg0GgWSJeFAc1O+N0zFQ/mPY+n9lnNiuuGQHtoXYTw+wyrysYVfcvl7//76ne9/9B8rZvdOSCq2zpu6vfP3rhwbqm7TpsQcxxCgtE7bsF81jurDgxWWMbhSPRlgycGx40N78yvMvK1haqrSyQrVcv2nv6uDYxLgE4d+VzsIt4DUDORbuoxzsOc5mxsfGa4oQMDc7g7fIdbCHwYP+oQGlFQTBW0lACo9WQ8vq7enQMgs9N8TpxSDnRifVcK0WD8Km4MkGurtZsFSSDPAuz4vwRWMUGBNeeeWNGr305X9W37UaDoNP93/mE/IG06SpkNoJs4usQAmY0otXi4rxa4rQFgYOmhwZcTyQee4ZjNLDvcwMDGuIJGk+0qVt9x7QMvBnjI1Oy81WGAd5hRBr97g0O6eO63Xa+thDYMkkuUg63Bz6a8dOyU/4DCfc5wBR+vv7FAN0SkpKVXdrmwJg3UXPuqZmpjSHZxxt6lD12x7SAhh/KSZcBVs36sqrJ1SxZ6eWJmfUdrNOpbu2KZCQqCuvH1cgL0t+8/xdPYpJwHsBG/rB+el5ecCERuVykDxzK5paWVD4JPhZSwripebGJ7CLdeARBwpnk1VapFYSXR9hOhKXEV9RqEtP/1oV9+7DOFuUSRQzj+eN92t+Zp5cI4BbIYaaUWJ8/5HHEk9cI0LM9wxqLRaHMNKrCSLxiSd/Ipc/WpuIaivgccA5doAH/dzn/u5Qyxnc/b5dTmj3xMeQzZJ9ZqUrltNiCUgELngWIxrq69PQEIAeXHjz5cMqe+CAvBikj5A3Nzqh2QVCLFhlFiM3F99dc0NRCfEKJwtcAZ8N9vSpr7NLuWBMf2qyc1dXjp9Waka6MoLZ8mCYIZ53+dxZMtpURQPkU/Jz8SyDmgeMpxVhwHEBteNRAixONiF3ampU0bE+DVy5ov6aWzrz9M/VCNZM3VqhyCCYqq5Oj3zlSyR6EbyeT0lg0DEMpGL7Vk3gjWxhR/C8YxyaRDZ8HiNrA4Nnl5VgsC7Vv/KGGq9d0/1//idOtt3SwnsnpcjLPcWQMIRhnGMc4ISkBJKfOY0NDmsRh+Am3Nphb2q8rT1PPErSGKMBMJufw5TGwZwdn1QdYbb6rj0OYxLi/sJmQsCEaaVvrMBrc2jImMNmlrS6tKzq+w/o8Ld/SPJSiqfM0urQuDrI3svAqAsT04olWWvmMBZgeAvLCxw8MvnlVSXmZmkYzziPt4lZD5fbH+kkf9Nc8yTZdy+Yt7S6WrP8zlhbt4p34Nnbe6V4r7pu3NJmHFfziQsq2Filno5O4E6K4sG0UXjmFvKCZN6XgPgfstCwNRJeM2kO0OTMhNzTIV147jnWf0CP/O3HtMz6xXCow9lPM/px7M39iY9/7ND4rRb5yX690CJzY5NaBtQvEcYsNEyTuSdwEX5OZiIYNQkM6Da6gn+PKMwAH4EZVxfBOX1OGE9JTlVqSjoJTKyG7NSx0St2B3idZJKcMMKbP5CgDk64C+xWvvUO2F6dWyRcjjlePCbOj1eLVoiFn5ibcvBc181bysFjLa0tqfd2naZbocJOX1Ld4WOE4yFFEppSygtVzWnP2rdTJbt3qfSuux2vvgwwSeK9nXXkxqcA5SlBvEt9PQYGxUGyll1WDC68qDSSBzOmYRI2o4pK79+jvOoK9dbedOi3qj27SSSnNT5sB5G/gTSWOKXgcUdZ6AqSM+H9FwnTK6PjRIFu+UkeDS9HcABHe2E/gELJQJ4lsnuj9Ao3VWngTI1WybQr790P1TSpxnNXVL53p6bZg3Ui2rqH9UtO0clXX1MaeL8eYywEQ0bjANqBQUZ1lXPo2psalUJiuopnnyJi8QWvN+XkCL0c7FigR39Tm9YI80WbqsncC9VUcx1WwK+UwjyNclAXCIcRMATFu7Y6yUq4x6NrrPOGe/Y7DMU6RubGAcXCBrCtztf/Ee+5ZsbJvbiwvpGGZr32zSe15x3v0Ma3PsIarnOYsvXqv/xAeQWF6h0elA92wv1fvvLPh5LS0zSF94tLDoA58aAYhwfQ7OPmlwnxq1yFB+7TNthcr2Vop3/2K174ISXgZWPJptOhSOwxR2Y/yQLPLc6r/sYNFZDxhvFakVGEOzxxJDCi4co1lW7eRMYXQwLK4hMGY+MDDs8XSag0uqKx5orSCIGR+PkxwuBCa49e+P4Ptdw/Ih/APGNDsdJ2lMMYFKjiwAGwbBbhPQAe9ZE8DPO1X8tkiAEyzCNf+brK79qlCe4lGg50pL3TwZkBDtsi4WYAjxpF+C3bslV9cJYx0THcwzievkDjJBUZRfmKBUcbpTU7N6Pp4VHgSL5z4Ib6epRdVIzBDqunrl5rfi/XOKrMymJe06uECJ8SiQJdXW0a7u1XCQfSruviqdMqzM5xEq5T//oTbfnDdzjG0nb2ilwkNqV7t+v8y6/B6W5UHBi16cRZFRLlirify79+SQc//EGNW2YP9Cjfv5vEckJRwJtJDGyG64vHCbhY74neYcXBuMzgsYtJGkeuNzhU0nJkmPpa2vGm0EE4CvOms/DcMXiv9OxsJxGeI+mLxWPOsAbJrPkIkcwSJaMk8euKIip5MN47dvE/O1FLuMOgupx/x+gtvK8A7c59/Yca4Trf+c9/pzH2JBALfwz9GFoOKQoWqB1nUH3wgCIio+Q+BM8UjgGNNrUrAcrHMEWYxX/nKzmebKCjG+CcBC5cVH9nt8bGhzVSW6+qB+7XHMR1Z0erkzSsLC/BfxGW8Q5+kqHxrm7lwqetLS+zaOMaJSudxXiNm7TsGles9QjwpmvN8TBGR41fb9SLX/mmhk5cdLDe8uIyBpukgnv2KR1Plom3Kdy2VYP9YwqkpJEExGicjbeFGh8ZgZCeUR+e24B6iOu1U9hcc1HxkRy4FNgDkqkR7iGQn40HXFBMZAzX6nMyxuHOTrChj5DTRwIA7wiJPj87qwDc6DoHKRyv4k0BY/PaC5PTGiMKZObnywvcsEPV19SgwiyoKPhWF/fViFG5iQarkO2LhP6iXTvUdqOB70OqJEm6fumCRprbVQjGnCSDHujoUFppvlagxfqbWjkwmyDDuxyjK969Te3wz25wWkpVqWpfPqqM8jvFjYiYKCLflEMlxaQmys21Dt5uUR4ZeGdHm/LxtK6lVefQ+cHGDXjfjLw8ErZpLQHNMimu9LW0KoX7jIJWW4HXHOeAemBLRjp7FOQ64rJJJGFCmoBtidxvNOuOTfHAXsCK2N7//8G/WUK0xFq5oL1c7G0DecsbP/q5DnzsP6ns/v38O/Ql/zbU16spktJoDDKjqoqEr1Hp7A9WC830+S8csqx9CHyRbISu85YAWULxPElCiKzTaKNO8IZVRmYIbQUkFz1Xa8kyd5GoQGHgYeLj453NHwXHzJIcGS0ycPqacvZQleCmowDEcTF+yPc0sC18qb0+m7+I555p7VDzq8d1/enfaHBuQnvf8wcKHtipUhKSWNz+DGEqnowxjgSq+cJVTQGwjY+dg/xfgb+bgENbIkkyzLhMBu5N8DveyAflZaFosqMHmJCtVRItq4r4kgIa4UAWbtukBcj+dkK9H28+S0ge509qXrZDB/Vi6BngxRmKA4PgoWEOnEWVSLjVZQ5dO942igraMhlo/a2bKi0nVHN4u27c1hpRIYrrSOEQWQSySk79uQva/MA9unHqjJaBL3ZQt8I0DMEmJMclaoHnGJXlxYstk4kbTl1fW1Ue+G92YMS5VsuYI0jmVl3rUGIxikyKg9a6zUGLVCzUoAfWYC60oKzqcmDCJW0+uF+jJIBLvFYc9x0P3l8yY4ZRyNtcRaVqhkStVeW7dlI4WdD1y5eJiH6imw+Ptqgg0MeS3lUIlDXeN1hQoOaLNU6uEA/UWDUrNE/5P5soPpNMHctdACae+sGPFA7s2/W2RzVHDhNOcmr8tWFhOwxBoIZF1HUSpDSgxuFv/ICKHJW+L3z+0CE7AbNkqv70JAdTdGGs5o34MdxdHDeVJjdVJUuewvGuNRfPKS8rT/EFuZrj9+Iwns6uTsfz5uRA5gLqA5lZ6iPkZW2sdG6mo5lqFUY0sjTtVJqs0jA70qejn/+GbpGhVmHsG//oCSjVCLLEWNVdrQF7gdUoAgy2NikMgzDyNpXXvXnkBLRXSMVbtpBMxIMv0zTKIpgxZhKWF/CiPn7+5mHrrm8A8+UogQQpmrAUg5F14gkW8LB2WFJJvJb53eU5Kkl4ziVcwzKHchWMOAzNtIaRZID/FvuG5MtOoSCRpCNP/1T7H3xQsRl4LLzE1K1WDXeCwwmnxTs2ETKnSPDytEzI6hvoU+7WDVoH9732uX/S7ve81aHRLPHounZbGVzbWoxbKRz0AdZ+qLYRuom9AEfatdpBXuKQukl6QhhfCjyqkfU/O/SPKtq2UcFgobqBGmHjcIpJsQ5dON7Zq/y929R46armSWyLweVWYr0Nn1t+z17Kwi61XLuu9O0b5MXlD4CF4+Ci04BIy7yvFVQyeB+zDReezsMfw+Yu9scMyCCNUW654MV1ypQG/awq9uYD5+eUjUd6u/XTj35aj/31R5W9Y7vC2Vu/16/eKzegr2bYL94T/N4JdRUgMV7jdcI5bMnc3zSG6/7Q+//40BQZ1TzYznAn7+R4h2BenlNdwV3wE2rGnKgrr59QFBWZUnDUKKW1ABs+3kaGyClMzs506vZzeMQ+Qm5KZjonaMUhs6epthTAo9nzEgmR15/5pY7/w1fVD12Ss3eL7vrgezQMdh3uHdI8JdXQEqUyrGueZC0KqLAUWuL1cxxWwUMRoYEqyb73vlPXTp+hHj/vJBVRJCAhwu4yRmUe37jLNWN6ufY2FjKOjDsqMZYSJLhtoNOpM1vSZ5tx5XXCJXV241T7eroxzCXCvl+L4OgsSnhRhKc5rt1NQaL5xk3NkUBlFxPKo8LBeIPquH1L8YW5CliiBEzo6+1VREiUeFPgEcPRA8B9zi4CRahdJ/mUvXkLIR2sCNzwUsGKx/O13qiTa5GyLIcwu7LMOexGnJuRhpGULnJAXfxtjMgYUSyaUu0GqKbffuorKnzgLqVi5EYtRXpQSXC9GeXF6rpOYkmYz+beGjHG6ACRhX01NsGM3DzWTCv4m0NgGoHeujqnpB2AUUngoBp3aHu/itEY7sRp8x2Gx38SKF74gU/XDh93IF0EjIv965tOwZ63RhJ55l+e1nu+/mXNEemWx2cVTW7Q2damBH53cX1ZCezBOu9jkLCpptapFq6Cb714+7oXj1KL//a3Dhl+Erhndsi8aDJcOAsHxligNm0CkUFCm4WBfBYuHRfvAu8N9kNFQBB7wQqLi9SkSVAGINlDLGgAY14Ej67iMQbxCOU7d0B0z4OBhtTy8nEundJiYZE2v+3tnPKdaoXQn2vspBLF6YRi6Whu0fzEDAtKKAZCrLI5VvIMJ8RY5jtQX6fczVuVBi4a7+uE21uQKw4eErwaT2LScO6cIsGtIQ7eLPRN/82bVEuiSPSinEQsHObBkxCji8+9LHdspKp2bqcMOaYxQnlOCWGF5wUyMpz6fCwbZ4lQ+4UreJ1IRRPWDAtbdacX6GCed/tDD+rqieMK57AMXL3mCCkM57ZwHVNk9mvAgCUOaz4JT3ZFuZ7+s49p9zvfhndyo2u4wiGewuCLHNFFIZi9/tI1xbJx2QhzZldCJCjpGuD1MvPyNA3dZxmvK8wDG7BK5p2r4eu3tQ4tlEs4XgayxNh+2tkEBxt0MepskfVPTM90RBlTwJgFvPKdmnqflkj+pvBWVluP4n5JsxUOee7i7zue0czU+ZL/8s98Yz+Jhi+1azz3+hFyFOATHnaZa/MsmehjVr/6zJeUlZaptM0UGTC4+cFxNXLAi4kc0dBy9poTlJCjA/wuNjXZ0YdTIsJysCdnsC0Oo/sQD3tT4+16EVWsgUc76hvh9Kador8PzxMgy0/PznISJjsi5srtxUNgr2SMxDL5K+fPq7h6A9kjRjU2AmYIKR3Oru96vVx4mvBwPAkVltameiXk52jPe/+AihL47/w1OMnN8JaleIpwJ7nYsO9uDQ/3KwhGKtq8UX5c/hyZ+Ty4bA5Sub+uAcJ4GaMacDLM+lNnHToqfI4M8NYNRS7iu5epZOHNzNAHCOeW5LhdeLwZlDdwrallpUJPpCBUyzDwxAQeSSyahz1Z4DlGa1lBwcJ8IBk1FzXtcJKs0s2bgSwzioNcN8HFGgdyHI+0edsOvf7kj7VG3X7Do2+BItrjGFdSQVBJhXh/2IsRMm730rKMqXjte/+mrQ/dr8KdWzQF6Q8vpSGoFSO/o6H0YsFooekZiOwJXXr5iKq2bGYzBx0IlIUhzqE9CEfvEEY2Xk/ZNJv8wXjXga4+JznphvuM5j3Hp8edooAfA1nDaVg5Og4DmAWCJOPxje5KBE5MwrmmgE+tamjG8ma4toTZMU4zEnvYNzzMUxryHBzoJcwXODnMMOxIBnu7BvA88vmv6W3/+DklbSzVy5/7KlGhGOi0pnQ89+TYKKxNvKNDWCPxnCKH8MEEWUXv4i9/ywuvy494xVcWVFhfc9v6NNjLzcnzsuA+EgmjjYyiuPOALOAX7ILs4gz8hwDTPurmt2uvq6y8nOdSCiWh6iPZ4Tgqo6IEzOqlErVGHX9a7VeuaAr+r/tsrTa+9wmywg2aJTQadbNCXb+3pQmDwtjJTtcI67NklsZNGslspUerNRsWNxnXwCB4Dk/ggSyex1AWCYPNR99Q8V07dOvkeTxfspPsxQaLNNDeqHzEEWd//G/a8uBDiuGgrWOBo82tcLtpqqduXbFvN5m2V6GBcd24XqPiDVUGnuSK9lD/z1EDGC6S0mIBrzOOgU0j00ugyDAOuJ8HllTs2KGWmmuaau3mUI1wbakQ6UFNch8rhLAYjMTKvZbAhfBkVpXbdP996nj9lCKyU4FViEkoLxukiOMg1F26pAxwdy8wIlhVzsaR6AFrbp8770APoxuiLIni4LjBkcZJr+IRDbvmH9in3KoK9grTwTv/j4eze863ayRsRv20NjWpqAy1lX2Pw1lxIAR7bgZplRweZpz/u4fJEi1JsWvo70LBlpKsnus34I9xCqzF/r/4U60lYoQYzSQR8uQzP9MThz5Fxc1LSXuQog4qtoJ8x9FP4HQiqGStEupXWaPmK9e1591vd+g49z/9/T8eSiUjTmTzovAgDn0Ahnnzluxm7KLtj/lNFx72jqQuSfGc9JZT5wmF6D9JTOx0+PAAQwBjo2nCVl1UHOA9X3xFo7cbtI03Ldl/lwOCwQI69rvnlUGiNYRhzzR3Kb+kQqNg2lQ41bTqUq2C0fwxsUqFl7NTPkgpLzQwycmLQByRjWwMwM2Byt+7WzGEXstmjTRfj/KoEE8XGeFCDJGmw//6Y3jJEq4llto8AhhC0Zx7Be+KrG92SWPg6VWMoHL7NvZ/DaYhld8DG1EGNGx0Dc5yHu9lm75AqEyHWTC8uQRv13b2koaBIXve/VYVkQRchNMMbCoB9xWp4/R5uYEd2ZUVTrJlDICpl6ZHJhWDhO3GL15S2UMHnTBcd/4yJdNVQmYhfCbUFO9jvLQH2m6ZdU9DgZUWxBtzbckkX4Yh48GKK+QEuUCH9aQYXTl5BmURGlqM3jQT/8O87Ks7f6zuboY3BXkfz/XYvtr3tq/mK51n/f5n/zvjtJ+bw7DnzlAMsN+vg1LL37RB47W31T07QR5gtf9iDTW0KbogG3BklaEhJWVnOjjUw/uN4bRi4Wuj2c/Gm2guYFr8JOScGQpEI3fK3l/++y8eMs2lvR0HwnkzQJNzew6DwA/tQkwcEcEmOqcKL2myq0EAvR+85gX/JOblOaVSk5GZQGO6e1ixyXF69p++qmjCrQdMW/7Eg/Cod0SubvDRKiEpmYNhnsibn6X1Nz0NixcB/gixYSZA8WAYhocW8PTJ4JUxkhBcE1I2Pz/HU0BXrLnDVEbykUSdvg1tQDreb7CrH+51QF0vHtfBD32Q0GUqqEY81rxWgQiWIbdTHk2qKELN4ycqJDjeaRD6qJOfLxEprIyanokUDiyeUpCn9MpSMHKjwyG2QbX5SUpiqBItc5iI44hdGrT9iXfoFgc3CK6c94YBe+JV+/pJ+SgAxFKxS2MjojC+MMqOg2duyFeai8QwTyOE7TAOhZvrNArHDoSH9XSzYc7DDCkiwolopipzs20xCFXM6BICiGsqK5EQUn7k3u3feLqzd7Z/b/5xXod/i8O5OFDNnvTmgy/NH5k1OP/lC/se3YbDiy+S7HmAAPaYAW4NwY8bgxMFZMlDNHQEiLP5HY9o52OPU/728/1/pVw7rnJg2uDosAoqNqgHOGTJmSnCorCT2yfOOLX9XCst8zpueNF4VF1dJJ6xOB/3337044eM6GU1wChUSqwigTEZs2/lOhNPDFLG9EILGeayWzVtoYHunKICRbDJHQD9tKIi/uVOFufcBCnf0f/ydRUHeQ7Zfv7ddxF+08FY8eppbVdTXR2cYpwuvnpM2x+8H+ldqRIA9wkYrNVg4YMcBbiRwSbGsJNmUj2rOXdY9p+X54gMTDtpSnzbSLvmcA5MPLXyuWVEL1OcRMjvETB12kN3AS6lSJRQk8COaHc0GLlAl576jXa//52OfnMKkUbLqXOOhC0LzLRMyFknCWrDYPPyi9UMJIiA6ZhD5zkzOKYNB+9GbDxMWdcvlK6OZ4ghOanBk5Vt3EiiQNGQSk4TBl1FCdZCZ2pmkG6AEbw2UAUDnqQGnkxoNyV6rC+ezSHss86mFXVzT84DIzHHwF93vjVDtdW2n3Ew7R/ufO12lP0BcKALyzIjfvN3fv+rv38Bfs6Bd5wNT3gzSN4xTHsKEME8JK9vPzNBzBwwooN1MOgXohy+QCJtxY4x8o0wMP9r8JwbKdOmFxezauTcrEnZ3XtRkA3p8Ne+h5DHp8I9Oxx2oB84srq8Bj87gCPJpuqIXtZ0DbzZIpHNg4P0Rsfp5R8/LffjDz9yKDMv6GABEyYbIW2k+CQ8l5HWGZzGOLzLNCB6Hrw4Aj2yTq05EuPq7aXVwBKO7Dw13rpFVm31bth/buzkD3+kSHy1D3J9A7XWobFhCPQ4eFSyT06i6S7TCUfVkPHNVEjSCOur61AqXEnIEqx8yosAaZOvWV3ZiGW/H4J/iYuHj33tpd/An6VomMxvdhC9KSfapH4r80sagFs0jJy5uYzEatzh9FKQzq1OzEMWo8csKcKQo+EtadPISuJgrqsTPD2DeNfPPcxzUK3VYgj2whTqGWT0Z19/nTKgX0PUsZO5jgnoNCRAYK9E4EMFIt1eJ7FZwTMbcW9pdAx/Xbp0URs2bYLh6MQIfU7SYhAhHqO0bDmJQ3vm5dfRqhbjQcJZA/NWd4yDv/6vHuusn1V+kokiZqCO4f07r2DG9OYf53353o7CaE8fzmnUwbrjsBUJmamO5rTr8nX5M5P4OsspGFz66XN0SLToLR/+U5gSD6qnZsTkqPA5OCtEg1Sc2IZHH6CgIR1/5heUcHehO6VTgAOZEUQ97/MSsNcp7kzLR7QKw4NePHxSYeDyzXv3wLYQVu3hpEQYVkQk7R3QLSbdSmIRhzq7NEgiUlQOoOZ5tvjL0BsEe+UXFuK5Ipzf9+PC1wC43dAhNT99lgqHT9ve9VbV1t5SHuExil4kiAuNgjdJzJB0+VDH3zltaRDUN187gTi2hNdf0zRZ3XoLNwiGNElZHDhwtHFAqajOXREcALzz7l17tNiCRA9lzyCnON6bhCB3Ao1jiBC46GT7ImyMwwbc/Ufv1xq8nctHYoGBGoRZ43/JwaA6gQML49NKJsyn5AYJP7GUCZsUGR6tcQ7Y2edfdOrTZRur5YWCu/XyMaIFvVVh2XiJeDWhK4jm7wSMdx7P4kHF7yUR6yRETQ5OaNt9yPPwFjlFJVrg2nOp27N0jlGgW3RgVRXYt7e9w+Fc71A4zpL+3/+HDTKR+Z2U9n/pO//7a1riaw8Xe27QzjhjU3eZ9HGVyGkSRisQ+NajlFSch9prGCbGrfL796vttaO61vwSEMVLJewhp7RqCHaNKOwjCo6gbViEFszIgFng0FnkSCPMb+IEPPXZL+i9n/okkCrWEaWYHcUD2wawidrGM/KsuFQFlo8h0lom5H7nlp2HRgH5A10d6rwImcsTRjC2wq2bnYzeatpWCk2E5bcL9OPRTHNpIDgKN26rvUZ5cbK5Xc9+/7vgyhntfeRhZSN28KfSooEi/zwewlT6cSQ6U2SxJgROoJmumRLj6tCEg/PSqkvUCodomk5YYackajX9OYy1/uJVZecECYv9GiNcm/zNKOSrZy87gt1Irm9ucBT105STZK3PTKmpvUGzx2p18fhrUD53AxGQ/ZGgWKXCg2uZA1PfOn6CU7pDt185oZIdu4EMvWrjGsYJPcM9UCZ4NzeLG8fJnqa/ygSKUWsIeHl9y3rHmtqJKjSzYfwmxlhbXqX2jWKIMG9Fg8Lt20lmgprhHgx7+nMQFM8TJVhHLt/+74Q1I+svnjqlHDyKhXUzHZPxWTnYnvXfQy3f/Z8eZmSTJHxJhE17kX/Pg9rzjU4cJ1kZw1tGwhUbU2J7HMI4rXugBX1BgPCbmJWueaqGR7/zA0qVIW286y5VPnQvGk4E7Rhb3RuXHForvSBIkSTWcSrt4P3IMAQlRIqWhiZEzmnaevCAXv7h0yrbus3JK2x9x8kVjEOPIu8ou3unk0SvQez3dXYobKJ3YN1pssJDjuE11ygTWDUoNDWLoaLkgWgt2L5J+CXHa67jgu2Ut4OrCqkO3Xr+VbzQFW1+4glOSySQAKEvOJZnoSyKogJFUx2Ukp2IAZT24ZzwbNT7tvSmAo8mEZiBuolnA+N8CerHAMMJha3gzGhCeQK/PzcyroQsGuXwtG4oLeuPMU3lJGqetoY6bXlgv7ob2xFIc+LxzFHgxHB+142E7xcf+Auy/M1aYOMjOFApZPXLFBDWIOqN2gqPDdfVXzynd33u7zQFrkol/Hbcrld4aFWZlAFNIjcNRoqDBnETlmY4YPNjQxQd5ujqpNcqNEOrRhqGtuYITeqv1uBBI6h7J2thdYlNhj6Do0yFrQgn47aHeTj2hT9moo7dO3/ffPWIUmAsID+gWqCVwNBF992tHEThVl3xsDerGBVvy8FxkbhOKhyguRqCGefR3l4PR7usbQ8+4HzvnIA7XznrvUr0W1y4IwBf5zBFEk0sxK7w9dzwBFfFwSGjtgQmljW0Voyp5iZdOXwClgajfOg+QyVEOuASr9VT3+yUOrva25x2oInhEeWAq1e4b4sOdqd9V5BGUkms3L0d5+DmJ6QCCGcO//gZPfqhD6iOkmd+dokiS3MUw4vXn7/kJEd+GKVY8pswFEjr146epBpyv7ram3HXVs/O496ofiyESAzOO81weYB+jrLzBrMjA2o8fl59N+sdIUNMDtRHIZgR7GGPbk5LsLCAzJqKApnwEHVe8whGQ5jnbai9qQDi2SRCeiSLMdUNlqUyMxVCCT9N9YobNMV5tiPcjXeI8YGeXjz1MuqhArwwEIDXjqA+PAVfaK0bOcCNMAxohZR3BNVU3Ci168RoXf3t77TtEx/muaBC+qBWOWBW4/XZgYj2E+1pyqOFN7G6Eo5yHCoHLIyaZwpxRmJ2hlMKHRzs57lQU3CzbnBeC9qB/Pt2K2olTD1EmwTorjkqH9bbU7Z7s4499SuVPHwQrIrX5sBEkyCYXtPWj/11HiABHnSSEgp7OtrUc/QcfU8XaUMOaNOD9zoqrZxq1jzAQeL3VklWe2AWlrm2WBiAlWlCMSE1HvbDgwgjEiZhEhw9T0k1HmhjYuUVVGLhGLJRhVZ7N6MxnB4ohJ7ihKxxP+uUddf8UdCLdIxyLW7jKanj93e0s2+IbNxejbPGD33l0851z9O2M8xrGGc7DyQYpfpYvXsHGJHkk2u0Um1BKZ2lYwiigV4WZV2Q8TM8L7UYQQhGZ+3g3afO6jX25qNPfo19i7XTClfeDxzCuPk6DcYEbkbuT3/2U4dMkdPf0kaGme60CC+z+dbeGsYJSuDkhy2uOO2rOVAsy7NTeuXJH8oP5trxOG0iWWDE1CzKnfS5WMgH303TSmCZ9Txh1KRblqmNkvnbqTCeMRbjiyfTHGrrUBQL19ze5HhnPzedCf9pv2+doUsYpBmlGbGpxpcRQ0xMjDplWLvpAQwnPjuNtpIs6vzTkPzzGgMve0KERygpT0K0bmNMu554q5YGwVckZz4218jqCUJhIuW5XpI360FaYfMMIqxBWQ0A4q3EaUgxgBAljKQwgSTOFR5GT36hLv/mRaWVBx2axcQSy1SrjK+1CtFtjCyetckM5tOXhHwNyZolDFbPdgg+Dqq5oTBw9NRAn04883P5SCbCiBJbHribXvAm7fzIHxM6faqpvar8PPqZ+N2IGAwF4UoSrykfYgq8sp8k0Q+rYfTVJAR5KwZqAo80DNQYEj9JprWAWHJqivnO/i7N9gyQ4FIFy0x2hDaxRLZIjxu67YZe//YPNHrykkIo0Sp2bVH5gQPKQuQSmRinVqpV0zFcN1JB88wmSzQRuCsCbhi2ws19DsP2JBE5WolAcbz3MuttQp5I1jyRpGqJe7x1+ZqmgVIl9+7V5v0H9CLvWYXirb8J0XxSopMkmueewIkYB+3+8Lvef2iNxYoFH9564yJEstE0yQ42slDuIqzEkBEnshjP/PXf4O36teOhtyixJE8esFdiSobTWDfYRSckWfAi4SaeN7LTZOHKZFuGYY0ZmAGX9bQiFOBr8yrx/P7Fl15VdiBd0SzYDHzoEKe1fA8tw2DZYbDJPL8zS4ZuN2x19fzKcgyJBq/6NuiYcEdUkAitZJ2hVgr0oU6ydgkPXJvhXDe/Ywr2uIwkeSDHp6jAZAMPwnzQWPCzjqjZT7+TwQjuOzIRofM0lSsqZuNUPAxftR47r5zNldBrsAQcwFRC+rWXXnLwrp/+/mFKd65YvDe4ND0tQNWH8i3sxBohPYJFtKEG5hWMm7QDfOPkMb3xb7/WCoT99rehJiepyj+wV8d++ks6EMrUSKZced9+RXLgXvn29x1yfs7q6TY0AjVXNOJvq80vE3V6btxC3lfHofc5ydkAYTaKYskMEWAWbzbUDvQh6Y0GqmRyIFOKUZk1wON2Daj+6HE1ESFnmHWQiBY0GxVW1bseU96mzXL74pxrNl4lgQ7Viy+8ouK0oEK0mefAONjQBiufWolyAmy6TkEikkNk+o0glKO1nU/OTzkt1S6SxJ7bt+kIHVcg3KssjJ+bcDL5AAnmc1/6qrY9ch+6WpKlnh5lYjfWc7YMDnX/9cf/86EVXjwDl5pTVa4mrH+kpVWJJAguuDgz3sbfHdNr3/+x3v2p/+w004WRyFjnpAFgowjGUFovgDPywKQxnHzj8Ky5KhosNjkMLcX+GEm+AkZcATYY/rSSWC2c4+63PypXgg8lTT2VqDwyWVoQLl4mJNFSkJpIopZARk3igFe3DtCumutqB1BHY4gG6F38g6ma8vMLdeHMKR14z7tY0ExE1UNO37eXROulv/8aVMc9mh+ltj08ziGaVypJXwgoMQKRnESIPvPcCwhQSjFmJoPghRISODCwDyEkYdZtGaDprY82BSsxRoCtm0kKtu87gAYAhRbG74YfMnG1wZMGvMTOd70NfMge4y0trJuNGjFec+ykpm82wGAUIWNM1Tg0mA12+NVffFbb0MFufs/bNIvxnP7Jv8EO+JSWgueBzciByrL2m2gqdIu8jw1LiEGdlLep2invjiOyGK+7pc7fHdHo3Lhm69tVz1521zfBEHTBYbY6+tWB2ianvt9w9pwe+6s/pxftLmUQGWMhx60pcgLDNqG2ZdCW6f9eL+9UuPposUnfv4P7cjnMRhdez1qrozjElwnZWVCSyTmZQDvyD/bbh1Rzik7dW+hSY2JwcmX5Si8t0lQLulr2dQi7CYUtadOObXr1K0+qDLw9ji4hDuc1A8/eSBLt/sqXv3TIeEYXFm3lrsw8sjCfX6d+/RsuOEpXf/JzyoiJ2vDQPWTBkK379nAqlmk7vqa43Ay1NtOCijEnZ9AKwC7c+R/egmRoemYKOVWqw28O9HVTs+1mNE6xGm7ewGA9jiezPutIkivrMuwFi1nrcXZZqTOQIasg6IgxLDGZRKQ8BiZK4sRadrsBD2VFhXn40ZJNWxwPFhsDDiPT9xDypq/Wy4dqPwsF1vCFa0oppQO1okw3L17UgnlGYIY1A5qAAjyjFLx6O5tZTdFgCiJ+cpYN5/oLikt08/pVJndQPEBQE0hLImk4rmQy2zmwlDuDAxTBYAg2c4nX8/PeVlXO27kTg8QqOY7OmvB1Pwe/oLRSZ37+LFxsHgeoT1NX6zQ+NKl3feefHAw+xgF845mnFE2z3O4PvEsRcI6nn/wpMCcCYQ76gbobKkIv4KW40shBOEGCN0TyafuWCV3VdrFGd33k/So6sF/ld++lirNZZTu3qooScymGUMDXefyxlvKmmpt0PLDWPX1Ohcf2xNRiJljhaDl/rJplifEk3u/auTecsGz/tBhJ0yC4tauukW9WVUoiPY5Y28+6WNvzbZxMB/1Rpg4r3E6FLzfT0XoYCu9DT9ELvMthf5NIWt3JCYrjen71rg9r2zsfVxs0nzX/5ebAavzx44/T8hGFUgmhKwrqYbLh0NyytrzlHp345285rRkBLD9nQ7U80CEG9mNwxVauqkVlswH8YDOM7lQtbCvYEgB6U20NHo7QTYi3FuJkvk7B4zWzAdGU50p20JAFnjQvk4SX6+ntcnCcKXhMjxnGYvXiKSM5ifOEugi+t4qN/XsLJzcW6iccrnKN8kOIsGJ96aakOkM/eTx85VRzm1589hfqoPrz4Oc+rpqnn1fW5got0HRXUF3tHJ4pE6yQFBjmniODX2zuUTRQZgkaJc0HVuVnIXB0ClLCERP0gpEte00ktPkpRU4tz6sSscgQFJsJIJKzMpw5ShGE8Qx4U3vYepj7bLp6XeNNbeoAJ5r4eoVsegiP1H67VnsffUxhyX4l8T4v/u0XCPsP4iwi9eq3/hVFV4XKEB5ff+GI4vhZiArWlZde0/owSSXFlIPoG4q2b0VHYeE2XmtICfvP3ZS3Il8z/eNco0Ecyw/izCc6h8Uy+SS4x0uE+JzcoKN0z8gBjoH1HX4UD22SylnWepxK0AxY0k/3bjrtKLdfOa7MDWVahTueAk7MrS4qB1bG8PUInHknbddW3bPu0yjyEGNfwqCPDFxOAqOGB/rRroJd8bJxcKbr4N91iivRjPi5/PzzTpNlyf0HnMNL05PcH3zvuw9Zb45NyGByipLKCrQENzZK0hSFF4zcWq6IsZAmSHISSUYMl7qJ2Z44smzUR1d++hvC/AphlRE37MUkvevWylpCJjfABYfQjFqf/YWXX6HBqx2inFEsLNb06KhyOSU2MOB2TY2CwSBZIU1bAGOr+VuikkdCsgQAz6GaM2F0TjCLStaIMsBhmWDRETLDxFQyWtp1TXlvxroIpzfAgIGcR/Zrxz33gbEuqwBv0l1br+rH7scDM/+Jkmb+9o1Ou0ECVaEhQLt5DqfJDENc9HnUevIcepaQE5onuVbrjIyhhSPRkiFCuuk6O9uaFEW/eYj18LrCgTQUI/DM3fB/RXftNdN0HJFFlgU2MxzM2TvWp51vfVDzF+vVfvaqMwBtlIrWqZ//UgM3boLf05VWAo2T6tM+KnBnX3hJgUhC6Ik35CN87n7v22RyuywcwxJdoH0kJka5TUHdRHhJyNJ9jPhB+njvHhRbDH7D6Mep8VtLzjTSOwubVgmMQ32UjMag/VadMxTC/KVpGubB3zVEGdtoG9phzXKWrNie+HBMveBjtxf1E8aTloNIm3B86eXDGmSvk2hv8ZOlB+misNlXPqp187Abxqdau3kcuYx19oYTaYw1MAOfRws7NTLBPmYqKjdW9V/7qcIS4GMLcjR8tkbuJ3/49CGfJ4onMKCKpMW4ubWlWZ37159o47vfQTkyqLkUVN88p/b1I1AvmSRS0ThqRqowKyizqgyS9g1U6Uec/pUwKlE2bymMBMFUQW3oP/uRdhVWVCqpKJcTAvbips1AO+FBC8FQpgEwddMUCY2L5MS0iZWbNjpdiiY1a2XjkrxxThtw3qZKEiy6FwH+WWBFozUskbLS3mqkm1Oep1bkbzsef6sW+sZV9Ph9nFgbbBCj49/5V0QtOfCuC5RHaVUBd3WQ3NnrzHO6yyorNEE/lWeAiW7J6BEjWGCkxjarKSU7i8M2jSppWO2Xa1EwdSmw4iGq+OUvCqKjjHC6Q62E2VZXR/vwPVbtdLCzJRoRwKizv3uBoRDpqj9xTsG3P6C9H/ugYmAzNn/oj3TX/Q/q2Hf+BWVPuLo620iu0BcAIWoPn1LJwV16+DOfpHeJbtGSEnVTVnVTnvXDG3uBFCFgzgIbvTCGKLmogKye9vG2fhiYoAODrOugn2hk/WDxJDJW2jWWIgrYcP2140xGQWDO2ps4x7phE7kHY1z8OBKLATN0FlgiZK00GQX5UHccGiSP7fUNjoAnFceRRSgPcIDCibKzk4h/4KttRoL1daVl5WA35DQkTobILUJao6OVZVPQHvj5fZvxdPulw6xhF1WsaFRhv7wjlPmrD3/40MAMtdFlRKp4iCjc4LMf/5Te8pmPAlTRZALkQ4TCFVx6xVvuU82RozRouXXyqafUgtQsB1GxUULxiC+Ov/iKyjG4ZbR+xlVOQeXYlI/yu/ZggMvy0s9jBmgXZn3zATLg5tobjkJpkKFd+XCRUXRfuqFdBvsZCQl+C41NOwmWG8WUzU7qamhwQv38yBg336T8KkYtkky14rX4TUVwSmkrU/Pxs4qpoNZLpt7T3gonCVXFyczIK6KLsUhjbGg04H7wJhQXC4c4QB48xBReOQi1YtHCBlVEkhBYKXSaNehEkxlBk1pmcQEYqQpvSJMdSUVBdZkmAf4Z6FwDeJXaw+dUSU/5GofLNsSm5o2SEIRByZi0cJ3kMWMHwxIaGbIVSEHDSZQi+elA/Pv2v/wznFcYopWzmiEUz07NgyG3AT1QQdGGPUhkM2ooBu4wROi1g5KO/jaJzHeWJMqMyiSPv/j83yutCraCNbHSbBhZvFXy0KgTeYYc2eAUCWNZ9Qa1ttxWCcyJF29okwzNu/V1dYGt6ershS3gYLrBojaQYwgDmkPfGQfNVci+2shILwmrddKaGmwJxqTrcg3eeNVRZHnx3EYJubyRTONbxCb6cE7jJFPZSoU7H8K7x3E/I+xrNwc/ERgzQBXv/i9+VmUPPyD3Zz/5N4cy8vLpYa9VDmH2l5/4aw2euqpUxqXEckqi8UxWFmS2IgMIEjXbPaCmN6CjwBVBFi4ZPOKNBUvgtneSuPzLJz8jyBoFmJFpi5ccFa/+2VGn7djq+NF4JWupXQNk24Q84+lmaRmxqpSR45OwAfOuFQenzPeOKJb5mobtJjr7VXfrpvKyg44KxiZc2OyeBryrdW8msBAmjbNasIk+bGFWI13OeJ2bx0/Rjx1SL5Wx1pMXlc6G2UzLDLhN05q6CVcrhBmbOmJT7OqOnHLKbwvAFS9tyUvAn1n+2CjKVTBxOy296RQi1pfmde3oMToJqtQPaR2CxF/hmguIEtcPH1MK6h33zILaG24786Mq9u1lglyabj7/GiLjaW1+9D61tTZRpYKvvXJFnibGwLAWAap6s8CBhz71l/ToR+n8N57ShV/+RF1Xr6gB75uVzoQ+1FYr7iWNogzKyqU/ivWf4xo6Glsx0DhtoI2lk26Gkr270VnRmAmV1VJXi3LIGgOZM4qHS6Z7NZz1b8agMtPohcdzhRPrrby9htcdZp9GWUvrmffjgBLQRWSSdBYd3K/rrx91uh04AU4X6TLr19fNKCLYkaz8fITdCIKIUDbqsb+tUyEOg0j8EtCwGhNhBg/9jj14dOVHv4Rp+bZ2vOMxZQHNGl48qn1//meM6AFOvv2Rxw7xtzM7suXF12D5J3TvFz6BBCxDiYV5am6spzsx6OgljQvbTMVpnXlB5Qf3K5OFtN7pcLCXNXLFQ8ruxOovHjtBm8UtJ7PPwZMkM2lk2RYGjDJCiIzkNPuo+8Zy+gw8j4KjQjOmNh9XVlGeUhmhGAmM8DOwoO7oKUa5IO0ifMR5ItXZ2QHmokGssxOlURnYKoEeIsIhXqeTkts0hHQO5LmFXDvd3a3NDCyLZUTOJIeACW9knRseuhsxbCoVnHYtYVRDcIrxJEfDhMHJxk7aGHq090/ee2djCYlh/LHRk2u8ps2HChB+/UHGHZKkDNTeUir9TxEcjpwg/eWDvUrfvYGqDrVnNqKto8m5b+s2tVAfi7rLBC4dUE1LsXSYUlG7efS07qLTIDw9QVnbNgNhAnirKSLKJu6HUWuE4oN/9XEqMSWKJTyfefop1V48RUK0DBRYV1NDPZwyRkcNPBLe2peT4WTUeIoAAEAASURBVOgozv76BVVySIaHB5xCxwpJj7WM29p2wY8mAsGsRTkW+HblyDFlM5nFZnL1tjQ7mfgc0Klkx3blw83GwF4Mwn1aYmNNedNEjEWi4yRJmA3tTS3Ig8VZh7UhkcQeVnBGq1QFLfufx+kkWijPYb4Aa+DhAJiApOaVIzr25I8UC9583zf/gckwJZSIU2g9ukVyzf5l4Dy++a1vH4ploFeUN0LPfPyzet93v6HLp2kr3r2TTMvjCAUG3rjGQreQbT7MkCvG9tCma4lAoiVGDromOUJMEc8JMw6saBtdn4Qrag7gCaoWbJ5l/dbrVEhIMf6vG4LZDMSN68/Cc9sUi2A1gwao78ZBOhthW3/lqnwkH2OcwAD4eIHiV5DEydoUUkiUetEnmvjDWm4jOCg2AMtIYhM3ezDak7/+jXOiU+D1ovHENqGj5ew5aussKpuyDBY1sW0iXv7UN76v88eOKQPPa54jhaQrmk23zfPC986AUT2wE0YPnT//Bp6Mlg3eJ7u8lMNC8xzEf+ORk7r3/e9RHy0ol86c1sXvPK17/+ojSNUomVJDN9GEPWIh+ssO7mMYLOVCZGVVB+/VlbMkQa4IZ1qyjQeynqPmM1eckY79CFF2PPIgHa6UVOOJZDiOLVXb1EpydfSpZ7TW1UcimUeClYE+l+l6gxMojcgT4BKPPPVj7Xz8UWemgD8RsQ4lSGeiHblCO9wz1uNk742XL8mDt7eGO+uQnUMfEUvkAvg52s5FrjuBvqxusvQpImpMSkDXcGi7eO0YDH4J+GLFAJvT6ubrsRaSzTVK03nM00phSjVY3zy3dam2X76s33z9m9T0S/XgX3wE6FbpCM7NeM0rxOenwWb8o9J2UjD48uc+e8jmKt149jnwUJQqH3jQabQPEM5bGG41AGYgw9CGfQwXwxjHO8EQeKOpqTHKnYBoNthKmmHcaFQis3rArZcZdbjrnW9D+Eu/NonQTFc/hOwiVaAqerTHHCCcwWmJJ8M0jaeV8VbCwzTBTZmmsKu/W0FAdzIVnin4yBgwlXUeWjFhkjJo941GZxS2Afg4wHwOP7chsvMkVy4oHpOudVy/oTjEAClksiZI8FK6HWugkQzsu0q4rjy4Xz5CUB8JyekfPMOAhhynR6dtYkT3cu013PuWLdU6f/a0pgn7cVS6Gs5cI0v3KDYnWZVlFSovrFA+EWJ2dV6bNlSrDrFHMxM/BhGxmCxtJ1K0G6dQKYGt190kCFBqLorwTr+ChVI8srX7WqtzHBSadZ0aT2jTWPzZDOhCb5qB55nkIA9yCFKycpUCxi3YslnNzZ068Efv1oE/fp8z3nICqd+JX/9UDb99VTPoYWPSE1V09161nzqvfLzgqollwJRz4Ekv2fV0Tz+FhxZn7oGLNbFRRNdePQqDEOReMx0YlkFhZJrEKJx1tPE30wzxSKAcbu1BCYRyQCWJjMvpynQx/3SS6GgqLoNXNnc1HY7TBhwbBZmELPPKc79lKuIr9P8Xa/8H3u0M18CRkiA5pIHDmNhzreR9+5VjqnrLvXI/kFF0aAklyzicnAH42Ta0fADdRTK63A3ltLLi3iFRbSirUzLkFNqsciv3NUP0muh4lIQmFS9hlaeGK5e1+Z4DjhLdpCUWEhrwhJlplNjg1KZ4/QQ2w+1jbiV0Vh+lT+t1tykmixiOEfYJ8HkNGAgkqDNRORmFkZUJG6/UOCMFjd4awGhsMvBIX69TWJhBxGBZo00RTqI4EEWYsRp21wgTgzdtVX9fl06SsW7esQVsVsOi0UEArJjoZupwYbEWOFwlB/cglMlFRUND4CtMYIa4z92/DbEE47zh9QJs2BAVsNCFW7pKG3JTb6cu/Ow5LfWMqA3BdgoKfV8wVWmQ1vFszuGf/xohxXa1vnaKSR+lDhRZ4n1dbAKXZv6CnXGRNXO4OHixsX5dfuWw1oZJAGtuq6v2tqMf2PqOx6n9I6yhchQRawwKLR4IpUcofMQkQapTTYsFZmzZuVvZDHKYYv/O/uK3GkeJlAjn3Dfcg6Fnchg71HP5hq4RRbLA3l4SynhbKxJEZ9oKBraEhiGjlFlTXXdGOdqkORsRGSRS2EhJgwcORmU/AvCZ1375O/nNBgjlsTBBSeyViWaicVxtA4i7IyjLXrmu+iOnNQGWfQw2IgHPvIatgEJZB44kYdhZC5bDNAumLU0rZp4VSZP743/ziUP5B3axgb3a8ecfUOJdW1W4azsjqGkb4H/t4DoTPPggtNMLEC5YxoubNirIGtRMGGE3FUPJy2j6bp6fSRi2kSiLiDtC8GB2I/VnLqJ8qiQ7znRmBNkkZsMrFqoHORgm5B0irE9iaOEYZrAc7pN6PmDmzuxQFsHGI64MjTq92y7qtItTGBhZt4k8TPFvcMLm+3S1tKCiQb3Oe5cDN2LBZBZ27nnvu/DYsbSoXFIkmoGx1k7NLiGsJWv3TC06IpTzP/iZ6n71ikqotsxyD5kIdlP3Vmt9aF63nn1J0+19evg7f0eLSlAjVxBjV5djkHhIDG2mgyoWa5YXLNLw+KgCkOXl99yt1E3leuGTn0Y6xgc9LIaT2LQxyWWI2vqMM1F6HM53aKhf10+/oa137caTelTxyL144QNKIRFdB6IkxMI4wCVai/cUxmz8cd3JU9BfmSj76eXxIzOkoheN9wlurlbqjlIVbNugaz/5tWqZ8TlaW8eAhz0qJltPAE+OgR8zCuC8gQHWghxJlMoH09c8+zLGRZcuri0STGuNelGoxNbXaH+BAjObcKEHtIa3rvF+rdTjcIhS6QXgfrykfQaBYUwj4rvxgud++Vvlbd2o8sceJIrKofxASjyHaA61NQ0TYS3pVsUEuzkcewgIZ3Dk9a89KfcnP/qXhzy8qA1LraDMN9mLYoZM0wrmIaihABSAZcYeLrq17pZCeLkFjMPHgpmw9cIvfoWsnw1hvPQSCzdMKLIZQOyteklkrMrkdF5ysq+fPg2FEenMiLdPlLC+GBsIYRPv+tvaaAAj+SA8BAgxNq9olUzSDa7MgpIwca21ObdStlxh1qUZ4vWjTGjGm9vs0ABwYRSDNk/swwiDSPtSCYcT1NOjuU7bhGggiQc4cYNkr/ZmvYr2bGc47GYOVSczkYJ65iOfUgFC63uh2Gyo2RSG00tT1wQwY55uUl9Bsgoe3scmvqbbz70KveJDNcVArZfBo/MUKxBcWF+8eYd1IMl4Y5tW2waASvRsbarSVOeAVpKiKP8x9IuqjVWwmB3oCHQyMZYqaJtYvPQqob/xwnUOegGClA55YCAmodWMpglRRrQ1TcCgzNfYPPp0klijd7wYQNvp87rx0mENc3jGW8DmHNoN9+5WD/sz1DXMrP5wJ+Gz6GV7YLynSSDjCPMmxPaQ3Tdfu6ydTzyM4aXj0yDsWbMBo53IB2zQwgzPs+nRadxvLvt6HJFLCW3fBAeN3mrShRdeVsNr4Hki8N7/9H4wt70ORrkIwIRmnEUUNDFIhYqSskEcU6KNsXdu4nsE0GAR4zYR+sAtavHvfctDh8LYjPm+MXp4NmCAjCjEu5k3tBNh/UUhdII2fdmamWw0YQDs5qa3qKeLOZPUw+MhutOyaTnGkG12fBYJRh1eqgTv5XcWEi4QABZAhXOT0F2IznGVDWyp59M0+F2bTW6dpUZLdAOmbQJegAVI5t8W0IguYgSXDx9XSbFNdGYkIpg2IiVOJWhUrWCQBT/a0wr1k5UF1LjTSz+Jh7CPc7EqRTyhjF4sVFHQT8CLjiNndf+f/SkfKxPUMockmnV74W++pC1P3I+HRa8IkVxE7frYJz6H8U8x7aRUxft2o4E9yzQ2qA+qaFaq7GOihy83U7v+8J1aQXZY+OhBR5dpHiARTjAGDNnc06LqffuZuhFQSjUTjI+dpSxJ5ChmJj8VGlP6R7LeNuXDHqFp5h8vkZ2DmS3h6OvpIuuHUSEKmYDXpkPnFsMIhIOv+dnJ3z6vVKLY6//0XV38yU/Zqxlto2JW9dbHFY5ziUYumU1rzSjG+vgXP6PzQJLrCJDzgrQuk2wtwmJYX7pRfx5oJut2aKOyl1la5nhmY0dMWTQKsW55hskNvdxbOLDMs8K/kTuEc80jFGNO/OJnTMMe1V2PPaRykjpnWiI0pU09nIb9aLhZg774nEr37HTmMFnDndF8ZluR4Ny6q9eUWRB0El8Tq+Sy1+6//tMPH8rdusWZhhzctol0fM4pRxpOwhPzQCpF5mYfLZICOTsAoDcxrFFD7INK9u1Vdx1ke25Q0yh7hEH4EdGm8v0yCz3Q3YUJQaPCh0ViHDal5MWnnkapn+GA5GFwqU1YS6VS03qlRqnxSUzRw+vyvHkyyTamP9ucpUTCtE0AzqgqczDSIFhzgRt3pF4oezwkcqZst6Y/N/yoiV9N8LoIXTNNOJwH7I8BIUzZb2Ott/6nd5KphpzR2OnFRdTOK6gewZ3G0UwH3v7ZZ7/oVJYyHtpPBYYW5qER5cNsWPVrFs/o4uTf/f73Eboe0AJsR9Q4QmLEM8MDzKxflG7ACDScPqMZ+sJvHjuON+4lAtzS/X/5EeiaVtW9fEJFZKnUJPCDhklZJb62tu0ZBlf09/dAPccoOT6FDYwB/kAVoUnIDgaRAlI6bGzSS1/9juZQoHsz+ZgYMuJNjzyuLe94O90E1OQpW07iPNaIKCEYhqVuWkGgc6oeuBfJXqpe++6/6PLRI6q+ezeGDv/byjwCYFQ4GDMHOqv3Gu3YGHd7YzPQZMVRmQ1DQQbAoThKB0PX0pH7xg+eQmuxoPrTF/Tef/4iSeNOp7q2hlduRmJn/O6A8cZwrpYz9JypVSFY3x5rqMpa0CgMQ9dFs56ZVq3jZyZCsfXov9ko9zsO3nfI1Cv9phGcHKPCwKCuXHrUf38Ry3gKa5HwsbGDyM6ChUV4yWYWlolvEN02pH+6Z9AZhhoDFdQKxZJIf9HSGLPMAdgL4MCl1WV6hsagkkzRvqzSTRv5UKt6Z1pzDMnMfG+vzr72MnxbOT3tqHswPuMmF9FAWhJgn6k0DE61cBBLcjBEmDGSPpfNso9rmWAMeBpeeBRmYZ4s2eax2+c3WaeoDXcw2sY+iMEmkcSTzGkIGibaxYYwUZgkaSkSD4+qqvnYGQ1fuukY80Nkx4Ht1Qzr4uN0MOzoRWYrkRUTYlRNdrkI5MkHDszSVWoDcz35qXzuEgqulk51HnlD/gIU+2C9EFWodIzH6twlAfrrmViy8eBBLaLQqr9yho0rdiKVZbJ35hMQSfCqIcPaQIV0vLd1V0bh3aI8YWo8ekyvfu97cpG17/3TP1H1e97Oeg0gJ3zY6cS0T2SxcquJZ2KgyKI5uIswJ0klRbrwjR/THFjGPKoY7ULaZ209nS+exom0M7PgPgcPznHAwhm2UQuE8eWkUYrM4GOHAiQyYU57TseVWrLxl9UBO5BA9DjwkT9UgR3cxkatUuK0D+LqutWgCXS9CUC1SvIZm5NgAxuGejs0gNHZxwAZ6+AmucMPO2PHI6A5o1jTxhuXwPZ1uvKrl5wpg+6//fgnDlkW3U85MCWG7BksWFJNUuAcE043IdDUQsZ5+sGdfS30n5DcON2X0Es2Pz2GG+5Hj5hHmI/mUyGMimjCW5hIoQSMZ/K8WXjOCLjJZVMNoShyTy5ooq1X3ddu6BRA3g2uDW7b6oSD4h3I5wJeRr8waaShnbLpiJLK89V5gyY7jM1GpiRQXrvjdMLQi8bQulwLyCcJI3xab/koJVL74ALToQ40deFtl2kEo9uTo2cE/jN/8nFooHvwotO6+uSvGLRwho+FqQJ7vUXrfoYhgM+68X4baQyzTkk3P+tnOnEK2eXg+hzTkQvBTrO6Ct6z3qZCSr6nvvc00+66FF/NLACwcwyHZuf7386HBsyr9sIFhaf66ccZUyTvb4Bxkfs3ofQSmxMPc+EIm7kp6zm1Nt8OwqaFx0iI8Jf+7vN45NN4wHu044//SIm0Mhs0Mr73cm2tygjNESjlbfaSTSZ2LS7hbOYYpXOFOjiDHKiWdZ6/qrQ9GxVC5TSEcr98/x7FUA5dhf88/uQzqiCC+lAfPY93LUCVb7I5m5I3Mk4rB3i8B2hU+4vn9cCnPqzSBw8wtidCE/Wd6r3VTJcrVBQeu+Leu/kEvwKGqgkHgbfH0VntfZFoNXyLoRk4PDPM4Da6ZImMIRRKNuRhHLj0wree1Ow1JkAfvFsbGVGZsoFhDs01Nesmteqoq9MYSvCcew46bRrZLLgzqIEFGwGjmPKlq42PlYFMHkPRnlfGJ5mxCddQ2WQWBqGGUNHPoBl8+mfa+pEPyDVNHR3vOU8FKZ3xf9GQvBGcl/6WFow9DW86w7ADZsfDX1pN2Tx2CA841EkPNppC02j6oSyieT8j7EvITG1uZOulGyrcgZAE3GaPZsLnAgDbhoNF4S2tfWMNL70wQ3aIkYVhPGPUedfTA8pMzJSbpGCODLsTvvLykeNK31Std371i0ooKlAbtIyLWZlWuIhEWD04x6dsjPPhDdWVTq/UZEuDbhC2IXtUhhddIhx7aL8oqN4AM3ANrBYiQXmRpJrK09ZNyuDA1pw5r2QoNZH1Xjh5UjlwqxUPPkAZdJeDkS/86MfgxDxt3H8AF8oqGLbiMT1Mwkdk6m5qcCo3lXt2qw8vn0tFK5xkpY2iRx5e0ao2A+euOx+sEIFxNmGs9slyHg6VM1ACx5CQkAJfzQRqYEE3RhowOMP62Tgf67Kt2HcXz2cI2ctHdPvkWT7Q4OOQ5fk6+t0fahv4egFIc/5nz6Il3aKEyiIUY8jsKNWmb9+ISmuMw8zU5+xknf7VCzr4//yhQ/eNU3AxYw8BSyINxCDpTM/Jh350qY5e+q0ffC/Yd0A1L71Ml8aAwxzlckC8aQnkDXwuAVGAdge5/+FTnzsUDa7ov3aNDHhe1W9/hL7256iMICxl2t14eyeq6H4ojm7AO2FuQ4VTnRlt7sBDDqp8306nxcJ4vNtnL2gTBm6djTYNLx3uzrLPtRUmR8TyYVoYzQDlsmUuOhBIBc9wEeA3q9faINyxhmZ+p8IhkMMRii6NzHICSQbYwLHhUYyNwarYZTSCgpZzF+Agn2WwGAJbwpCVBI0gdkFCe8BssyMQ/MADrxk7BymcBGOCE24fEtELnqusYi7pZz7mYKysvFSU8fSCRzHjni7PJZI0V1ISCv8c1R49qc33HnA+zGuSitX1519WsWE16LIIrr+ApOHKsaMcQKazxSbx+zHauH2PVilbxiyvqQmvtwIGvnbpmhPa/cyIshml6Xn24QU3kSxWqOXZV/lwA7whdI7xusP/jauzALD7rNL+mbnj7u6ekbg0niZp6m6UAkUXWGSRshRYtvPhUGRhkWLdllKoULekTRpp3DOTSTLu7j5zx77f8w7lW74LaZtk7r3///993yPPec5zKCMuYJGSCnOwIugRYGHjCGck0iZerOrY/hyMGUIgUR3ncas1Z88jTx7rmEhyLUI3pIoieZlRvl88hVDu6eye3Va0fYP5Ty5A7gBQpylPDPlmQjyFAaVXb7G9Tz6D7M8I5e9kO4WczaV3jtrOb34RQYg8+AAX2XgwkwLRLCUR1VQYaatOesdtgjacjuYG2FI064XQsxQV79j6EVQOx0ikYsBJJQp3+qmnrKPlstXvP2vLd+2wNfff7eaHBoCA+FG10zANohk3QsfzwE23l7e2NFrP0bNgxlRzSEyiuZmMrByIqaWm2nc8YG4SQK/UgtV9KRZ8PFPiRumIlOqv4IozqC6v2n41DBZ64fPzaHsAnC/Ic5S2IaziEPGfZi35zmElsBRhXKyGKoi51HC+0houVNi5d163jffcTpyYYdUAyhrtMuQdtjSwP1k0icfW//lNWj5qbQ2urpjux3xinASsn1g4PmyOKORYlP37wjrKpw4dzKJIeS1v6xbcykrY5GuwlqADuDzJUOfRgvD0N75ny6/eRnYKmsBDn6ca0sf3xYfRKk1dWjCLtJmUoIxwkPpweblrVznXdfnAARt8+7hVv/qOZd64ETpbmFXzPFOiNQOpjpGOF6ExxkJQoZ0lP8da8SDpiER4QTWiQSq8hEmBpRn22kOPMJaF3imeS9qqUif1w050pcaFKTYhGWkgmb66R9UWrLE/dZC/k3DfUWzGnt4uN8pSZeURDqKI4tqoHlZaRQ0NjFAWNgr+KvW+dhKTRGLB/qZm1/EqYY2ulg4GVCTamhuvw7o12WsPfNGGwY+v+/fPgo2GwyW9CFKS6mLPEHqv+htaHbf0CPS7Fri+Glw73NFna++5zc0wberH8xJyKeEZIm859ASY7BsHsIwzcA/uwBjewffFu9L1ok4U+Qh8jEaS5aDJWYxVvnm+88Pvl2fhNlqgzkXSWJ/ABuscG7BTL++zFTdfx4NFfx6XrDlJl86ddcOkYmS6ib8EhUiP/iRmeuW2Lc5auWw0wM/8gQD6yfRnI1C6GJqifEcCVFEBUAumCSArAqsmbBx49Q3m9JQik1hsY039WAUsYhLx2DjcSxa3paLKjr3yOtS6Glx2gF1f/lX6cEpxK/Tb46oHR4boe8LF4w78wc4E14yCDEjZQsG+dN+78AIabCAwX0IFEsLV38VSSm2bH7OcxHTi20qyVvBc2jB6ibMLVjERA88hQV+1R0g1ZJjafQiElV4QglSY7u/+/i8w2/vNk8H1hjI04ak3mCDCkDCShaJrt1NooMkOLFeFjm42dV9dk40QD4svqhp8IJ6g/tAxEqs2u+On34JT0OQSEz8IIYERYKxsStVYJOwgDybCRXsDYhHgiKLEiRwiIowvllK9VioJC/DWBu6AeB3N4VRhdYE8QVm9qkDRbLCjv/mrld6w1ekSzAEvNrY3u0JLMEmuLK84A3/62jdt8627bOX77iVOZM4p15lJUaLpTCWtyQFOlmiORFjKzwkk1YUr17pSZ2d1reVsvsqhEfNcUzN487EXXuD6GU4GIrLlw/c5TL2PokYS1SmJE2uNhsBFmy9XI2NJvgC5JP/qTTznNjTqf/z9cuklXaLEFliaCaTga4WUNwPYRDMspNocFubBQjm56anprk1AOpcpWK3a8xeYZHHUNt16C4D4CA8Ed4ppVtVB40xqKmlvwGLimMBBISSTjepzFCcWrsQC8d9puDGp8QoKyse9TDR12PN//CPlQ+YJ8f3XfP4Ttu6ee6z4mh3wTjNtFjJxL4SHSRYpEqKtqjMKxsMRamilNDnC+8RkUggiLUrV7zXwQERbFQHCQ0lUqEerOStWsRnWpIBGsLN79mB98yyfbP/sm7thrRdZLwnUUpK8nhrKsaAYcqnNbcTIhCfLCYXkhg68+aYVZWRB7WPEDhvOn+FhncBh6WSw70CQltKKyNL+HGYlbOpfTw6LpJ0XeUhi6pGuPsteu5LLmAYf3EB2fMKmgUQTEpKdxRPxha9hU1e5qo8/QLuky0PAYlW1USwfxGZeoE1noJvxM/JMbFKNaBS0p6ERkm9vq2ugtMxgBhLUMWQQo/EwLYRUcZFwROEXlPB8VdmTCNvZZ9C9isFY3X8T3gNEob2X64ZAgrXPzytws5j0GfW488333YV4BeNq4mDSg86EsfZNiBKfemUPskCnqPsHWn5ZGQgMzwVPmkZoMxMXYmcJlcKx4J01dTbahrIJ4aJkMeeTIynCEMLtO2L+FCE85eX/p1yPoO7l3cQCt7KYvnbhxdct7SooY01tANEomNVC4ogJY+EpffLGDoQOeiAaiIa37Hq0hwBwxTBSVUIWVJBEH92c3lESjGAIxDyMIB5WLCyoEVpcW1RhIobyRgQSOsCPpDJTDx7WD99zkhDj1ge/YEW4mW44kXlkq2C9sIn6ING2WTsJWj5xsOrCivd6YDQNzk5CBgam8PGndeIvrs22/lSFreUzAkhQNJhsnAOglmfp5ItgrbJoTzeWFtx2zmeWgQ9VQEPZLsabYaHVK6MNrpk9GkWet2oFGKGf5eMJxhGAWGCzjfBz8ZC8pcZ8Edel0EL4rGYbtTc3WjRx5axKiRwmHx66Zm36gT7UE2euvP0mSyjMtRBYViFxsSQ0aOgTAvXhvZp2H3H9+jmw51X3VnaflJpmR597kd75ayBzt1Lrj3fk7t5msF2ehVhZbdV1CB5kutKzJNjFrRDIrnAghjBNjLCYGP0slSrkfnphdc2RV/QBmGuysw5ybEy8vfTzn9lt3/4mDYAxkIkhI6NbkL9hlTWerjB/Og3GqDoKFrv6g/c5iz0FGfvk82/Y5d37MGrzVKXgo94DGgISrdaSBXEFCDEC4BJE8NyVADU9+aJFAsX5sWbia6gCmZiaRJ99AJKcqdZDJXEUQ+Q3ygmWyq/KgdO4seScTKvlxHZ2UmPFQlU9/7LTwpzl54TNpaxfZqkbVts4ddl4yKdjQ+O4F8qSVBRagUU0S90xhtgU6pmfBFSOBv6QMh7ZiqtOlLGAPpEhJBF+9vLDP7HSXVts81UfgFVLDKIYEIzLn1A1Fdeh+nMgVmOUcmYOLkF0vhHcZQQPuqOVAQAR9MuAP5IaOQx01c7NNo+KXWwQ/e1wEluI+Xwpk5Ieu7DEl1Cgt6WFPilUOXhY0yQgUrmIz1tCoxyNZaFBlrB5DdhsN/rqSWB2Kfwc4mW4azXsdYJKpBZkmzREy3DjTcRKlcTf937ls9bE4VsH+mF0Yk6PjDOUagFFPSbOsVlyKTCok1Gaox//2SPWguiEDyGDH95LCiGsNBLg3W6DRGxaZ3McrHFR43DrPArHJSgEJx7rpTzIYZ8ZGyNREqwUCmUOJRQOdh/lyGYqarLkoRgFiecmEqLp7mGVOn6rQP6u6noqfIm2/ePvIyQhZOCAR4fE2KXqi3bq4WdQjd7kFJCDIWuP4A1ExJEGQWo0lEeuOZlqWz084Wq8TndVHSITobbzY/czjIGyJdc11NWL4ks3rd0ZPM9AtOb93ZAwlcDHMBRDc8TdaTxXQpI5X9hwXGEySNAUhzE9W/mEH/TJYFt6y1bzfO6jHy/3osXUU1NrzzzKJLc2xmSDr0USwDccPWfzVA/8aTve/OmPWBLUspCiAgvH/Y2RjUmgwSeQbI74RsrBmuyrEXpBWAsMsWvBPQP+V4jFCyZmVP08LDOZsCHOzv3mz9ZATLrrS/9qkZTcRC4Yn6bBCoszAjbYwWJm5RcxghrRVD5PJGUlVYqnKo4dpS7MqQQOGiJJGwMYbjx9FERhs3XS+y71YkmZK8ErKVvqRHAVz+QVF7NZGIyIa1TLh2QAF7AwlynLan6RhsRKQc8LrzClACkdvm+SDanBXkpYMksZiBWIq8OtNjc0Oi35VOrNc2wELxY1Zv1KO3/wGJ2XqJ+MUmXnwA0RJkxiqVTVUj9TFqFROmVUMkbKvNkADEEkFoQlXJc4mLEkVM21dRQgwH0bGRSWncU7eXHYggkzuqvqEdFlgsexC07ES0mTeK1KgkQgKV631qmKBPKsp+CRhmCdOCYyDRYwiWwPiWYQxqG6jqwdAzPEe5Kwxi0c+lWbt2CFr9iqm693hJTqM3TgqqoHbPYiGGXOatpUgITaummGZDrIJGvRR9FjBd5gZnrWqvYddNoBCp9yOKhj44g4lJW40mg7LlwWOoPwUbCiD/ejlprI+ESeYwRkk2zXcj5F7tHIIRPi099MVfBz7/tgeec5LhrW9tIC8DFiibQdG2ySmyghqO04ydz1q5Zb1R4NeIWpHQ+jCAzMja3hIWvA00xvv6vfT4M/+nJiNPpQcjeq2WpDzBDPOt17kqcOyB6v//fvEAy4yvKv3Yxri0ZwoM4JdHmITceg/k0CccSiNR+G64oACulks0p+pqcFcTO+T8QQTR7R8AFljillBfbn7/7AkkJpMcjLATdcgMkD6M+BmRKTHyuollvRuLTJpXmvUTqaVxmfkmaXD79r6z9wH9LhHlc166UKInbSACTsjJxcFhcmPO5R2kjqARe7v5CNf+nEaUp09MWjCVpNB2ICLP31d92GlRkFz21y1i+FMGiOQzQ55bWkeMR5YV5JG7MT0FoZvlj8kTExFAOCXMInRESCBvEgCj0kVRrDqH514bwLIA8arDZBAjjLwQomDs0sKuJ9A05gWApxHp79JCHIyOQogycY9Q11cJoNrMZEzUyKxY0mgtBoXmn+mjUksh1ugrLEyIKiiVVPoGpy/S5gU5B2PE84xmSQRDC3uNQGxojbM5LxOKctfnWprWZjxlDpmu1DcghDtmzrZidBLl1+Cd5Kh0nzndwwOBKhYPDSDjZlHOSRCIzgEPF84Y5trAtHiO+XGJyX5yMkIoXuiwX2k58fcVXVkSOWt2GZtRFXFt56A2ygSAvtxywTHLeritTSaytuu9YGsG7Dp1EjQy1uYjqaJAbTjKWdIcaKAeuKAjKYwbL6Eih3tUrcdsqiiDHaYLikZGXZub+9avtor33w+SdJpnyp0zJAdQhiRAbZI8CxWgzqKtBZxxo0EFtdGD8EoRYWOQhC1h03mxfGh+bqXGFDScdUqhq9NbV2nrLpNR/6qOVxoEgfqVMzspHvF2AvJpXkxoPDI2Dk0DPD5uZ5uOsbp6rRsO8CyAI19GYIE+00oLEg8WC44h20VFW5eVAdNTWubu6mfYAShPFwe8jwY0h8RA3shrC8iv6i6Nw0eswjbOmmDdZ04pRNk8Vm77rGirZtRSoGATKuobejjWSuEspdKzzUPGtoabL1779bl0QvF20l/DuWZPQ8YYea+6bZiJLGZv0IezwWD3UviKS1j57zbsrCqkCpOTEY6yimvMgy/Kh71VBgqdczJpHUMIrckiKL5MCM0cMfQogjxRSX6eMBZtmch37xpJXcSE7BuwXgJxHK+KE9MAeOHB2MZPcEZPOXD1rWtqus4JprAOR7uGaS4akuW7Fzmyt/+5BbzA4S8nXTaMfBG+Y7/EElqk+ctNXXbHXxuSIu1ct68GAiJTVT2hzzm7NVWzZSiIEDCpbtobQbPEAe4OV0PvCrn+KCFuy1jl/ixsrcjPg2uRdOrxFgj3NDvpiuRqo4ZSUlyD4jE47Z7yEzlDZ7P/HUKGU7aYCqDzoK6xfkQ6sEViCyGBHcF+rtiS983lau32EPvvBn6+EUKZvPIWM++fZexHHRW8LlBhDLrIEFo/k7uxEtiKLc56XRas3tN1o7E5nHZqZcbbx4y1a04JFyuXyZfiD4j8uXug0o0SpJJAaRxYu9ngvm2XKRicbEchoEOzclKfFYCyDwn8AqFBAL+2PdQtetcON0EuIT6HWvIbEYRMqGJ4KHEN+StQQBiLNesFGJPUzQPanZQzFL8uz4i6/Z+ptv4GfYNNTlG559yYITom3dvXdgFQOZModCHD1IfuFMDN73lhv1Aw2IQpk/Shx4AGhqgyN9Nt4Kv1Y7i4QwPAHpSMKNQBLTBbyBr7avsnmyxQD+U0ljBIvvX1ZMvO4Ha2wNCa3GPTI3CmgvFpGMHkKaSXqCkglVpGDnqH08Ex2M2ncPgyyEQb9rMF9k0X3090OQzck3hokPVw8h7EArcFAomb6GWpBgzdCHFjJkrk37rn/5OlgrMugnKu2lF16xz/3uF1h4oiD2yDzWfXgEGUwqQirZtuKdI1jHkh1bYE8RNvFz5J/qG3Lz6iWnrkS3ncSvGopeJLBZMl5xMi0NTBjIS9Q6X06jxoXs+uB9gL8nxRHGvaJ+RrB/3y/K2Qh1lPXm7er33UFcB7sa86vXFLFrYmoGXM0Z8wAm+2HCFU9Io9IvLRwJbK8d+MF/WxdYadEKYqPiLKvl1IfjJjI46bUVF5waiFgz0+CTIiB3zfQhQtDnauLCZb39QFBYiAYOzKa7bmJo1SU7eeIsg1JLcdNrHB1vsG/OSR32E8tJakXrefHMGZehSjW4DHqX4BoxkTTpLMjj4/rg1SGg9ugZcVzJlAOxTLP8L2d5mXP1gjk0QFc0Xb13gURNGvhtjY0WSJwbn8gEEpLK8W4G5Y7CpQTS8eNkVP7pJYv5j8/RkbACqOkxG01uoJKFtgAFh9C1a9AwxSLmUu49dNl8W4Bo1vhbVAkbiXBo1Af7BTVtAM0oT28EBydde5Zb4p/8/z3r6KfEyo8Ga+A1L/creKiZUmYEFlXYpCbFKV6WJNH//zr6TIdt+PcvEFYrMl18dVyusrt//i0LBcqrYKO++8LfIAMhVU6rS/yW7SAmiXbkj3+xG77yr64PbagD/ib3VLprMwlkBwraKO3h0luuMLyWEKIR7zMVOmMlq1fTbw+SgHGZAabqIXbvwehNEfP2X7jiMO5kEsiVd93MngP2+18vtqF57rnh5vLJGdjpuPL646fsyH/9wcIB1qWtpPHMVK3My8SO4ZZup005TaVAeKaXbG2UBxlAzCkVOykMpxD/CdYRbhoyP2dP/PQR23bjjVa4bZtVUvVYuYseE+x7QjwDTdkkjG5w/MxWHqxgkQQSIVWtFCIIUG+h7YFMi76kUVu+fAWu/QTFAtSVURKR/HZ0Ouwg2DfJWD7haKpwCdqeGB5D0gUmE6dUbnlmzksyQuKGyw/kMHYBgWmEzlBXD3Mnc6z+5FkGImxx7boSMIiIjHd0QqnpaepdLFmrKIbxjFNRT7ea/KIJgxa4lzEy9xnIF35skiC+Q3Ob2C3EToHWRAXHCzSn4Q+BHFwRbmbZVOnLyki8OiwNLVEPvFaJFvQRMihE8iWs2vunp23Xh+5nQ6rnShUgHCJxvPDlVsIUgfNCCfxIwnw4MIFs3B4AcpFsZkkAU7FAEgoW/1Vq2HppsfkxazhCcxzxQvoyugD4PQaUA2i297cIddx6o2v9WCAG3HLv3RCbSx10d/qd/Vb1zCtYWwD0a7bwLIHDsNAa0aj4cRbEQ7GlWGZemF0ddcyhosDhD9y0AAmo43Kj1b2x36aA6zKKShkFWQboX2qhJEYecotl10I8AZEQ19ZdpC6MC9b1en73u9+Xx/Jg/AnSpRk/QwabjMssuuNa5k9mww4imGWhAolRYonNlHSk0BPky0aUKINO7gjuegiXqbhhgWxXUovHqecXUO/OI+6YxiqImDqDJZU+Z9sVRh8OD2IWFtiUEJZJlMZH0PohOVogmRjo6XX1fd/ZBctayoxPDopU4/w5OAllhbi01daCFZOnUIbtZXOH4fJC2HwS91cfu0qGylAlEdgLBU7JkToa1V4QQlyrGFjuP7O0GNd7gP5scFQ2US+B+hzQmSxibjGq02xitVm4lhJKr10kbJpc3N7Z4eK0IC/jpPmeZKos4XidPhLGsmt2OAmhSZKKtSQXKlZINmaWw1x41Tp798mnYO1coayMz+QwhXP/cyQ//XX19s4zL9qGe+9y5Um1zizOL+JG//4Ss0rg/qVjJ22e+5zDMs3B3Kq9ctlRCtUb73Q2OYwSQdOkvCYKGB7WRZI3x578q62/8zYMyohTSpnEUvdB7BiCs5lDDD9NDqFZUNEkqC3cowoWatJrP3vBAqjwVT7/mlW/fdjCMDBqoc5czkZPjWZGQDAxeQBVLqZjEx7p8PcfO02vfIcVXrsV43Q143Zy8cqId3Agtf2UdJ/e9yb5z0ZnlX0RH9YUZ+3MWX5mjn8jYPu1ctJeZzF9KY2MVwCiU+iPz4fNTFWJQwy0UcuFANfw8MW8D8Y6iGYnzqUyM1Vo1J+9QInPCzSw/4+P07Y0a1se+CBwRR+dhccc8eLwcy8AW7ARSKjiQwHteTgqeYqONcECJcjE41YHsUISAJAArQSn5h10FGON9Viz3BwH/eSWQKJgo8gCSshrloPTyELo8PkSg4ayCUUR04BWqeNJujALHFE9TJqqq42qjTaFdV6xfp397XuPOKvrZZNL8U14rrSEkkigpAgsFb3G42exgsluGkUWbC6Jnsnaz4UHg3OW2CgVMY3JaaYcuJAWZbkpqXZkz9v04iw4+Z543xCr3AObnTaJ5e+/2fwGsC5tLcRmGRQDhmz/Y0/bB35UDhMeDBeL7VTmtAC8cEpu4cQgm8GSxWM4JPA1Sab+l2/9yK779Efd/Yzzd1PAVQ0oxCVhFMTQD6RUmZCXZQ2QeOIhLccTHikU0y8NF7tA8rqMGDGM0GusDY9EaDULcVijJyNBYqSxf57rTiZ5jYDjGkdnwEgHqiskfXVnL9t0FSrXhFfN7a2uyW/JujUkhvQ+sRlnCJg17wAw2zouIJUzOmjVFy+4UUPQgawDJlb++jUOsJ9HOHcxmPFx3Rv6rQ9oPWVvmtuAIqRyd+gb/2X3PvZjdi/xGE/FB7bMnl/9Gi3JL+g50XvUidpbsjUcPGK1dIIOIgqQFEc3H9ZWgmJBqTGwk2gJoAojSZr9JEFrlq+x02/sdup2g2CCW++6mwyQciUWVdn9FBZavTWSTrl44qRrxFNcq56cs0z/WAbRwzs3ZVUHD9qKG29y2lAa7z3Lw5cGVKiSCay4NCiDYC81njqNEAOJwugQHZ3wUfEXKhWGktiJx6rRL2OU1/pmGcwKFFWIhagHH/TW99rSD9zs7nOQJGyglT4erFwA0+gkDa6RiTGFWVDWwIexsjNzMNtZlMKSUqe2PIs711jJa95/L2rIA67lWe293cApadzLZeYntQM/FdDvE0WIIJW3t3/yXzZe3WgFEF8yNqzDAvdyIIZd2VMexnEb3BUBxWDdhLqr7dufzSmC+LtAdsnE8LNs6qm2YZr0GN1C1i+x3WB0AEYv1IOXLgr47v3mD+zux36OdVIsS8XPOVEf+8P7PmYff/qP7luqqOhFE/744smCgbxm+HflQYjVGKJ+9kIsIVhPPdWrKDo3SWJyypY7OSCVjPVqIFFNAEbSAffyPe10dGaUFDoXPs6zEMNNqArLgCDbIBMGgRhBaZbdcK2TOleopJc7lvyQ58EHHyxXRiiOJn3F1khykbim2CYvNVsYKm4TWJyOffttjou9CGPn4rN/s/qjRwnoUSNhUxbewLSHu+6wqNIiC2BTJGdSviPjHUMGkOeLpYx0wvibbrnJ8S3LcHGzwB5SqUiW25/BFRHXqS9lAGvrB3yUnJHmHuIAN5ANznfh+HHc0xS1ZPQ4sSCaeb5k9XJKalGEGCQCJFy6r1oIH5K+noNUkpZfQEyDq8HCDFPFkjS2RMu6WpmpCbQzV93kvkuPYpTwQuogL2BFh7BoF1993VWsfLGgKwH/1WbSx0YdJoyJS0VRGtpbDzCWatyxfKYvh6QPbmVKHhPrILv4sTEGWMRRrLYGdalHXNPgNB9dol0q6SUS2nRVnLc9D5Uzk5R+I+RyAklspEYdT0wdEBa6uFB/t6AKT6Qw2ECypiZDDbjov0RLBfzO9Z/6MGFIIlPdet3mreJ5+Sk+5ND7RgY67LrtCCp/122AFgjFEdhngbBDTYu9bD4PyUD6WnTmeWnWUgLlZ+kPJBawloRIF1/fYyvvvs1m41HFJkEer2tzcNdZFAB9wJI1sKILKc1JYEIJcAhB0QxRKWhrXdSXJgVnP+h0wYQ5el4SuO1hUp2kcM5RZi+gO0FTA32U5uNxhFSoxOv57ve+Xa4ivk7qJA/dj1aIODbaoddet7cffZKCPyxsWgfCOQUiy5ay0/O2b0P1AbNM8uAzwvhnbkIEEA+b1p8vl5keA6wOJk4FL3GzJ+vPMP2CBfXiuiSov2TNWggUDEMlC5NSb2pGhuMXeofHsT59WJ9kukuTscRMCsFaNHDSNt7JiD2dbjal2OQeXPkIoHYHeJz0TWMpfzo+AJ85yGd0dSurzwd2SSQ2GidOu2Rp/MwkG/LEiRM2e7mNmNvHcqHsPf6xj9t1n7zP0vOLrfTjH4KdTrmSmDiAzajJdzPwS+Mo5UnULJh4PBPSbw1WVrVvyR9eYrPEk7RJO76XxZIImlqL85aWUVsmTOB5RJL5J0IHbD1y3H513f02A3NnIj4Q0dwdoHnDUP+WI0VDNQmugPgM/896EvmwcaLjSfhY/fT8PHcwzvzsDwiWLbNhUQPZVOGR4S75yiF2ziC2niXk6uvpsWmwyJPUvmNWlDjep0jfnQD1nRCwX3nw2xZNnb2ptt7az1fD121ihnwzXyhWFBKJrY2gHODQG9ZDruH5YsxS1iwjSWRGKslOLAMZJlmzeTpPRYSJIy71D2c0JgfZXygBVlTylpHg0UPwKJprqBLhrTta0KGCcKKugyHgynigOM1SdQMjtDnBreQFPF9/6KFyTX3zYskm+YCq51+1y6/uh4wbBex0j237+EecG80FfJbyhbibyrA0PWKGn2/vbgJEJnOGyiayrUaQjPV1U52AUEGWK0JGElWlEU58+rKlxCUIPARSd+7tdLS7biyPeofUOzNKNUJip4rzggG85wkxFE9fOH4MoVigovBQRwVTK4O4kb28d4INqnKaeo+UaM3C1vElph5jg2pIwgDfPwXPUjS85FQYRi+8aLlJTLgD+I/CUhft2mYXnnnNMq5aT+fmetv3wvN0E9LXT6Ig2MtL+OMDnBLB9QxyfYptNedIBIwZLLpY/GpmiwsRvIb6G7S4DD4/pTSfhx9NnEieS7hy6uXXrHnPQTtKhj5IQUT9TGs/SaZO5jp4mbifgxOQEusqQz7E76rNc+v/eKmZTsrSajAMp3w5xfM9vnuP3fDZT6NCCChOL1YXXImE8FhGFGa5bsswcoMo7vncc2hq3X+HG3YbSVafA+ElY2mxRbKBajAc7/vR9+A5lKC0wuajmXEOiUNZNgH8x/78tAVT6h4kRnZDE7Dwuq5BwjJN8mito8s0P99iOJwaOyQytQZZaHxlP9zZOfZDK/ebBLIghpvmpGZhNHRoVZsPBJSPpxpXD6E7mE3sh4f047r8scw1tJV7/u2BT5ePYyki4jHlf3nJiZxe+9V/o5msBxY0dW3iwqrLuE6s0kBfn2WQtUWTCAxCJpFGTxiBcjotqnpoc/h0iZqGA4RLazKQje8Gf0VEWNWZc8yFX0dYjEUlGVPCpd7nWdywLIP6b0ShC0fprRMQOIH4xpeYp40HMI2FSEhLcj1N02OTuFfG9EGr01TkEU53KCdWkjmyOqK0aZRJFz8jvqSHQ5WST4svp9tBMAWFEBF4CDB6Bidx27jiJoDibDgGLUOwm07XQximNwdepABj6YVqAYKBTIZG+m2YHqk5rl88BEE9WWCmcqfjuP9ZDoiPP7E7XkPa+KEo+dXjgc4897wNUyad5tpuomBxpfIiQD+bmi4DTpFt+9RHbYQsWyMdJ0Es9Nwk8qrqkdIGPVfnK/E+GqMTwEE9+tiTVoblXwDCUhfmvJdZRxgM6dpLJUQ4qd47i2WuoS9fU/+GyRcG4GFGkjAJAT331PN21UfuXhRx4ws0uEJURLV5C/UgH2fw2DxFh7tdYeD4W28DO7F2kEe0eRNT0l0/USUGxGkrsB9UuBlhbSMIW+S5IskJusDRO/Ew8iKdDQiBEMbVYOhCZpF37O3GYAXR5bqPz+Ye5ieti71y7Imn6QqtgA/6yHfLGYVgT3/pP9E4gi3NyZkm2fFisiXJQvnG1Ve7cLFeCBDiI0oFY5YsPi0LHAtrJW0ntYso61Tf0AKbTnCHrIt0MQeIxYLGyKaJIx1ZGAusCW0uTGdhVHtWj/sUmyGZmHOMTaMYRKB6Y8UlW04ceO7kSUpwPHKIxhqeoPq+cMOIMCwb758GTuloaSHZwhVGJ7JgsyRulPWAYsSX9LBgmprcXnXRqlE5UQym2ZtKFFahehFCfT2dmFjwmQgVBasZXgapQRm8Mv9+4uP0TBI6GF+SeFHnZA8k23g2ouJmkVsGiZlzdm0GaCc0oBW3+vJ5S+X6zvzP38AYr7OrAccrT5+3lTfssJI7boJI3caBp/eLw5CKBUrOZj4Am0ta/rVUaSSqGwUx2WlXsTFEbtHYQNr/7NCH/8O2f+8hLDkFAtzMuBdjAouJmIrr6CNGJczgHvf+4lFb//H7IKNwcLh/NdZpvlEoRuPsy2/a6vffw9aUjj7PGwunOfDReamuX0rdEmpsm+Uwd5G1i3ijmZqDhDlqIZ/G0gucF/XRl7g4JjWN5ImWZxIroTDzoAk9E/02SunzxE9/ZxtuvAVdLbL+pg54C9G0s2BJs7II24Lt7NModeMVat49jVSmFwn6XVZI6ONX//SrLGyz3fXIQ66MeP55RGjXbrDzUNZU240g+wxCWrqxvclVBYR9hWPah7GubQ0Nrm4vNo/U6ySfOMRmDBZDh4cr2lXBimVk4AxpSM20TrJZJWPsT5uEGjbQ20arBSRlYpIxLi4li+nDr++mdWSbU/V4809/teLSUjciMYjPzObvhV/q1YalUQI0B6zSTjyjxCoVHqEHmEhohCxJAECaP6XSafiLkn3UaGiNqInKSXFkFX1Oez3qHwTm89S5RzmUmuB78OlnrZi4bHKS3hoOkDLZ1Mx8EAuGq4JDLlCTHOB6w4DjWi9cojIC2ZbUOIS/m7iIvhUbqO9srVXsP2hnUCTZ9NVPkf3nWdWhY/BJSzACkFcwimvuvgWuZZOpiidpRrVniCqXW1rifilGu0xFZrCuFj1PJn64RDTNGl55y8LvWEfRAkK4l/InnqgfdCWGeVUJ4MCynCqPdsKJnZpl2jxMs44rdZa6caUb8yhicPXp0/BR8/lJ1ajYnhwAPdlZEuUo3zi6b6ElVjU4pRX1NkVhODQEYgL+wjShTCiGIhJ4TxI5EYEx1ooQcAQ6sSO4cIl0dNDsN9Dc4Prrh6pqLIcixYs//J5F8Owk0BCJxw7C0AREM0cJjxCWEEOeQ9JdwoElkfNwjaO0F/ldaam1O7/2oLUSSAcRv3WSoZ068i7x3xwbCMA8lsEAo/OWmZAB9tXPyYsCpG63vNKl1sGjSMqGb8gFd2LFBNAmRMEowopOcvK6ICs0A6sEEV8KlO1jgyaT9VY11lkGcEUXgb9obJKqkRSgDy5w+YYNhBZI6GCVV1y1ltgly66cvwATCC1LOAD9uI95FtLr9Tqiqx/x6hShgGLQrtY2mDA0/WPBu4ChallAYZ3ZBYxexAWWrF9PRyoT2yCiiN0zjTsWVliH+40gHJCrESUwkYx/BisYV1ToRLBaGpuIb6Eh8ucS3FWPEH4d/iKDALBEKVjqin2HXJtvGwlfBGFRbE6uTf3PC/bR5x5zyixT7YPmRYTMs7aYDU59XcAmls9XwDSvxbGy/Ad/rFdfUyNKK/EWM0GjWXe/k0qvZLPWnz9vLX950e75/bfQdIcfKqQAw5CYnOHmBCgcmOfAkcPbwVffsHse/ipdr7S5kMxoA6oFOojk8wT9QXd/5xvWVsPQDDBktYT7spEnid2H2tnsmSmupIseJaB8IMldNmEbWlyEb+qtevOJP9sdn/kMh4PDxbOUVHv1BSAlijmBaE49+4c/WMxckG24/zaL/+QDOGK4C8k5XANS3ydPWemq1dw04cIC0Blhm2YiSfYSzSFyBsIfnmt0AdDe937wvXJNaouG0R1GRePSgSOu5t7Lhk0rLMLiJThKnZQfmmquOJ3MQDDOQGIUmfhQNpdaX6NxPRq2JTxT/dH9lL0k05eO5ZCr7ybOG6LJ6gyB75Zbb6XaQ0UqO4uqEZatZ4DJdKidhQnG4HtomNPnqJsxhocpF6ua6yhxXloJWugA+mqyUilTjHNVUzpqqqmscOpJXvxw04JqAqkB+lNvDwMO0/jwScIATbuIBwYbpdKhwbW9HARRzqKzYLbj8gPwBEraGg6fBDaLNy/Uteg0yBLEm6KuBRDLnjpy2FhOMt5WkgSa6iKCgYiirHTbNrpgUZBrrDcPIOC15Q9aC4WIICosk+CjfunITUKE6WqGSwk2KYGKJDJ2H8qfbmcS12DIeMa9tu/ZF8yvSzEd5cXrtjkGVQbFgSgSEane+QL6i2HfePCkm64xCZylmesakKbNXnP8tIu/M8vYc/6sAABAAElEQVTwQHSPBoOTegmhPHiiBb67DwZ97tYNbvBaEn1ow8SeSYQZqt2r3199+dN8d+7qVU7p4/xhBjMsKeX5xdDKU8FhX20n9x9CgZvyLrBQIjHnwOVL9uQnH3JW9tYvf8ZWfegeOgbSOctBVvcWkBSeVrI6/vy8qm4zGAh/L3eupJt+qVj2g4aBSQVaAzxEjvH85L9/Va46L4aMnwRoRgupr7bJVl53jRO46sZ6aPrxHJmoh5OiYVrRWME+Ttok+GKIPyNsWDQ1ws1jUVTFEdRDKYBNHGB1PKiGMxXwH+kILMgh3rvBLWpYKA+Mz7xECS2voJDmtET0fbA+YJutlCCT6OgL4eTWXmF6MAlJBkmMRshIhhwTZAvoUaoprxN2eBMLEIe70SnXUAZ9hj+xW82pM9Zw7iLqeinOMkqgwp9YSbFcDckLwzeRRSxhcKzIFbgbMkgpA8uKHX75Zdt6711AWKAQael0QQJJcf/9VNUCsZ6S1C7estEGORh7f/IbW5JbYG8/9Sz97LSHAEGVIgAhRCKGkKjl8mX+nBg2n8NKMqk/0wGRRr5af0U905cKVmriOUlnav3OaxwAHojFksLICHXsSazQ/m/8xJaj5pGO6EI6OOWKO290iZlygVYO1X4Ssu5ziGH85ncIDl9LOZq4GDhoDgxygXAgiu/e89tf2xrIGb50NGigbDCVMC8Jqi/PVcShOWJAxbWT1NgjgRz7YbOl5hNecXg1FU/TjCEVuD6ryEQ4n/BRX3/4+1b5zmF74OffYxjZna7v3mGteIsBEJvKC2d5H63YKamOjypurwyNSuWq7Qs31Uuogvr91QAoRRLPlz7/+XIpi/VCtvACtCZTLz30h79yQdn0mqPLTlur+lpSWKTQMHqA+vtoV83gwTLXhxhCMicNFy66n1eFQvGURPfP7zvoMtXitWvctDYNvvLldOgwNMN4GeeBpGdnO5nF7g6kZbiYhkpkVX79lOXfsR2ryuRc4rU5NmV6To7bNKJy9be3WsXJk/QS9QMDDdOqkeUQCE36aK4k7gHDE7lhfFBDT/vspg9/2PVStV6+gmvKtaNvv81IwASoXv20zyJYQdIyBCtLDKUIoCKROBKgmk3AWJ+HhaNBVpJpCQHXPPerPxJOeG3lrTfjKsmOiaVUvPAQUmSsX86YxUnbdP99dgkpGR1kia/JwmtuaWcdDCjuX9MzxIKXRr7Y8kpQZBgEbqtztJFiQzZxf1h6MkN3L9CrH2pdEDMyqMDMw+za/+zfaOu9BTpbEqB7DAz2ekshnJCkjfDJFTu3m4eEJjMryw6985Yd+c5v7OxPH7chetZT+Mzjr73CIbtE+IBuAYezBwM0iW6ThRO74xXH/p47DHEwFTNrJnxWLkUEvJLaZaa7+5zcT1xOBtOkx+0X9/+LqwZd+/UvWsltN0HTy9I+g7mEkkhrKyEZ+wVoMZYyqdrOVUYOCqVLlvtXgqUChl46omKczajEDLKhgoXciecHj/yoXIxuiShopJ0PJ1FMbfUq5QO3aBCqOhJrKy66Xu1+wTtsVirQrktQteFQFmCE8twQ2V0bm2QSuEFxYiqnpfLIUe49xLpHiV99UfjFnY+x0fLKSpzm0BTZbi+bRWMTvbQTaL5O2ebNnHSmi0DCUFuqLKE23xQPLwBFtQKKBLr4ceLQiQVI0ViFOWK6VKCp43vesuVbN9kSrJsf/ULDYxBN+L4rXL+SgdUsYAMwj9pyQ7mvqEIY+bh8nwBILvRADUIj01ynMAgQL//8UVvzgXuxzKgOE1dOIGE4ROLSeKXaBpWJZuXYWixRzPpS2mLo9NyyBdyTEt6JChttInErKyYxG3Zzo0rXrqKKJOn0WlolplxcrIqJrCZn1nEb2ioryZa7eL4o9IEgaKyk2o/ViiIrdxjq3vXf+gpqLMmuZOqPdZLGvhJPEBqIFqRGgPO739xj1zz4BVt50022+fOftELI1L6xaBfseRUJRN5T10rXayskHwQ0IHmI6qfGNZW2ZUFDiOPjyMz7wHSXX7vDkXcWZqbZRMSKCDT0gJYcwkLXg4ZctWMnlcfVloHnGiB/0azWbnKIBfx2DCXweK5N1l3QWTuHIYEwQhWiQRJtrZtL0NiccvNa02EMiyiNQkYUxnnKH364XJCOHhZ23bWsylW+9ee/WEpKGm5G3YaBTgowDnnEWR6WdJY0cLaDZv0Q2h00s0hJTTJJRNZKoAjBMlgyjbCJoKyXwISywQvUzukI9ItDcnCUBIzgfgoLnYV7TwKqaQSo9edkiY0klRCVEE/v2Ud/D8JcxCcrd2zG4lFz5pZGWOABEoeEMOJmrllue44TN0YVRjFdypIlNhvgAxWuk3hojGEMKbZm5w7USYh1CRuUha7adBUVn4HFhjrimxHiwhm+X8NqpTwcwSHs2EunwdqVaDJV2iHE/iXaq3GCq+++3UnYeNKSXHw2TsdBSmYWmOmYvfzQf4AeAIjhUgfIQoOA6cISoqlbx7vvHWOSiYRiF0hCZV3diwXoqm9wZcKilcvxnsygonqlEeDyJKlYpd3f/CFVmyzL3LbJ9fjHsriNNZdcBUcjaXxoauOWbf8vfsch3GwBWC2XzgNKBWCpEsnCi1ZutYOEIZ70aLv929+goNJj5/74hB345aOI3D5Ny3cjVh8smfBrAcPRcIQqIsIWEpDTxL6jP3vU3vrJr5E1Grftn/qcrfjofZaydrkdfeJxiyzMxJPROQpZXRNXlChLY1UVIR1C1d+nYV1p84vKKZaV6JzKI1hSns0UrKsrDqaMwoL6YsyUTHq2FhWXS/x0joQnCBPvR0ypNywD/jny5BNWQObbw41I2tATEupaMGr4oATcYxgu6yQuo2jnVsumOiFOpyoe6jCUQnEvDzeSoFphgFTiNMdxoL2HKRs7SRBaSCq2IN1YzUUHI70IfQxoq5NqFPQbxsUcRtImycp27UByBaUQQv9ZMt4L76LR2c1ksnxQBSEHnFhNahazSMNQuzkcPrjayrcOwqhfYTNUrZJTMmglOGsZ/MyeZ5+zCDL6IbDCHq5h6caNsKvAIAsLgcZw+wLgSfJO/OkFBpe9YhfffNnW3fl+K7j1Wlt67TWMzwl28Jus3iwHdYoTL9fUThLoJzIFGzshNNJ653FV3O/EPI1ixUWQmT1Wc+68S95CiDt5k3NrAne6WppssLWbOLuEmA9RDA5OEJszAaaWBHEHKiCy+PijX0ovvj/5OTGpihKTrFka8Zo4l5KxHKqtpZrUZavuoG7OpwfQCqAE1o8ORpF/aJ5nBHq93fX979I3BnOduL7krttsFUp3BaxJOHHfCIe6j7i64eRxsuortoArnsQLyaoX87lXf+7T7j0BHDrxN1VMELcimH0TT3LJF1kviEcIRQqiI1dNUoztiycOIUGdGUBw7Z0DiMotg6JJqZNnJHbWEBZ1DM+rPEGoxCxGRJNffCa7+hbaODmTnHo1uOlLpXoRSvDcyQNtO11laxDKCgN4jcAF+mOqe6jhppDhtxIvjbPQK2+/zY1abmhBPYLBAp3gZQu4TI3R1gwjSVqrxh5ODBSEue8bG7JReu0zkd6OjCBof+pJ1EVKGJRVAbkhhDk8WAliyuj8HDJRxMMOHnPsnZiCTCRwuEbufBZNIant+fNArpw977o8NZNS05kl5tWFG04ilmsh3urHXcayaSJgh/txojUteJgHH4TJCaDnJoWfH+dhNULmrdh/jM0RYsu2b7PonAT7y8c+ax994SkqK8FATaMcCmrYQGeKn6Spnw6sMoon0Ib14drEzRzuoYMxOpQNdSMJTiD1Z54Hi8gpdcMhZAH4cTAfkj1cWzshB1VMy2IQmGL0Ogg7AYRF2nwDTCp+7qH/Y5986Qm0qRZcG3UWG6u+tprqHiEKNWxiLIcqvPqfP7TSG3egnseom9QMN5hCDX/ynqocHX3iKcfljWPje9EyUL+T+AMK6xbDDWJhXdffX5XEoGWUf/ViW/A5866BkFY0yDQcLf4NfOwk2B9/qNzuf/gr1kdnbjSjG4MA8r1sMs0tkBbBKEQZtdTUEfOLV5CWm8VzRDufe9EBDyO/UZlTcbD69CUNr5fns5//bLliQOGPctHCHcXxzOTU54NDhkb4u2keSSQBfZTK5kkS6kmKLh4+7AB2ueNEuhUFB6XyoSI7SB9eDWnSgXTDugiQqzmNubjPBjaOqyYVoFWP1N7Js8fs+g/eTznwDYsj+11z8w0WSBiwgFsX/BLMZlFMqBVN42YCSc66IYGkpgH8NzcTvzK1DHWMWjapYjY9aMmoaHGF51VziFZcvZkkIMgu7T3o2qlfo0y44266L0EaWkAADv7mKas6cIDwpMwKmIF5FXFnbF4mEt9xTkr8mS983WILc10BQIlWAC5Kan8ppUuw0Cg80x49g1xLSy2gP5BTCrX8jiuNFqS4no02yAPPzKFeTYg07Rb570Q3XJju8fSed2D0b3aVnnm8maAiyeUEQyN86Ue/tNv//XMgKqiEcFjnAdLPnmDjkB9IR6kHGGt2FveIoMYCbrWUzD0UK98IJ1VSOQolJjGe/ljZvb9/nGnVGxzUppZkzUX1J/nR7FX9j7PtnrOIwtqosuyarbmgWFC7BSvMJfOT6pNa/KG21maXi9DpxWS8MWZKgYQQ2szxvbLaolVOkUzNUVtPxROKnrhy21ZHKFf9KgEcW2wnjdfU/WmIsGbda+pdD1Cl58c//km5cDO1BlBzcBcyOkqrABff3dZJPBZDjMKYFhICCfWPA6IuXbUSgf1QW7l9O6OzS8h8W6wdYLyzpZl5keCGwDzq626kYUo+QMMRNHJPogxil8fFcMKp+lx49iUUPoLsYkWlixEz165wjWMqSUrooR33L90ftUv4g4nqJiT6L3EsqbFl5Oc71lMIf6+H4MELqO7rBWQPzaafiSRAyUldRRW6RIGIOYRaFYH9xrtvYLraKevae4I25wG7ufwrNOYx7we2Ui9NcXVs9pH+LjY6kuEgFT387LoP3A9Zl3YUXHVgKDEfrkiL2EG4UwesMztJ1+QKxkIC/AeSqU82dlksUJlamxPxHMRPWl9ngbTE7kUMep7rKUHWcIRnI9C/HxQhMjEagbIBO/FnpoSsW4vMIXEwBGR1HIhEE8XoHl+SRT8spxa3CqXj2qoKu+ELn3HPdyEAySJgtzakbQJhg+mQt1P7DoSvmlRU5qZMB3A94jSIAAL6tHhJHG4ffi1aUfBlCCFiGEnuW9euP5ckvJRaOinC9A8iNEFyJWuXjPE5/uZuRqOvxrggctZFuAS8J+pePJtQvV2C8YZaaK4k7BhmM0+S0HVdqqV7oMOR0Hv4TEkZaTzPHOFiEN7a8+E77ylXIO5PECs2jkjA4yQ9Ubh0dVpOjQ/bOurGLz/ya9vE6OcFfJFkAmFeWBUYZQzkjiCSCgk3pIjjSOY31t1nL/7hcbL4NMtbs5IqDtKGBPUnX91NTXjeaqqrnRx3J6oU6QTZG++809p7u1z/kIQZLp487RrQIgDOVW3QZ6slRVrqwyRHWTyMEMDfAK5DnaTTMG1mcBsaV9OAVS3ECs73MNYbd9lI1SuRBKW78hKDU3cziCvL+mi38ASE2BaGbF2Bghcbm4zaBtUiYtdJNpomIEtjPm1ZKWTGEJdrXHzqFcu9ej2ECtj1hAwavDCHfw5h8dPysI7Et6qEuZVkEUdH0Z3Kpc6MN/HFGsqVOwU3rklWSD79xN53QDOWOArb8PiIm1nUeB4QnqRtvLsVgd8O9DnvtUYqb+OQPvI55KIzhoVHWltzE07Bz975/Z8JpUbstoe+5OJO9bcvsPHlgmM5XJK0EZmmYvc7dFZuds+xq7aRoa8hxIQkrWy7YCyvOgMcxY9L01Z0hS7+MdKNLhMcztHOTv67D6ZSD6TscXi/6a4dSDmHLKW+z5/ScDpdpGqz0Qj2YPKOEdj44mMIjdn/2J9oke609BVLXQVPcjz1h09YAfmLBp2lZ2fxWUjnEKMHYkEFz3l+/LOflmtwgAQZVO4aAedU5Ud9O5fp347C2qnJPgZLtue/H7UlVBB6euiZxoXOMxgrviDbZjiZ0rZXhaOM+DEJvciUdABZgua3nv0bQe00k3GZqlFczMz2ZQxRQEwKKOvMwaO26xMfduwgyaOIciXsLJ7MP452AanKiVY2xQbv4QHFYcHUWitWklqT668gfgVhpPrMeRSBi1zLQQrEXcnCxOGSx4OBnnzD7Ogv/kgLS6rTm8xnvGDJ/Xdb+jpUnFmKAYZ8LcG9SvXZjwXPLVrCIC7F5HSp8vdheA2xyC+fR6yAjDYQqyWSSSKWJwIQXV0AwgiFJEg9TvQxqXoksoDvPP8S9LlC16clIQjnFbl2WZNTVGGWb8Ld4rkEaHspD87h/lWTFtHijZ//xtbRcDhNQhfKpkxKziSxbEcbCZI2G/DSq2Ccz79iV91zmy29CTY616p4U8iA7us9sp4SyEHgnYuHj7tSaDQtH2EA7poN78cGrKMokqhqlrs+zKRMJS+pr6h36AqTVVTGRCjT8S/EfY2muiiBMlV6HIbLe+aoTomsfHjPW07AzJWj6QRWcq3qYCSVrEEOix+bLprvcwUXLlTeVXM985eWOWxcImfdwJXiDisX8Hz4vvuQvgHfglQwAXVtAALGPEmEpKSjwuhZoYQ5S3Av6lQfrnyO053Ew1errsgGp3bvszRM/CgVKI1+6e9E7BaIRJtTZONUYrVoMM3UzCyqC8SVnGa1enTXtSCpwsz5VaVQK0TK8HOKu8XrryKpqKFWjqnH1LSRaWvkjRREfP11smFbY44Ii3jI9B0BSvvj0iaJeWe9lF5xgaSQAOWI2tY12SVaRkbnaRceQZPyC5+0DFymrLLYTaL6NR5GqKuzzQXy82OEFVj3ABZIM5oCIWBPc73hPIdQHnAcHiGA+FwLJ+hEHaSK3fTS7/USNKKChTiyOVjW03v3w31M5vATX82I5TWMQuBb4Ic7XNnUy3uUz0vUV60PSVz3pQOH3OEsIrPWLCWNGRcdspcEZK6524787nEmhUDTu+9eFjvdablju50F1DW89xInU3h1w+sHCEk8tnTHVlCPSddqUU3ymJ6b42SIpjgwErp9b3Pq/dyi82KiQZatXo1yCEohhH0KKVQx1AFYvGUFpUB6XUB4JLhR9OmHEV6o+tWG1wpmrQ4y0KwT5RW1s+xCzlFNmNJs1Usk5iwqbNJT6MZDSp4ohFCgl8qbKJyeH/zoR+VRpPoquUmUKoBTsTALn1Hmn1hwAXGrYbLuQDLIHADyPZT1iraudaY/BDcpEnEdZroYvSFpEdGMAsueHmis3gg4l3qApkkghqFphcL+0ZCoYUpoM7ilfIaG+WNxfEG3BZWILS7rOD2ieeNoC/EZhSQD3cRKOoXKlZSFC/hVm3QH2fFoTb1jxkiBOQL8ToKuYyQAHihcHkgIte8eszRiww2f+YTzDPPcn3REW7C+Z17fawzHtPUffL+bHRSvWZdsJPWLiy4Yi7WJIPNUC28gh6EVuEw4LUfkHxbnn5jvuO8Zrl9JhB/XCDJEFSzfzsI/8CN2FsG5CVreup077Nyx4+4wheIJtBsuQgJJ5dqlUvfy9x+xO7/0bxDFaZHggAz393BIwuzCY89Sy66wnQ9+iuFjK62BfvS4MMq6splskr+fEbfw+ocMnOYSnXyeOfWENm1AeHPdQwyqHbdSVAOniPOkjNffQtwLvPbeyxlGQhIWBpC+G4sbDq0QKh0x8qKFfu9Y8jOsiYjU/ZBO1G6skqW6ZEPDg5mMXIwCM8ondPAOET+r4BGbm8X9oLaHJ1TcoxkIav6Th1GYIfxXm3YML6h8xfPVL3+5XFCACKrcpWsbDcT8a+b4PMGupF0U4/kRs6gTModS1f/861esjElozYDLqgjNACxL7NVLjKIAN4Fse56Yo/38JUI4pkyQ0Qn4jSAOFXUrgM0vodNAML9hTtUoFyQigcQbVNEQkiDdc7GjwrlBXxY+kGKBVOIk03eZUGAMrDUpFmYU1kabOm/1KuKbbluIRNkNi9uw95hdIHnY9KG7SRhSAIUniIPpUOS7LrJhNDt9+c6tZKqoIRMDcXIgYA/b6BylVRCMYQoJKUsLGKy6SHRWu289oYSUkrVwelZaf/1676WFVcLpAzjfcbkalhBtEMTnEpOoAeg+Bv1u5/vvsWYSheJVAPI8o4ZLl+FPMoKcGr6EhM+9vZepfsEMba2yyt0Hrb6+2uphSvVfqrO8qzdQzixjMzEnk8UUi7+RxDQK66pDsbhBF6+IfaMrsUHKyv193UA4fo4grXKstKq6qxuslfUTWjOHJ1FXgCiTCjPc3tTG47kG8KGTWPEQWO//fM9//x5+Tt7j0rFj1nQeHu2a5ZYQEmU18A80D6sVt56dl0cBhWoc3lSYaV9rm+sMltfzsB+0/4b66CbNzXHdt4UrljsILD031zyfuP9D5Ro4MEL8MEj82UnwPzXKTaSlcKFYGy6gF/A3EBfc2Ua1BfeYm51nw5QKs7dCjWPzpuZm2wXq35kFEDoYYxMSEuJuvmz7Fmfu5WomGJDA8XKL5k8WOEq2rxEnHv5MG7fqAnVnWgvkTluwjONYGx9KlWFsKk3RqDp41LnXQA5Kdj6TJ6hBX3n7EBKG0yQpeTDXK+zkKy9bFot15MVXbISNfMt3qOpALJ5lo0wD8GqMYT3M7nXX30BLS5wbxnWB5CcFC6vWFOFxsmLadYLLNGIxHHKK/lxWDqI8gDJ958TlynS0AZy1YenmuUcN4JKSsSpyY3KlANYaLd4Pa0n80V0ffJ89991HkNxZ4dj+Clk8HACpgEzNIoRBsnrkd8/Ybf/5kGWR2YdByliyZhUaTbloJl0LoSaZsId6ObiiU1bGbUuWPQSrO49XmAb5GOtj+AIhlDadbPmh5561xFCSPvICeYTpEcBwyoizXF9fC+0pJbR6YJAklaNCh/BaZdIifi8QZonz2s5GjqGy5z5Tf47F1DghURY110iT/mYwQuHgU9IRGOBZt9NOnIwKdSwGRl4yEshLLSiqHKkhUB0JQbDDJJYmdtwYbH7Nx9JMAdXnFdZNgcf7MNZuQdbJMeHJhDWooPLoKSsAnunGKiqrFudwyapVZKnEXZwWWYlXv/NTZvNc7QLbILLeDDbnoTdet+2330GbRj1J0GKPjuRoRLRQ+VBxqV5jJFk94GEa1tVQW+u0fxLTcM1AOz4gvzoskrY5+/Z+RmgnAnGhKc+iiPUi5ZKL+9+lBNrNYtB6EB1iG7ehXPLCbkeRiyzKtO2fY5RhGAME2OzzZNyXoO/N8lCLr2HsCveqMeM9cECf+XK5Xf3Fj1ri+lVAX8REbEzViR27yzuPpWa6yNar3DXLZrINobi97JAJdWfOEkJoo2o6nwalRuJ1ZIVk8TWgVXBK9YlTuHs/VzKtrr5o+flLCE1qGenyrsXtXGUZ2UXQGDX6pwws+CUmRkdYJAorQf7hrq1Zpds+2EBhWEu1AevVTGITq4NH2DDFYa+5fAkICVSD92YmQXTBEwVxLUO4y4t7D5HQookEnOdhA0nzqX8ckg3kYrnjUcrGmnWlmUlKPH3xmoowNVUQEj4sfX+qfOfd2JgZWnkD0F+SRj87GQEJqoJgzAoHQ3h+MjbyLnM6oHA2pqgMJRcvoXGENhXMspRRxIaaZi3VqaBuhPdec4Rzeq8HS69Jg30dPa7X3md0bGRBRA2xR4SzzRNDtoIlarqv2mqD2BAdQDeCkLzkij6qbREbjMFO3/vv37dbf/l16uLUWME+VTW5dOYUsUamYzw5WIVVrzvLQATM+yT9KoFwMKcx8TM8HJXGQsl4NXpQ9fE5sMD25lboassgQHdYZnau24TRUL70qjx4xAZQyssBmpqhhNjDf0vSWzBZ90CXbX3gAwh1Zbse+BAeVjvtA3EQhOOz8sA4oYjx0gS0/b95zFm5tffc4cBuPJmDVfT3clzaoIotayouEsDnOCaSxowHxDJMgWnNwYgXBJK9hxKbwb1jQfkX1ke9/LNUk9S8Jw0iP6CWADxAKlWyK5W4v9xCFwIpweuoqbJzv33WYpYV2cYH7nc46ovf/TEk4m+60t84JVzJ8+il/qsJLN4QZBVZScW32kAReDk3xwrYR9yFcJITLp7pIWedxHoTBGc1DoYTSv3TC2t3+dRZ17y2QGgXiBuYYt1HJ+CEZmb/04/qNw3g2TkkwILyBolJxdWMoMOzFYZUooTRyCv00rPTLxFkBFeeh7Sy4xMfJL4kHgcxkJS6SrkKbVqI56UgqDFFOlwa66jYXla/qXFR30mQlufzH/2X8n5wKlmtAFyFIJVwHrwshOqi2vUKZmdw+55pTgK14Y6uVgsnzkhZVWwv/fSXAN93s5FoQIPRFMyXS5olIRcNSuqrinM0ElH91vGx8RAggu3Ic8858HiEzSJFEbkcxZQTbDS1rur7ZJGldKI2i3A2g2KjcE74CKOlLx44Stzj70qiqZA+soCMhtDyFEmhnllPAyxoIv0ugrQEv0QCky0AI7WcO2PPfPE/bDMw09I7bgFlAKNU2U4lFDakNpo2q15SU/Ylmah95x3uG8YVm6OrscFRzXogwkzj2qaxzn38dx96onWnzqGZ2sM4nT4LjCKZCGdo64plVlVVYZoCr4oSK0zDG7LiLE5MOJ0JE4O2dud2O/jXZ5mw/KpdzeBVPyyfesaDePbTxKW1Z8447mpAOOPCic00K1MjCyWnKKgvCMwxEvitmxKsF48i2Uv1SwViSFRilTTNJMsuSGma3TPHE1GSqWbERIol08SB6ulXp6zGv0gGSaGY2EW8hadOnkWGrcEUnWTyGWmMRsfKiTcbxGEYpU4vyEpaniqRT2A1xdP1AwXSv6V1pbXVMF8VBkLwLB42pJRnlGtEEkINiM2GFVdy6kO5Wt0GaqpUMuvDQATk1slcAer1ErgtcTDpBIVQLQoKW8TpNNVDAPUkIH4QC1AIYVavE08+52hThWjVC99rJ5ubAg6Zgu+5dPM2VOGqHLA+gcXtoYTlhym/CN90CT3oEbSBhEIgCAAbk1jrGKCuF4tUgHv30cHA1UyySfq62y2Cazz+p+csc+Nqy924loPCQFd+YooQovLQUYsj2x4bpq2gCMYPbqUWDDe/uMzqiF2r+XuN7StYs9IJKeQtXb745LVgOvIsgw/+zBcmzzSbsfb4CfPBUolQIZ7o6h3bHQN8nkXpB2huOnTKqTgvA3+UzLg6KDsoczr9pSk4k7PMEBUgTWjSV11nOds2AAVxLy1dTFk+Y2uIK0+9fcA23ne3wxOH65sB0t/CLYtoDZIiBCAs0JKw3jWIO+DfrOzqHQ62E7SlinnzlVrXrSrNJf2vBW8SBDA+NDduYQEIpZEbeBBUSIM5pbHpspCTZMaCFH3BVhcomLQD6xStXeE6XAN4zzQbaRTrF88m1GuaTSveqpoS+45XMDdgB/Q+BmQEEmpgNNk1eEys9WqGA/Pn/nhQpyXFHlKoNEPo0wcMKGVq2dYRdK9U/RrmOiZBWuQFNAPWn58fZ1+odUZduN3kPGl4bA/X5CcS7f9+8WhcklNPo5ksqicJkjHBsMqIaXD7xtm85y5csMjWJkdIXnbTLtv9i99a1JIsV01IQAFOCsJNWJQTb7xJdyS6PMQWvSQokRATBskoJ4A+VKlS3KseanWBNl66YmXrVmNpRGYdJdOP4KZnOSRM8rgySZvFfruOkqQw0HYGnSbDhpnnAVx4Yx9sqo0Wm5XDbSyg0HfeqoFw1Iv/6vd/Tm9QBvX11Q5ZoGRikcSiMpLsKfeSOptec4DK7RWXrY33+yOoW3I9k4s9JDBxKOc1E0/xwKUFr8ENuXz3lRMnUVg55dqTfXGRM4OTfMakk+mOCUeKMJyDjTmWzpK6KKc4byKXbL7uOjv0wotWzJgVPw7hJLHfmaoLth0YTGfFC8owhReKwJOdPbDfFrpAFjikPtt0d9qciy9tWnVPakDDKJ9P5kKSNm0Fqn4Rgu0+8LgVb1y3qNHP89ezVslTyYmyZn3XiBe5IOJHrY8+3R9cerS3gd9DXeRzg9gsGrJWQOfpYAMMeIo1OBz33veuw8NnqvNzngeqpFEv9hvZOqQefqsuTnmlURojCaqdEdC49wg8tHRJ0wqWu/cNwApTfhONwLA6a4PBXDlZ5nn44YfL3wOZtVbOogh/wqU4cgYuV4OsNBhKxfxQPljUunASI6nz+hBUL8FCnKaRq/6NQ5a7ZZWb9KaYM8qHjXq+ErdG2YpNK/lp6c9XMqjUo9GI3Hx4UJjTJo8kVmtva3CEYGFtEWS2siRHn3zGsaK2PIDgPy60DRemloluYKpqmuI23HqTteOixNJWSCLBqiA4n2ef322bP3IvPe15TOQABqmkt184aVqac1sqAvjoSfJ/7dajv32CqcExVnbjdSQglODOVtrwLGgG9Xl1DBSjm6QhryJ1q59G80M9vgGWUVYCV2AxO1XZNYjMW+oY8gBSKY4EUD9/7KRlZVF5AwHRhI4Vmzc7MYw+OiGrqVBtuf12t7Rqm5kgbtVCiXvQ19zuSN6jwAep9CP5k+Bpe2hD1l2ociVgtfxKdTqKMGagvwcgHclvPFkfbdJlGze4fnY18aky6E945ksSKuU4eY1wJHlqT591vE0pUmvMTgA0Oc1iVZk0HCOh+FAbtpuMX5m8uJyL23Bxo8oqS1VGOrNCfdzf8Y8J5RRYbnEU0rJznJR5pDYl3yyqplqcNTRCbR966fCMQDmUmJmsqC6R4isVrP/94g91MtS6K3ULbdz3Nq8v+u16aT3d6XELuxi36U9X334L4PagVb57kvhh0I0T8QMGCQBKqTvDjPjSZW5qhRcyRjCVkRSsaTjxziSxaxdY3iaY6dkeRt+AHCh28cHVPMecoWW7tlpibhaiYqcsf+UKbi7FXccJZADLrttMmgk9r2ypY39LFS9WTXaUzrZ9/iOuD6ibwH+EqlU8JzMlO0t3jWPCFmFx3EK2teFGKy2XODYE+EhtwB4y1yAaCHNyCtx3adzflZMnrXAt+kH8iaClONx302mycvcTxJZyXa1M5YgIpw4/7ADyNjDALADyEFyvEwWjhSSOz5X7k3usawVHpr7eTMXFH0Mg9wci7eAsdWXmEuo0V1bZxl0bIWYMYk3RIsUcaZZptmAjLJoPLl7XIzdO8IYLF5kbETSuVS+VLB02y88IcZAewRRxpzoZPPxeI9QTuCvNhwKUBD6aQ3z2Et9Nuw3PSeQQvTUtO8slsoHwVLEbbiPImKnCV005VLCkEhxZS71BY36E1SYvybXDB/bZTvIUxa5qW1YjoBoYlfg1HD/LQItB8gtUR7j2JLl53i+dAbGxsC18Fx+kCxvBvUi3M4BgtRMgN4hM28MG0AdzL25XC6xXPdUlFbgGmfVpXHYvMWYG7J344jxOKXgYcaOXAHm4utVe+9ZPrG3DCvQl4WPi0iILqcYA6HfXNaBPuzhuZRocLBCrPAJ1LIYq0qOf/bJ94tGfuxq3rjKaXnaAD3pWpu3K8VNWfMM2GPKM7uuOBUTGilDy06CFUwcO2rKN691ieOIiLHsu2ipO0TMF1inRXD1bj6J/AvBmiLkRVMNWb9pMjw7UNeLGEEbvRCfSLYDFUBLkExVka6/bZfuefIq6fwqVLJhWlIR1jwNgwe0nGCEZTzcoCVAPB00qKGoaDPYPcS0oIk2MgqeuzM/imylckSDJAl/Yu9823HSDs0jNl664+EsJjGyGuAChs+hdsS6yLA3HCamAm1JSiQ2J0Qew3gMgLsFwZtXJOUbM1kWSlMJ3zJDQ9MFCS94C2RmL7DNLNyxj1oU7688lwqtZSeq41SspO8tl6fo9rFbW2uOSHi8bSA2Q2m1KUGPo02qmEqWK0yweVgdVe8cZMw79PH/GcXD7SI2Q4eQIU1xfHLCfPFc7MfIc5rCztc2FkIK2MjKzbID4ds2qDQ7HFWm56jw988FgoIRDc600an7g3nvLZ8DzhumFET1K7cPTxApDsGvS8/NJYIhD2aCqNOnfwqgkzCWgVmoTavTXMKwYoBeVp5R1S4VYixlKNqk5mqvff5s1HNpvo4xuDk9AAhHXmJqbB1OI5n9M/DzBcCgWrpmEYLDqClS6Gtv80Q+CgfIQsfWj3OgY3yHlZAXzI8SxeUA3icBHV06ddDrykt8WVCa+psqqPcz3kfbPIOwqL4uk61B/lbMIPNBpMvcosvh6rGcWVZ1p4l3poysmltpfOHFQS0M9kM8UDXaUPbF8Q13tsJ5qCSNSicdQlcaiDU8OsXhZDvpR/1MIoYubdoL3ENNJAxdCWJlwCBZ6qf6//y/P27obdjmX69qnsR5qfxbFcAjr19/TA56KnDoLFYeVlGVVT9QQG1OKcGFU21Kzs6wWPLS/uoYEax9VMjxEUSEseEqOrU24Zih2LcB5I0y64xmrchbmWGcaoUh877aXvAEHjeTUn0Mr7FYHWJNVBPir1UeqMQNNbUhEtlj9O4fcgRrAI3VAkeuHmC2IbwpvJzMuj6QyuVp99Et7RIhDDCHTCDr8WcWMpAHFcB3AHL7FJIqWHp77HN0UEwOj6GIVUdaGnAQyocNAJwJTdcEtRf4NIIZqbW5ytK+sAgaeEnSHcDPvvRSyiaWiqbUhxBzC3tSfVEl9OHkQxj0fGhcHxAHswMgC3qYzBuRIXLPzK1+y0397k67AJvMN8bMWwPZB9DnT1qxFAnoXjHvGc/MQ1F++/V7KgVDMFr0FZVRiOXUDiuAhS6+ZmbNsOryblWzaiLjqAVu+YwuBDM1W3LgYPBEE/8MsdD39RKtvvp7gnEfP+11zFtckt6fqSc6SQueuAvFbqliJtaMWlRA8hxI2MZckBzPGxoqNy6d/fhb8tYbpe/VAM8OWFMV9R4ah2DFoaRn07GcAPmMpBE5rwNkghYhxNkDbK69DcQt1ffcrd3KtXI8WVBKNMhBqlltKmCFtT8lnSzM1EuMg9y1cVpUqVdx8Af0lwtXGOok03TV8mVE52Tg0j6O09QLnrLvmGtqJiTkxFrJiWlfB1+EcvDbWWd0AWhn90qS5bPDoM5SM88gtlLmPw2GVpmkKn6sR3+EZhGNLI6zNbxx65FJn5XnrP15TFAx08JVnuEXjbwbhs874L/42mI3fgOFRpUrGIhDrGc49BHAw/fGWMSAweo3V8TkYGoUlujZ5Z79QPlSZsXCoSQgcmnKsl0p2/bgNlacUt733UuuoLGUQgLsqDmqWW33tdlfrbcRlmhdihUHlAjPthfkuLFT69cUbr7Itn/6IHf7Gd2wiOtBWPPAxrDOx3dHD9txXvmYNxJifevJx11ai71M9wweOoGKLKLigM8Bcs1gVzRVdunq1A9E1RIHdj7z0DlQ0XrVtd9wsL0MvDhr3EFR88QRJRdkOSF7c7NzF31eGPeSqU5rIPMBCajCtDkASh06FCXEcNYzADw8hnftoDp6uSwcvKisdXfYeEIQ9dglI6n1LihHbzWZT8vd8vndwxKr2HuBnZ61wwxqsV7yNggSkrl3B+sl2eezc8eOWlgankkPtm0RHKdZCliwhFQVnLMoAsTj0KXfBqkyJDifSSivuXxlvDtZSYUoMm+7dZxh4wPs0fFZeLhhrS5cZBwz+AsTkvl7GxXBfwpfDkJ6ZJwbs4HBKFVmDIoQfp2ZnOy+ZwJAwD4ykmPRkPgu5dJIuWXkJyxYVlkDbO2FL6VNbwBvpmSrOFH+1A8gqMzeHb+Ua+Plo8Fz9cj/C36dnZDjYKFmyP3/fxXq/DId6ksR8C4ba6GJp1ljLpOtlsC2Qwig6ZmNMBcZ0RxdmOgaSBgKMY7rj00X5108vvsR8qq+mCgAtrAV3J+hAm3kel5ZdpDJenXXBaNcU4vySJZjqBCwx2qGKW3l14HLu+fbX6OduJNOstFJahIvYvDWweYZGB6zplSu0LezASicz9eyynTl0xIqLeDAIluUuh7CL2xwCGJ/C+vqQ6KhvXf1PqViXKuZPJq1CiIE/83DyVSrNyslyFui9ZE/3ovMmVybljEE4An4BoYwgZ1gsRBF1mzp3yKJp8IKrw/NAHf5IuDEFeN4NC3yKzXfPL37Ih3jt7cf+x679108BmxAfc72B4JkrbrmO4gf6TYJLeH9be6Vpu6k92kN4kcrzUzuFNrGuTUPPpBYoK+/gJFzlEKGUeKljnR0WgIeREcki7JqGe6nWCL00bGztDdfAI0X4orXFsrJzta58B+vK92s2QAexozoopX0wTYhW31Br+VTrkokrNZPoPV/Xev4ywgopJGLEnBzKZjBtKRVyQe7Aqq2njplGCgt00rXB9PyVCItR1UpOkZ63aOB0be7l3qtkKsvaW1Fw4fOVdr23pZRmK3QLBQ2SUuIgAL00BfQa5aD7ifoWSswhvuFUxrSj7ysz1FXpQ8aIqzQIVtZSBRdldhGBYVYHBpi+stRxGtsqKiyttIy/IdZLSTfJ5qSS5fYTnyTg8vxx8R4wLcEV01jUeayi6F+TJ/vsAmKuJetWw8xBhbcEAYLUTKtBDXjJpnXoaybb0mWrgVp4ECxg5YuvolsfzyS0beatbnKfM09DuHOBxGm58C97x1CEi+chT9NpiGR2lNyHe6C65cWX7kv3IT3K4YZOcDd6w3ko0dGLD4a/cp+phZPF87Bg0yMTdnb3qxBIvLbtQ/czkhoFDv5W7K2y7Vtt36OPWSBJ4Nrt25j3REzF34XhxkQgCcO1D/t5YXSxsbBqek4KkVST1kGamBhGCgh3TwVunjhME+U8xH8SMUgm+RsirFIpWZ0F2hhN1SQcJGga9S2cNRQjoEPXcrkKufSrHRdVvVaSCa/DtU6DaTeMnLcVu7ZaOKFSF+GBZH5wR6SdAnO03sb4xxxXFYtDx0nxUwj1e2m8qpwq6Euv+Lw0N3rRj2emQ04m58KHlFxodBRiNLtgnpDCh3+rAiXcWASUkMQkmyRRUkIuLvEocOMQcvA+HEQPCZb2H6QQoLk+FodDSYFAJBS/tLLCRaoVFZ1YLko9P4E8UD0IERI6CcIXWMgxkgURE+bB5NQvLy1PlSUnKfmdffktqwAuKKTsmFdMiy2nIYg4VMO6pHLnZblESBHZIEkujQfXh0vIW4OAlB9hQh+6lROUSi9couaPQjE12CROezSZ9UgED7ephsGzQChYq9W7tkAXoyPwdI1zZ14SIoexAvxPEA8PjaOShww5e4z6e5TTSn/vtOp56r8X41AfXGEUuGwPuG4BPFget1aZtZKbllVzeunEdmf37HetCmtvpaEPt+WcNLvXg5sb7uux2poal1Dmcv8S59WiK8YVsVktEfrWEJ5pH+HQJPe7wLPU4AjFbmkQORTnheIZgkrCaMVFiYOcQIvaToKnlyYhq7/fA+NfTB+ROhJoVFzAcunw/cMiMWyihfXqp5t2bmSccC0Di5ZtQaX0jWGFNY5SxQ9ZQo29ke6+5G70UHQYhZPO85mL7AJCeiy2nqkYXXopFEygPCr8uWzzRnfQ9Lw6SJZT0yD7gMREEj+7F59Zde4887GWuU2pcvowdMxOIRSEDUEc4kTCwXASIrG9Gq/UUHImv6GvPgKvE4c2VHMdfAbFLNqUC1FcKDu5gy7BKDIwVRICiEGaGxH9Z4PGkI2qJWTRusJFJA7rbG11glPb/+UBypEsNBmYrJmqE9Wnz7kwQKVTsbWVgPhy2qSq0VF9BUgGTI8AXn1AOaWl5kmeo8mr3qawBsWrVtipt96xVehDSjKbYrYlEEwPtqLL3gRGShw1MclitAEFdaPsRvylRZJeVGwa88+Jk4dIFmZYUGmt8wn//OKhai+qr6alogpiM0eIWaWOfIx19yMOGAVo9pIweGtbHQH6alAFL/fip8fE+4dHh6iSVCFWO2+brr+BDQVFj00RCmYqyzeBRVTT3jh0wADQCvXFj+Km1WYbSFnZl42rzgEhDWLhO2zUg/YqYYeyXJUM1QqiX/4c+PFuFp94UwdPecEgMXNYCIkgblzFD03AG2Hj53BQc8CFtenaaut49oFuhGQorroLCqKE0TwcIpU+F0iQVBSR7paXdRnjWoWNVpIPxLPeotCJdF7CBtX38pGuc3aYWFk9RlKadi3gHDatux9MpXm8lofrHWNPaUzjFKHjDBZRc6+WQ7/s1WbOzaUKyfoh7xjOM/bjvv05aOnsH70IGNmKMoTIaf7bxz9VLrhClQ8F4tqYaQS7mnasnnYF7IJn9FDUjCUgVlmW+m5U0NefB+LKhnhQ8yxMW3ur623WaRUeKHhEtfYQYI95iK+tZ89ZFHGRxLpCE2AEUSarPnEaKIROT2rP0vIREuDLzSbnZ7nYSSWvVqhjwWFk1O3EZVjxpCUF0PCynPSjsttZdkhHdb27uZgYHi4Pf2EKDVPaf3NJTv73S5tTv7wkXiG4mOP797s+qRnYVI0QjduIo8P8Q8EKk62itdLKNm0kTAFEJxWexwtU73kHbmyHLdu5leQkg4Vjx+Iu67EY6s2X9RVQrcqTRHb1LKKBhibAQ9WKPcfzVIbqujTxQoLw5EJlcb1Iy6giFsD16QD3AeVoMYfOXIJi2OcmuI3WtiD0ykRAFl6lak3RiKCCNklimFWCNj2fpeAkmLVrxKLKE8qDqadfFSXF3noCNVcQkwURGWXzKBHSOCGJayQSlokuqbWbJYFRPKsBaO5j9dF42jGeXRQeyv3hlDowqQSxcTWRbwycWGGM6uwZJKGqSGkScxLhSiVrLaWSaUKzHDakepMUCkmvKoSE3bHreTaumsbG9ZNe0KJmuKYwLLLY1fwUwptkKcJYfCmORRGE69r0D7kvnZgwgHVxBUOwsAK8QzkxEs9XDVr9QR2tbZbJ4ijoV3IyDlw0SDFAljiE0qbgIFm+OEDoWBIGbRoxYyThLSUKsVv8sSDjg/SwkMTMBnBSWTwvgropuC7N71H3n1p6o0MSsQyBbgZ8T0MdZdkgpMkLaTTrYX/DQ+TzZBl1wnTIFD+hkGiTfNZmRjweeOYF27Bzl5OLbMSqTlOb72lrsvZXGX1TvJo41OzIX5+2abSbVvLzMCbcJtPz0MdqoRLYjPH5efqjf7xkeYi6XJl4iJJsVDMKyVRQhlmkETTc+ytrgY1I/Hguwlo9PFfR0lQ4CKRUM02vl2TYw8pyHTeiMHYZFhhZyuYWcOAskiWgN96jWvsMcbJeKuGqkCDxsng2Zw/zOX2xjOJi9rMGoaF0TGCNy7CSsl7CmgUpdgL4J3Eo/cnilax5oTRGYajaIbzkr4VT4V6+tHsX2Pm39lMGZlI1VTMNPhul0iXizxzrlVtUzD0TV7Jmw3iwCAyVuhx6YC1Jy0kTntMyyPhJcpUS6nlFcb/tfH9GRhZW3D3OxRZ0qe9q/OAkcUswLjGGzSZ3rf4TOkVYWGISOI4S8ppmQWfEd4T1opaOCJg36uxLAOB3ogK6Aa0IfybTr7Kdfq9NqM03XE97RQYTMeqqrRQMTCfHh+RG8QjmwFnq2P/b3rn8RllGcfjrdKatU3qbQlt6G1qaYmkbWiQEEwEJYiIs3OnCuHNpYlwQt+7c+V+4051KEEzQmKAi18bSVLB0pnfaUjqXdqAtPs87NfFPcMELJA3fzPSb9zvnvOfyO7+D9ZQ1bgN67CnePDc5FRDnXVjMApC5tmOj+LVLVD/uhvRRBwKhA7UNqkgk/1P8mQSbbqdn+/HhqAJr8YzNi3mU8sfYUwUy6JMcwNq6E5oH33idmUxXou5TRxF2es/NFXIUd/cdjC598WVU2dkC0ONClDxLlQg3xFnudryaXzQN5Bfc4fdnx8fD0flMYeHI3LDqhFLJYz+bIQfJfi9DbNAPSDrNXuTJdjTgC86Awe0c4LuwbNO1GzIs3KgUPyep8a8RdEqqYVjT0AwJBC5EjWAahEmlr8aPNvmNBKNQHN3cl8nuVRShFxCJz4DbDasMo0QBsKDLmSxWnMG5pMMW/qKCCDPJM1KDMfx+p+8140KJSZX/aQ3jZRJIkmGvtxFcxtqpfpG2kuZybvLvkKsG1xwEdvzGH1GBIoy5WNtOVlYew4rCdz0yGNJROBkBG+CzS2xy6nGSbylz3HuOBs64szNtfFtHs+pjaBM3IUbTipCU2dgdAh7KbXfuRYeYtAEkPUpVcgSzKT5o54nrSBuFaZatIqoRlsyCA45AKKVa3RmqIK0I2L4jh+ktgud8D1ajlmEDCOskCfWdHBGs/so2/hFK3D48BNvHaKDpDpEqR9wW97tEBacNX+v699/RXz+LZagm8UvkzHs7aQ1Ocu2gcEDuQTLd25d+jE58+F4gWq1Rebgj68jeZytB25+/3YwOUXveO9yH1nKnCGaO/ibhb9td8APcnYg++PQTXk2pMvso+LRx0mv4EyEpr/X0SLNloQhuNjXQiwFCvQkqniw8jvaZvGclxkA54aZUpcHM8uZ6Kjv5DQSUa41U4sZ+/T10MpaWSLXsCqhtFroDSWrgK5vkRrl/GZTNGeoj6078u1oRcE8/KzHlhUJyuZWj1QJMZ1cnEsrGsgxEJcBoYa+MQyoQ0GVKvQrs/mQD2ZJUgA3OEYPUxoBDYhT6SfOJzTX1tg2ksISFNSdu+XkOId/fcyCcYEbyBn7P+SzpbBYI0NI9PfTJgyZL40bg/oyB9B96+zS8UTwHxM75AwJ9Kjg9ZyDsuP/zdbi1RhjigBYazks6JT9THE20apEgfdLFh4pecd3+6Rp1eYIdfvZ4LC+OERKsqxxd9WgftRi2Eud+9+oOfpk7FJK3PEAJSbtJH5U4Lzt6q5h9RD6RnJ7W1oRwijq+/dCum199jd9EBYSfpd42CW2u1XLgfrCCeaJQ/WB7dmrwnVxaoxiWtArrr7VAHwMB2RKOuflKp9KVlzY9GPfgVxvcTU89DKfGyq2J6MCbx6Mbl69GB9I90Ynz56MEqaW7V68wLvAcZUs+A5ehBuufA7ewh+DDezR4lP9eFmhTSeWdwIVAaVxSKErzMgb/Uyffp5hdjxaZRfQUjGhCo4cF6aF650jyHEHmImkke+6LWNuV6gVq00WCVoVeoUNk0TKpGf+7hMNN3roT3DHUJ1goqW+kuBGQvsmztgxsr48DL/qGBsLbq6AFekAUPTQyQk/RIhE/So8hkKi3g72uYp9TWNEccUYjBsk572J3lwlYhR7WAC10NKMzUh0CkZ3JkOLCbyWPrPs4n8kw5xUlZd+ys1mwHgnIeOnixb/dQSYEdG89LQIqugdV0a3oKBmC8x9/FJQpPo25HTw6Qt8QLyQQiNdZ3qMMZe0ds2yEaaRXhwazO+HBG3EGqBpfLwAS+N/nCLl+TAHH3plL8hetklCvLNExyNFsBSbPnM9HpE5SQNjsXGzheOjo6fVTdv9ildlZMjsgy8vpClya0P688GCKQI77gDRMEt0mrncfht6a6tWro6+R8sHy8dRmprNRfyNNbSyHKKhNzT0kh8klVu9qDkYI6162olr9JO0g9YsMn+puJ9d6OdqAj+rUhXeiVQWe+xm98Fb0DRUwQcOOgJGGUUTRPMdaOZFd/mCtWak2TukSiUMhnJtZfDjDeJt8VKIpp74CDlQEuOXMydCXZcBUTaZEi22/uRb3OYJndWkdl6oA0qhvVLAvTCNkJTLjE7SvpMN3U8P8rSqa/1wOOHPCMWd7qPRYQDGPGaOQ0dLSRlPh5eg4+F1zuPrlvt/fWUMA68ToJWr3YSwmz1C68Vc4QRRwgzFHe8/DlbQIVsGK0R5ghhOAQkTE+0k2Tubxl0VddQ7TDYssvcBY+Gi7+w+G5x+sPS3prYNp/NIGGAfvRIdwda5/+0MAeJ98/13aY8hygP7Ko0zLZCYqL3528XM3aWV6NhwP0g9HrwAAAaFJREFUsojYtbcGItsofMdqjRuX3wSsADgCq+HIO2FbugL2lzwhQWs09gKNc+JYM/k3E9FiCRuxGo3U7lNN0M8A8jh27gy+CTPbCcislNRxo5bNdNQVQJ6xz4Py6OMQcIV6BUpiRGyAFdskBY4wihu0p0Xf1d7ybY6JOOmnBSi69/bBI7pWDIxqmfH7gbK8Ced/S+vDH5VKglV9R4MHH3GBGUgFBK8RAaxFsOc40mxx3gD4Ugr+LQwjWIEtkO6b7JUPz7mUalQh5wjA9ZDb3OLYTHK8GczJgV/H6wxE9hHNNmB9xIOmBw8DyEbhcZHk5lfhQ3sNR2dMp5aHaorPXHIAF6N4ATxOIttatYgyLSSvLK8gacgle8iRFIgZnKIh9lOLaopP49KB+yMoxVq8Uk03BZwDkFZgXZ2oJ89r7/AAmQbGpePLeq2BnibRZPq0EtIWyfLIrG05s0ArdDV+p1OV6wDJFCiVK7BiPbX0noyBscRd5/2yV3tNyiJ9ZicMPrr2C0f9qWjo7Gk+Ex8X12Mxi8XFTWmiy/flerkD/+sd+AduDTPEFMbb3wAAAABJRU5ErkJggg==;" vertex="1" parent="1">
          <mxGeometry x="90" y="280.00000000000006" width="78" height="48.29" as="geometry" />
        </mxCell>
        <mxCell id="cwWkL18HJ2zfGbkU8Gne-15" value="" style="shape=image;verticalLabelPosition=bottom;labelBackgroundColor=default;verticalAlign=top;aspect=fixed;imageAspect=0;image=data:image/png,iVBORw0KGgoAAAANSUhEUgAAAKwAAABcCAYAAADzo17BAAAAAXNSR0IArs4c6QAAAHhlWElmTU0AKgAAAAgABAEaAAUAAAABAAAAPgEbAAUAAAABAAAARgEoAAMAAAABAAIAAIdpAAQAAAABAAAATgAAAAAAAACQAAAAAQAAAJAAAAABAAOgAQADAAAAAQABAACgAgAEAAAAAQAAAKygAwAEAAAAAQAAAFwAAAAAbb10JQAAAAlwSFlzAAAWJQAAFiUBSVIk8AAANDtJREFUeAHtnWlzJLmRppE3mSSLdR9qSS2N2ch29sNq5///hZ2vu7OHJJO6u7ruKt7Me5/HEUhmkUkyk5W8ygQyjowAHNcLh8PhQNSePv1hkr5XVyNrzVpqdGup9XCSGpv8rqc02KmlyV5Kk4NJGg0maTItgRol4XFVJ6FJGnNIp25kM46Y4m1EQTT1Gu8jOvyP8Tj+1vhnIovbSaqR/1obum1SNSL+I14Ms79anTQ266nWqBE178ccvhvhfxIJyx7v0Ll5h9Ky+qRQ5g0qrEmFNTpUXGOUxmMqDXCMR0QXQL25iskxcZ6NN+5NyzWkA5IByoYNB1CS8YmZD0ejJe4Asdc65WJaVt5oquhWdPl+AQt3rTVgsGtw1w14XZcKgaOkYyptQL3ISQAJvlZUlLNkpDmPLo2mPBccHvl0jn/ff4MjCXLYeisDFtZJgxWwVfqIPxquzwBsJCUA+w1xXnPQr/usa47sxshX9SFg6+scGxztXCGTHlnucwzrcBdSFKBZJGV6lEZ1PROQBsEfzSHgsHjBVoldJAlL+yGtJKRGt1+v0VSCi/PALMw6nwvUyeKpng1+k/ffIYctlQRwEAXqmwIWDtIETshv4x5cFQ5L/wiDzeCLiqRCdfl8uk6zPwE59eBN/CwhIvhXNE6eXHZ3lsZlIS5/T+LgmjVk1/r6KE2ODcEz/mcy4Y/srkMkKbRXeP2uAKt8pixWh7PW2tQXg6zGA7jLBvJbf5zGDLBGPQ7wO67z2wqFs9THDDwYAAmbwmOs13J4J7hjYMLgRFHCcDXCyZVyN1/OK6ydq5KyF7CLp5HWN0apvj1hnEUZOOAyk2bsnrrvCrC5DgAXOKoxyGoA1Poa9/wew1VHfcA6zECdwHlqctgRLxkV1wVuBb1Sl0BTqGagNpEfGlUYwUq4GnJwXfBW3GkCUPJfphB8U3AEQK6Di5aUzrkqw1O7jW5KrQf2LCSChpzdDaelRLuC63cGWCuCQy7bgcEIWAYdk6HchaNHxYG7EAXAaZ0jsMRJ7Aq8WiUaWLZIuUoOQXICR64FYPPviAn/U8AC1gA4/gWt52gCglmm7KObdOavRRl066m1VU/DXdIv19V5mclnPLsnp+8MsFQSFdFAHGgx0GpuCl7woux62Ag5rjYAlHBIQeWYyx7eQ2DKIXNt5trL1asHfo8baBYEtP5Fuod0fC1Yq4P3Ewiqg21wKGpIN6vT8F1aQBDN8az6bINULGqgGWlRBq2NZjpuhOAeqV11fDdJ77sCrGCSozYFK9xV/esYgI4P5bBAtI8HQReAy3CUsxbgZc54qvgDkYQRoCrUw3nN9yHb8msalseZU2efvgmvOaIqXKFT/Kz+GuIAZdDaaqTWegPuOrx5Lr/6bKXvB7ACAkzVUGO1HtENOthCYT7e5diDwx0zUkZ+lcMFV7WrDue13FePZi/Rddr1E3YaRg85nEDNYCVyXJwVmnFy3SxrFEBfEleE+vZT9AKKA5sNGm6DHgfA+tDGd8/ddwVYNQNNgLr+rJHaDwEqHHWAGmu0T131qSknC8DdWeAtUosF1F5LzRewFshXfipgZ18CxbsSfpG4vtEPUdnTtLqA1Rk+G7NpmIoj30j/FoNnVnCLCVhZ1FbSOpW0XU9rT5qpTVfoxMFoME4jZrec2YpZyYwiohVAy4Bo1n8Jl3lrJlkIF3/V1ccCuBwry/AcQiUJ1Ko66OCuLcQhepbJkLTaWHUl+fnXvTrffw5rJVEBNbr/1no9dZTZGGSkJiBF4TpEnzVg6nGs/EmFlbpyoJTvPZenga7gn7nufc5d4ZAhh1q/6g98k32Vi29iVBY3t3HKqQr9q433gY22ngZ7Ixot6UV+/yqtt5HEb4zz/gNWEMFJ63CU1mY9tZVd6Q6H6FwHh1RUn/lzABdKJmRLLaQUMekoA6aqnmadPuMPsjG6t44DqFmGjQmDCJBBHu+85cjeaAoVjmfp3uR9vTOJQWcbGwqNX4YMOEcoCW47Xasog3sP2FDhkAtNCNsPVZLD/ZDVBvvj1NsZpeEx6JGzMuiQ28QflRi/BW0Mqk6KUqyFgkquLEbRXY4bPFUPK4caqqwS5Fktllq8Y0YpZsrQk9VoKKq/bg0cJLGxlhtum0GXItHwKIsEJPneu3sP2GBujIgbWwD2CeLANhwFjUBvdwhgkV8BkOKj8uysdiADSsB+XYf+LO+CZSJaKF44y6Vysw6hxkRi0MVcMaHrrK8xBUxJTg7raYStbSh48R4s/Gvy1/rLdJsfrdM6D5Xjm+noEyIRjTdmulQ8V/3KtSbkGonfb8CKLribU7AdNANrz6ykeurtDVN/D7BipK2mIDgLlRldPLUqcHUMRwKckpH5lKv+4jCofh1dx0sf6JmrYgVmew1H4tgs1BtwM/S7owNeq5G4DXZmGkmXopGAbXTQlCAKKMMGYJkwiYx4uafuHgMW5NBd1+Bu6l27PzTS+vMWOkfUWL3jNGQ1QTpGhsPKXo7nvL8caDQdKucakyPN1h9eAmtx9VZVmHO4egKoGkEjaPAb0YO5z3q7nZpMA4epIn7EMiyYGymAdq9xz89rdcRjS6RGHWx1HsjykWCQ4wc03jGNaELiZvN6rcm5JuL3FLAZBM6NO/3aeVZPGy9bwV1HyKwOMsaH1B8GKnWXhcghPfg/XWNTPAUgz753CrY2O8MlUOn/G+1NOPs23GwdkYBGcgQimkMMxWkdiA+TITNLw14cyCVgSeTPScC3VqzpdrTHYXlo/6tqTy47GtC0DpBhabwTp6SN/p67+wtYK4jUtx/VUvdFK3WfZe7a+zxMQ2S2CYYuWmDJUIP7WVHnsZfyvFxnKjXzpOqF7LjRgqtvpubWK2TmP6bG9jYIwU5hcghjJdLWAJDSBQ96zK7tMSX8ievnlHrMXmh5MyeOmeiucAsKAapcvQanb2xRJgC2gVqrj2g02CctqrSMWsCuPP4rJPkbglDlCmmzzhzd8VwBnImWU+sTxIC1tPmbTlp/0g7Z9fgzqqx9um4qSVPCidwx+unV5KnWbGNn+yI1nvyX1Hrx37h/woCuCacHoMNBGo1ABsCcDI7hul9S/+P/S4MP/yfeBdufLeqV3QNWtBXK0p0nyK8CFtVeH7A64ErF7mVl8d0eIYYsxZ3c+eR09Z40ztNvSvgbvMpdNR98ULgrcmS7ng7o/o4+DNIQ24FRZUqYZUjSPE321/n8OtVTT18/9peyQ70JV0cE2HyZGg9/xDj8R7rgxzyH6yLsuuq0CSujA4bLCli46+AQ0743jN7fBImTdJyN4kpPzA6HcSqadB7TeBgI2rOo1lN+zRMGs2VwpZjuRKAZwJb0nFRoqb6qTMJDflbelDA3dDUhqkDp/poYJstNusiuaw8ZobOioIcKp/dOkUAOh7/IymxF8cB+MY4qzXYwxV88mpc3PXAIWGVXOezm87ivOeJSNkmCloakP64OyGw1NW0d7RGCtud59OPl1U6SdPRPPhpoLToPHAgiv/YoD3qbwQEiAfJ71h2vOO6rpfibQtFxmIlcnLOUStZ8k4/sx5Z8MtYsvmZDzlbJ/Pdf+17mV06D6+idIOi+aiMOrKf2ZivtvzlOh+8GcFgAi/2rooAiZ6SGYNqoJvSmihIT5T0H/gLJwZhiAxMCoe4yihzN1wnDb035teNg62lw1lrD5QyAVWK6KrtxYaClHDvpI7sOtL4pg67sddVnhoaphRprDXWWyRkcMvhU/4popJH59+IqwJ6fndm6O7n3zkI4eTJLIRfPdRRSBlqDkfDa01ba+u1aWn/cpoJq6RjuqjjQx7J+MlDBD09BHRVTsYKNgcm4NeSA46jwjxGI4iZNEG5satUGxHIXsxVZI4w3kRXetdcYzDzkeIyO8wE05awRsgrgvQ1a+bmfRoefOT4xAFQhLGAXd7mxQW1+EX9NiAiLdVYblZYJGBxW2gGUF1VWvw5zT39Z4jiL2OOsy7xjXqmVMFGlc6BrmBwu33mm0qu/EpMcu1RyflbonvgodMKfJoSPGmnjVSs9+KET5nOOhg/f9VP/C1x0UE9NlPgNuuQGgGq3m6nF0WiyYgCwDhsAKfXTEI43QvU06HElWJ33DWaxNNQ2jaZrXIMjo8CFT9GlQm99A1HkSYC21kImCTZtOnM+46o44N/wkO74HYD9CJdFx6ZQWVBYsnbOtU4DjOU7kI2VCoX8HP++CjUxU9MNJk3a6F8NM9inpwG0Y2b68DEn5P18VAH2ssTPA3N5lqv3Mgr5vVWZnaF0+Ul+WihmH/lc3secv7Na6Be7Lxtp83fttPGiHV2604+H7wEfA4yYJIC2IN3sbqVnz56khw+309r6WpoQfljrpx4DouPeUTrYP0g7O3vpYPcw9QcMmkydgCMh3ofRjHKCtgeIA3XoNTafBnetN5Rd5wBBlkhjGPcPmPV6T5e8AwdnBBiscl4OZ3Ob74kOEBInAB/RA4xoURH8rNd44kyxKyw629gBYz9gediIR9gQyNhzWS8W9zlR3JnHCwLW9J6X4fy8DCvOz9lJ+AzCXJA+Fa4FstlX/iWtqV/6tRoiYxO968ZvW2nzhzYK8iZA7aWDXwHge7gnclso+qnobnc9vXr1Iv3pT39Kv/vtD2ljcyO47ID+v8dM2P7+fvr06XN6/frX9Osvb9K73rt0CCccwnXlhAFYeSuiRK2ldqDLKPxRll/bG2C1VaXtJF85F3Bl5Vdk17HcNfSvlThQeZ0NYR51Jcfxjvg1plGkidEU55GqMj2dkkdNZw2Z3IWGAtblMAc0kH6YFBJA+Rx634tbArAXZfniApn3Nrf6r5vBCSfIMPVsHUV4TmEz8BTuymCrA1jdZ2Dvp+O087cjRsRMmTLYUg5trbXTqxcv07//+5/Tn//839Pvf/+7tLa2lpoCj8pzevX4+Dh9BrA//fRT+l//8z/Tf/yP/0g///xL2hNgxlglOswJBWcNmbXzjMHWswBv7rPhvlUKI50gagKwxsMDDHC+ZLUWwJ044IrZC31lZ15D2hWFNMa4r97JVf1DOZWTIm6lrd9Kp2zy9ONZw54WnNX1W3UMtp3p66PS+l6mY6tiicuKACutqoZnqc/cn/+2QHfGc9CyMnBWkNw1KiUvf1l/1g6bgf7eIO2/7sNh6f6Yfqyx/VAbNdPDB9vp1W9epT/84Q/p5YvnaWuL6R+ca7yaKPk7nU56tP0oPXn0JG1vbQOwcfrb3/6e3r57n0FB/CW9IdNOOqiKHsFh0Q50sGFUVVX5yD0LaqPgYkIIcQCtwKT3hS2RdhmhD0g73NJdAoMo8mkhHrJlBl3IqpFK8gF3dSDp0SCs19akmfdUcOUAY0aBahJcft5Cfl17yNQ067d8p3Zg6O6MTMcGpoPu93FaIWCvWiDW3rQGp0SETIYNFeQwF/mzjeng+lMAx0hYddTRB+TRT3DWXXyyZ1abQdb25lb67Q8/pFcvXwYwP3z8mN69f58ODw+QUwcAoAFYH6bHjx+nB0yrNuC6mw8epM56F5EB3an4Mb4AU4ajutbG5jPkRAZcqLWydkAfgosBGcl3ZqkG5x5hKT0Z7KVmfweQoVPiebO1ntY6NDLiDtDiX04f0QBOGeeAtDlLJuT1ZwMYORFB+pqdZogHI6Z8B8dYovUROfAbm7y1AOyTSdpAW6I/bQcGu8i9WI1NtR5ni3dazvft5g4A9rIik7tyoMrqPGmljeed1ERO0+b18D3yqFOxVg6qrE3m+F++QG79139N//LHP6YngLLZagFWBlX9QXr79k3a3d1Fc9BJLwH0H378MXU3NnjXSwMOQRAMPZIkdKhpJws6W2E70NxAJGjlrWTcFkkcKGZ26IY31wAVtny90TAdjE1QjwEQg0JmxtpwyQdbD1KLtES3LmAJmzloMwB7cHCAbE0aAKniSwPbW0HcWeukta5xIsrQSIfko3d0zLs+3BXOjs1A+3lKzGPQmIbpaO+oGnBlTmw835O7+4AFEDENK3cNI5dOcKn+LoB9C7f5gqwmI8MWdQO10/Nnz0NmffXqVdqGczaaqLUAilzp/bt3aXdnN+0BjgNA3ME0cPvhw7Tz5Us6OtxnwOX0mE6wcrZrBqD1dQZbGLvUu0zDYksQaMs+Ii0tuOgGS6nrWGfV2XGuhzjQohU117VG6aYW4sDW9hbXVnBRERocFrRnEBOXbBYnl11bXw+/A9K8jnZjnQGk8xvho4v8Dbe2kY1QATQ1JdQW+BEG67W9rCHAeH3CSgNGjEHzezrdXcBagfSZymhujNF91UhbaAbWHjXRb45DjXXwRsCifgKw9uABzjb6Us3/QZVqKbvtDhX87BmDJbiUYPjLX/4CB2P6EnAcoC3Y290LDiwHKzJzVDJcLqZi15+gf0V+bSMLxzRsAQIig1wPcBz1EB6PDtPhlw9p/8M/0vDzm7SGCg3Rm3jGaXdPoRL5Ui1EBU5lVdPs88NDgH4sCFktAVBbPDfcIYPDNuo3B4okP/Kp2GHjcnC2tglnJ8+0mVjDdviWFQZOnricJ/PxyMr3crq7gLWEAaybuXUeA1b0rl30ro0Oaps3/TwNi+5Vma3GNkJN9K4bG+vBkY6OjtKvv75Ov75BfkQe7NDFbm5uBjd7ANe1y23BXetw3p39w/QBbYFhlBEFdSAo4udeW4F2NzitS2Qy2LI4oMpJwA7QVuwzuBoB/qMv79PBl1/TcOcdkxSD1KTBNZhKrsHRlUlDTuUqSF0AKWi5pasnL4BZkUC1m3KsuK67LAeRghcBVqelXV8Wu2nzbJxQ7zGIbFIGPSYLeh+d4YK86qzcFZiT78bdWcBaiWoGtO9cf8lg6kcGLoyEXV/vYMuZrQGqGyatAAWrDeCcDx89Co3AF7r4n3/+OX389DEA+Ijnv//97wH0RsiJVmS7sw4Wu+nL24/p9dv3aQ8uVkSCkF2jikUVXJS6n6AjmmCkEIyfhE3Kc/yNaVh9QDvY203Hux/S0cFH5OpPqYfGAJ8xgFJT4OAxgOZEgCP9IBwRBWiz2moMt+dZNJwMuin0CB8rhJGZLRu3/2yyBdEYMWEwRuw5oMfZIQ42vnMCJYga+DtydxOwopXStlLaKMO1yNr8DQMRlr8cfx6kvV97AVi5ax11TwdZcXv7QXr29GnIrR8+fEy/vP4FLotZH8zpGI715MmTGMT0ev0YaG2i+hoCmI9w17dv32Ga6KQBXMwKLl22aXBB/9HHNPzydwDbhyszJcsslxMHdQZkckCdvK6//z6OEYbboz7h1BpIIxAHPwW0DeRZUBucNOKLuPCQ/zNPJP8WQRRDULcJ8ScdJAoN05XraxtYrW07geKADO66z/Q0qj4t16IxZGpB4Xs53U3ARgVTIVRKB7uBLmu15K5WxOFbwIpIMGCw5bJrQeC0q9Ovjx8/ArgPYxarTZdv1+/wSd2rTm2BEwZPnr9I61ubaR+Z8/3HD+kTqi/lR7tjoy5AAQYA9oCdu9+mwcf/hGu+QzToYu21BmBVU3FwVVXgWrHhzs/Yvv7Kgj/CIB8HLZ4Dn3CRLXVgHDJL5XPBe8Jp9ZGd6TYdngVr3MUiQr3DtZVU3CyD1cJNNhA53tXwh+MQnXSMHRE3gsIJzYr0vb7cTcDGdCj6SAZba8xsrT1mIMUylKP3/bT7d6YdP1LmPfSTcKuGHBYZTg67BQgfolsVqM9Rb+0x0Omj/lFF1EZePT4+CvBsPXK030xvf/4HgH2X9g92AKsAAx6gpFRxqK4c0TFtO/ysqgo1FfExEUoCMDWkC2hocginHcP+Rse7aQKXnQBYARmE1DRUEFHedRVEjS5dEoipJ3t+hR99emSo+iiDNT/JRPNrua3itb2OIZzZOmZ50OgIrQnaAd9rn5udPpZxVfwlWJApA81l6Kze790ErByEwVaLDd26z/M0rNb8Rx+xynJWq5rFYf4o1D+qp1QPyUE/fvpEt8tACxDLZYfoRYcYtgzRafq7vc6MULebdo7305tPr9Mu8uaAnY5DJ+qIXbBgsaV4KSdsmBZ3QkawlNdN4HKQ5CoQkVBpDBOAO7SbR2RAs4/8iIdS2TN1BrNFROBk3dsoGdr7LFpRcM+TQIWrzgSfuSUsg68G+w+4dsu4NNSOtWwua0d+tcFkHj0TjNuTGL5+fu6bAKt+vTk/9Glq1/X7bgHWMqEylTubTjeyMcY6gHWvLLu6o4+DdPxBvSsFF6BBZEB+FZyaCmrI4vSqussuoFznKLNGjv63Hz5CDcRMFfrQ3YO99HGHrp7djjsdOTjsCtABu+jOrZyYUgUYdUf5iqqkS9VXnxH9BFA6oMqzWxhq95jh4plcNFfu2SqLNwDUbT9jhau6KGrAAdjUDjeCCQwhK5pnXIUZRQJ3amxhSuhyGNEpZx1p/OPONASTQg5toOx8drE75eMk6MXBbvDt3QJslXE/0+MyZY2z1zBycTbpEO5ql6cO1i/BjFkC4vTl1sZWaAh2mMH6Cc2AM0bBSeGmAlnwvnz5Kv3bf/239Mc//kvaQK318/tP6XjnINUxU33UfZQe/bDNbFUX0KMDZYCmwl5LKVVfcmvn8xU9gXIaAMo+A7dQgYFgYTVg9unL511UYwyyGPycgtnZ6tSDDY7SN7wNIUAegJwFzel7PQBW/LtJhqsLGsivyqxhsE38OXLCUTZy2VlXqNksT72a8Tb7hrhyCnlfnhcqM0Fu8PZOAdYiEZx19oZae8Q07Au6dTiI+0OpxnJVgRtDBGBRb6l03+huhCqrx2BKtdT+/h51RZeO/CboVHcp0wreJ08eM0DbSP/7//417bxDEKaCN1mj1YaDt+Gwxwy8AgwIl3Jmw2lfIB05qSqpIaJJu8lInKtwE8h9wh0eIlsDdDn9tG7PqcjgpgTXiMv4lDdDBDmDhTMPgqLigAMtJ1EaYZ2VV8e6j1gRWwVrDu25gK0kaD7ds/58kkGbQxY6Ie0XYlU8/jyP7tTrN9/cKcAGS2Aw4r787uLSZfl2nQ15e4x+97F51TB56KBCOQ2Zz0mBLhz0MXpWZ64ePNgClE8BTgUe9J1NOOS6hi3Imsqye4Od9PPf/pLe/vSPmJN32lR95uHgALAfcqh1R7OATExwTAnor6mnMTauOhuDnDZQxr2/nJEqVXXCu8qTeXVk+iFLo4slYSDWHeklG8e8ID7zPUEtk2z/avVNUu8Ls1vu7iJgmf2SmINAU5fd12nx19dPKm/TS06ITVIX+SVEDmcOy19+n5/n95dRziGufr5DgLWQqHhlMz5kvPYC7ogM62ZuGrnElCNLYBy0570GxIwctJteoKZ69vxZWGPtYCuwg3YgunVK0sJ04kBu6aBMzcG7N2/S+7dv6cKdUaJiAbNTosfHWH/R3cvx5LBNuCsCbJTuJOuKIs7wINeNsKSaAZ0rGJzFClBdAodcXUQiImCtclkHYfm35WCqz7p4wyu/DKN+2k2bNdix53F1QZ4sKMA6G37xJzn+TMlYdSVNctz8rKTUN+WZPkuI4iu/L+H1saw7CXtHAGvWOFjR6tr61lMGXE+pFOTY/TfqXbFQYrCldsA1W3LXUioOprS4+g0mhXLFfSYAPn3Z5f04rTPHrpzbwkRPwArW169fx0qDL192QnwI3St+7OEdUHkIWOnmaVp/mLzCbyxswKouVdUUJaj40WdtmBson1Ss/i5wZDe67VyrMEVu1ByEtsBwRnrK+Yjsx9aiGL0I3KNPyPYcbtGksYteBJp/3+YKhdN0THB+l+M6ndKcIc/y4Vl3mtLsu4vvT0LeDcDmMoC1UhmKA9q8steAI/PjLy4wpMvTyMUv+VUrW5XVnCkSeO+xd5XDbmKoLcjC2gkkbbPv1dZmNzilpnq//PJLeseslsYumvL12XtKDqVzo7QoYugGYOdWeKkA/OodcMcSaoB2MtTyhccCjkyEVgLzyUld7gzgGOWfG74qJ3WvNmwbDcvTEAmI33WOyMQFsufSWCBZF3spYka0nbleM7eVE1sO5VrKJMO4lORZAvPeZJFLCncDsKaa1KhTbFczWy2s553Z0nwwDDrcmkoxMhgdnlXlALYPHz+lv/71b9GWt5k0aLbazDoBWpbJ9I82kVuxQ6Vr15zwp3/8lP7B8RmQ91BDyRHlsLoMWMiCVhtDFKs3U1cK3AeE8ScyaGx2TFoC73LdTI6Xs/4Nc9YFedls6KG4Kn8u4JR7A7RsnKE4IfMPMWka9wJErtlLBquRlHIo14sivjz/dwOw5MVKcE29G7ttoHt1F5MeNq+u1RrSw8tdY1Rd5VdgOTv18cMnuuNe2AO40FCtgKLBOvrZDfSw2xhON9EmKL/+8svr9Pe/A9jPOwzM0JuGzjQTDN3mtHCnkZxTulXhgzgnNBQJHPQZ/PIir+KzSRien1au+yeEikT2fg6ReGxZ0TAsn6biE5MHTs86VeuOOH6H7PbdRWnIUJ7vw6cXt7o7AFgKWdmNAl97rs0rYGNjN8Gk3cAxkwXqXgXrad2P8qa2AQPUWXsH+yw+RK5jmUiTqdIWxiltjK3XWF2gWspl3Mqw2qX2jlD0CzRJApYMm2WrmdASQOZ0KUo9hvuOe3w4vzpmYwgfgFOZte53a2HRckpteM91hSxXbwWuizFdQdx3t3G+ljPEaizEpnOJ3PUXJZPz03n7gKVLrPkRCSyONl5R+Kiy1L0efmJxIQMut88csSHEdDZIDjTjVCmNVOY7Jaq1FZc6tqHx8WL3hxUU/MWgCiIxqCJ8gUW5zpBc7lbACjomF4JLKx4sSNSc1JVbGSy5Fb16XiF/HuZLzieAcig4OZrorN1URFnfnQpHNm4HYCGjLJeVu+G75HJ+am4PsFaqaWOM4ah3jU2JN9nJRdsBOZ6zWnlFAXKmX6I+p6fI+IWQYwFnpJjuFLBWmCAXoIEAryDJKH1y2hn8Ks6e3CP49TzCFxIlp+wuA4uFUef1ZDl1ptLjrFPkdVbL8lGd5eB0bRsx6iWTB6w0GGJeOPwM3XsN2rP5Lk9uD7CmoBIFWg9RTcElui8xTmHJR6/SDMTmGPsUvuZywTHmV2JkRrBUk0wCXoDHeKqAqGJ75WeEwZ8CQXYX0K58nLkQJNRRjvJN35IkjDl/JZx0BGBtNpc3nREN2K00D9BPO2x2AKZFWzdAO0pH9DQDBoSWR6gAl0zXmXzeoQe3B1hZBRVdZ1PiNktgNn6DvMmqWOWyQ8wID39F9+oSbgw65JSBhnMLnhdyULQIzh6NpO1vuurzHe8DsMXHRX6Ln5mr3mlw8VkkrjaQkEOnqL2YXo4dGqYVLUE0skiPgJ0fNnoTvE+YTPFDGwfI+E60rDNF20Inq92wO24PD50RhKbGMNEzzac3k5t7c3trgJXh+Q1UFpWGVZaAbTJo6iOH7f2a12wFWKeDrcvKlEqRyxXRITjy+WGIfuquVp1ZNm4gDwg21UqKoOJvEWdoBFfOyrAk2+4g1mER+rwESZtjTKN0Ocz+O8K4fehAIyGs2tj9RXlWWVbADlCTSTan6Tyii6T27vi5NcBGKbI5hh/V0Iyw+xTZlQIO7grnUCyIb2xR4NldVuDV+wUBI029XkY1x33OGe0DmANBDIIc8AXgfLAAVbzIMYEr4RwkKnMbzuMCR6JHdvcMrhILDp24cMcbjcnz5440yWRPg/i2AXKxfrMZBEQvoX1BtHfl1S0BlkKkG6y3sXyCM2iZ5TY7xxhx7P3MMpbPLIE5cqqTYnK68RJuuXxhEn/A1atu2YoELHJHDGeCU9LQ6oA2i8mL0qrSIOBC04AoEMm5JDx+lOlHh4QD8X00IQ21FOx96z4KLXSzLitaf8Eycb8egxmmDT96n0tI57K42+fbAawFR8yhHWCw0GG9lqN7R777vwDWT5RvtfJz0S52uWKuwBKBTMySNQm2/AhGYpugEAVoWKGRWooOYCJaUxJn5e38I57MPWWVSJ4cYCLFpTBDWkkfi7L6pnYYakk06sb0kF6rh41Bnw/YDHcytSVzOTcJt/3wFgBLrYDCMHJhZmudgZZ7mvoxY1cUHL3FyGUXtRRG2nUEsBh9W7PXVtoSXoI4XmNjN8SZGHChE82TGstUZS4DFQKhZSBocOeFehI4K1xVMSSW65AOe6P6F2a/2LPB9WKWp1PbTbbgrK+pMtPmYZn03V2/NwvYGGlRcnSnTimus+37OhxWC75jJgqO+T7BwHX1xyQLuYwZgVxyS+Dp4qK21qjo8ORwZwlH2kPmRNfrBm0iwA+3hTypRmIp0OPfadS2aSFzTqcqq+eELZCoqkDw73IbV6L3P1fiCXJU/SWgpkz9wnkN29n4Vq5bF2l0W7j0ArHcRS83C1hLwLKOnQiz3YD2A45kD1xRwDKYPA1LRQru4DgL1+JC5Ss1j1zlnvPdxYFJj6aP2r9SYqreHGBNAGyxQV2ITERC7EYJoGpyaXXH0ArR5yRhFycn3hLGq+IIkwRM9iHPQgAdoHrZJvYFDcDqztx+EyIahBqXe+5uHrBwJnWv8bnNH9AfwmkHqGDcfsjpRZfDMJcTnMf6y6BdTSlLL2gGOas7qvwS4qTH/lSZFSAINPeTdeAzJq3RlS/MtXIK5H4sx41B05hGmVVP0F6YTk55TDurWYDD2u0PmKZ2R5pGd5g6aDD8qoxbk/YeaGNA3i3akwK4JN938/UNApaSolBrtn5UWV1GsZvoXuvs+jfg6y+H747ZuQSTP2svzO2U06zZVbkMllxjFwF1pkbtQS2hACtg4C80FzFBAaWFZM6SfkNDG1HAAVuAVrEHrpeNti9KU6ExcyWo3zaIXEUj550/SK+GMOq3W0+wK+ariGuP6+kQjcGQGbLVa1xm0nQDt2T7JlwUa3Cn2NyNr2+v821YpxO1yurtVFbzLDCUCwTXMlnTm1WksUrDhaTwY99sg6G7DgMs97HClE/OanL8KoubYfi5pOWcdIGsYgCH6Jq4Ng35dWkQScfpYK6kJNKiSKC98Ijt4gd8CTI+iEyCYzkNai4B7D674ZZN+nIZvVbfN8Nh5UR2dxRwEyPttWcsWYkVn4gDB1pkMZXI8pfxEWvqqUTXailzxcxqgHZJ7jO3yGybGShSO0ORtDnzFoOpJhbudNlUM0FY0AdIxz2V+wQsA6QzBOZGevJQva2clVUVyueOJ2sq9R3xn03NSbh5d3JpgW9Q06QelzI2+Ql5doyxu+XpKtqGNrNoC1QhGn/sGxvxLZuBeQm5+Wc3A9hACLIro2JVLS6BUXZVXs1WR4y2D/CEKisAIbitiADragslknKapDUt9/EAuHHgMUwRBRWNJ7ptrlmmlsoijrA6wFpnUWM26yKvPq6AFu+XORG1gz8xF+aIRX8LTck6iNM4JswPVQ2imxWsimF+mt61XzHIWybOO+T3ZgBrUcoV3H6IT26qzvJrJ4oCR277rpELEwUOZGKKUjyEqmi1JSXZ7GRNlbNRANLQh8pleaWCyA2BnbOvubBQDhbePZ9QKSTmXwM+4d1vbrkKV+d3s9x9MFY7BIucH3ruU6KO7fMZUJFi0kgcNiY9e/KnjUobYXqqAbNh7qCj3ji0BWgM/HC0Ye6ru37AWm8WJmBwW5229puIA4LhkH1ej/iYsbrXSXBXylyOMVsD+ccKyteE6IJ4vi0/Aa0ACuOV8AFkrVSPGFiVMOVqwIsctPyDSOwc4+4xKJtdQxYyuiP7pQZsxBUNi9TDXYM26XX3xgy+2QbIM8QM9yhw4WbDj3awqV4sp0HVNWDJUcjfpuEeuusHrOVClxtrthAHBGvTmS0/qvHW3VzyLtrJT/SU7m1akKsqVMFaWs4cmoInRJCMi8xP9VfCmKA54Xx8xlVxya2VAihh9ba5QSBfRiM4E+jSB8rX0om1bDawECkINg/4gNEP2GjQXVfDYW+FmOVuMY0NEsDsnKDNOVo0X5cm8UY83ABgKSxH3Cix22gHnOPWbsAth9zJJayKGNTIQMIpv67USbgQn0fY+Og2BdIZt2xaiAdgKV4IVLeOVTyOLTbhrsHZrijqxKQFgDWtWrUFYE+LFFVyfeeGixNUWWF+iP8WvZtimBM1xyyt0SjmRDuxbD7PFNSNPbh2wMY6J2Lhy5dhRaShsbaactYeM1vxAV/kuqwSuLF8rz4ikSkXDK4KAJDZzftEGdjut3DEpWKGpk6aqtdozKH8t3HZG53jBHRMwGjEHdKCdBBPXGnL2rkmqi9FhjA7vIDOOeRv9fGNALbBIsPWA9UrVqR2Axi5sDlGfGOr2hzjQiZ4q0W0QORiB65q3gJclGpAxIY4HbjNyJkLkMwUALyai9iW0w3uACz0Mnc9n0gsH3dARs8VBhM2JLuQLQ3mAS3fjfC7vCGeuMp2nlhxPvlbfXN9gLWPp6DqVGTMuiAOuHZe2fWIr79olaWucGTXRcXi9R66DIjgqnBAM2E21ATIUdV4xLeyTnfdl+ZUOgCqwa7gbu/FEZIENMOcMcrKVjLfRVnqh0Nu69akQ+kwVetHyFVztdiba6B+2bQGvfm07trT6wOsOYWp1NS9onNts5u23MedokOV5QfhjuAaqLKuT81S1dpKSx2aYpPu2Q2Pg4PJXSuwmpcwNwSsV5pyDfRAD444YQJD+d+dCFWzzdUKnJM35VPBHQszSZuMQd1syNWVmmvEBMPEaWbe3Rd3fYCVASh70aqbbOrmTnuyCdds9QCr35KazhqJq5U3c4kGYYnjlu2Sc6ivz9Cj8lGDhm6zrpkhv92BRjVd6FbBWAA1utnzueDXdMuvnOaYcnX6VgNxSNgA+LoR5QdoF8qHgUiHtgo2JMA/gssm9t+KT9VjfCRw7flicKYtQsiyy6a3pPvmrtcE2FzwDvg1dXO36PgserU8Wb2r20OG1GBB6f0uuUgYCTIDVHhUoxwVpIbiXpzy2o92OKjSYCcr8X3KEfmJUEvlKoLBrSdt+n65q21Mzsp3dBUvMsdekCTEgp5XSEVPhtyKeRE/qBMHcYwtnP2KL0m67isCLJ/uBVO0Em/XAFhzzUHBO7LVdqAJYCme0AiozM5dUS4YOi7+uPdnFNgS+TpdtsuGN6oZGuXW0X3p6k13/AlYTQKdFnWlKr2F9rCqqmIKFxwEOxTkV3RhQuHATe6qmKEcDJesc5yooBYkTjJCdDY5pg3GYJpHNMZIoTayDOgcV2iQlEF99bQvmKpv9rZiwIoYZS7BykHX08K8LboeurQhn4kffYFt0NKji6NyHQXr38FBLlhIXFJugjyU6CrkCRThc9S5YqN7O102eiiOe+MgKXa5AlJmprmLXDV2JASUUvfDdX4a1HjsEvhgdxxWfo00O3KvlUHVJekusc+7OjiNwRsNImJmtqrW55CzmkhSk495oU890yvlmg1t+OGHOgSqDYCcSG5E+uWu6oudvh0zcaPpZGgOTpG7Sz9XDFjhChhUoQRgKTcU1hbKEN3fkF1c/FS8gn5NmcxpRpASTMlCpsConRAVolTPKyn9ijBT79X4iNcuM5Y8hwUUlS1t3uQz6QrMCj3iqAY1xi1gYy+ueG840sVzJQMPT6EqytFUz3ycqUcUVznZsE0diXBiIHAvsBABBFgYqUTjC18LxZBnxEib9gawzWJhFqBX3CCuKkuWWMji8d0wJnZkGjXXqJnPcN+Yv0JmhdeVAzbXABlHO1BHHHA/fgvAz/IMGJVmayEeREUAnaouorulAmVk0cq5nhTcqRwbJoCKH7tPuQkADNBRIQKAKo9dC73XFeBxx8AZiyk4qIOaGO2TCKopGkz45lZdZ+g9kVFrdv9410tpAidXn13BmVe5KhHasGIkV4HUMojGF2RNUc7DZbFIywFhfP+LH0VnG3YR5gk6IWtzbyMlZ9QT5eRydWflnOSQa1QDvAuZxmWJuab3qwWsBeF8N8YezQ5GF9hi2ss6NTmAuw6YJHCpRmwpadnEARgq8GnVZOG1qEFBG8YiAZwobREUoAkDGQrVLTOVIbW8t9a1ggqFpc+pMIEmx9YF+EBdxV9PnllpepG72CdmZPOges41OGkmE+GufCq0yWdIH5R+liZIVcyI5XRMW3G0EPxe6KqEmQk3w+OwEUajt6exDHS+N36yaLELXBu5DRV1b1wnHQzoWTJuD5j69IxFe2BLuCNutYAlX9ENq8pysIUwb5nLVeNLfej7YiFs9LdVCVhYFiplG0s+HNQI+hAnJViVNSUdXC5ADogMEwd0tFqSo/AoF72ecBE8HpIMfuBBwEY1Ea+JNYw+HOPkhY9V2Mq/l5U5I5HdmUcbmVdcBhc3psnETCNdJHJpclhe9DRRDkQR3btZsawrMnGxDKr3MW1shMaruGCvw+YmwfaFta3JsvU1Bz6rMvbJ7bjVAtYujhmVmP7bJJMMuhyk+NVt5dchW8CP4IINNoCYliKlWThcjGJdfuKAR04BcDXPU94c1yGkIlyrLqcToSMIa9Q25zOll3lp/kDx6ZcB3iqUHWN2pumUWyVnqQAhKKaN0TVrgsVpVHuHIh+dSsb5P8klhafeVoMiCzJUbJRTiDQGnBZNvomzoLWlikm8hOWWL6i7EA0Q56IF+xba+vO19TSqAMzPW3ErA6yc1UGQKpLmJt2M4oAZRCPglu+jfQrxGBAGF4lim8lw9Rv/hqE4KSRKCYFs7McqQs3Duyg1TnHNfvOPTMrghq6oVb/icsFp1vcF3pZ6lVNi2gLzVnrFUSc0QhuTGoZ6ABXCU7AuGkmVU5IetgbQ9olcNewMBOIMZz2hmvOaGQQVxo1MAUEiGpEMISzK0M+G8Y7AlutSBYphaizMSkwPnxC90buVATYyDzVXFcSCN0Cmstr9nYZ+UAPrd7ljBuy8PM4Ah64+/uSePrbrDzGCH9ZMeC03M+EiVPV6XhRzn82Gn+vhCg9Nm+mggiUPNkJWJTOqwOyKA1hzG28EvfwE2ApYo7+GliJ4lK+hz81WfhEDMXW8JDBAy7Wo6iJx1p/1iUe58VgVGzKbgzqZ87RjujylK/WxMsAGfGh+jlCd1RLAY0QAF8KVjxnHoIjkl+o8Pyeyaxweo3CmBQTdAG5+F35mTlZFVR3Tu5nX13trQmVdIlRgEluAISeokrn1Qvk4GDJP5iV8Vp4WSiEBg1vnoEGGAWgjBo2WW6F5EbHKj5xYb4JfMaL8yUaDHvWpnE1+xiEKUJd4199i8Uh8tW5lgJUTZsU32UHmHJFhF8O5jY4bTtjDhy4ws5rlcmHFyo10pazyr5mzLzx0Vsh1uyohRiVQjduKjj7Th4BHIFQNLGspsrc8EcD9Ug7akA0tjHiPLPLMcrVsFCvClWv186ILweUIam0iC/ZsEFZXG9khD37dJlYxM1KzDmPgK00D5ERcFMPK360EsOav6P+UffxYWwy2NBRmMZyGISNyancY+5leCVBVRZxbH5b+TTn5DI60hOwuxxNEgDUM1tnvVQ4Vas0QZ3gflXtu4qV2icvypp8a1Uk2wCpQBW2U6ZL07e79g1ZNGaXKloCVkrYTbCtH3ZIf9JET6nUK2PBhSm7WfTtgLTgrS+U9h3/uR+qmDsqtbhZhJgVr5rDLZrAA8bzKKO+XpXuR/1M0idrY46mMk/uYcKBiC0izBypabscxrViBeorcRTGfficziP0S5HTELbHM6eSKhbYp0pVr/nXpWe/R0LiaRo5IKt2/tJ0tk/tOUNRqgxCNJBqeaeKI9FDPFdAvjW8FHr4dsObT7sHEVxnQHM5VsHFYgWTSsikHt0u4KEL8G3qeK+/nvbvqsxma1kxx5pOfVlQWVek9eJZ9AyAqTrvV4FTxcCZsobHklVKM+BQFdGEhZjwygXji+YrxkI+phEZ6pSke8yxbphuGPWTMPRDMUq5JI0bL4UAt8hknH/7T/bME/lkCsyXw/wEN06t4gvPNWgAAAABJRU5ErkJggg==;" vertex="1" parent="1">
          <mxGeometry x="540" y="358.28999999999996" width="74.79" height="40" as="geometry" />
        </mxCell>
        <mxCell id="cwWkL18HJ2zfGbkU8Gne-16" value="" style="endArrow=classic;html=1;rounded=0;fontSize=13;" edge="1" parent="1">
          <mxGeometry width="50" height="50" relative="1" as="geometry">
            <mxPoint x="371" y="221" as="sourcePoint" />
            <mxPoint x="372" y="237" as="targetPoint" />
          </mxGeometry>
        </mxCell>
        <mxCell id="cwWkL18HJ2zfGbkU8Gne-17" value="&lt;b&gt;Simulator&lt;/b&gt;" style="text;html=1;align=center;verticalAlign=middle;resizable=0;points=[];autosize=1;strokeColor=none;fillColor=none;fontSize=13;" vertex="1" parent="1">
          <mxGeometry x="640" y="368.28999999999996" width="80" height="30" as="geometry" />
        </mxCell>
        <mxCell id="cwWkL18HJ2zfGbkU8Gne-18" value="Scene Files" style="text;html=1;align=center;verticalAlign=middle;resizable=0;points=[];autosize=1;strokeColor=none;fillColor=none;fontSize=13;" vertex="1" parent="1">
          <mxGeometry x="78" y="328.28999999999996" width="90" height="30" as="geometry" />
        </mxCell>
        <mxCell id="cwWkL18HJ2zfGbkU8Gne-19" value="txVehicles" style="text;html=1;align=center;verticalAlign=middle;resizable=0;points=[];autosize=1;strokeColor=none;fillColor=none;fontSize=13;" vertex="1" parent="1">
          <mxGeometry x="575" y="600" width="80" height="30" as="geometry" />
        </mxCell>
        <mxCell id="cwWkL18HJ2zfGbkU8Gne-20" value="txVehicles" style="text;html=1;align=center;verticalAlign=middle;resizable=0;points=[];autosize=1;strokeColor=none;fillColor=none;fontSize=13;" vertex="1" parent="1">
          <mxGeometry x="110" y="585" width="80" height="30" as="geometry" />
        </mxCell>
        <mxCell id="cwWkL18HJ2zfGbkU8Gne-22" value="" style="whiteSpace=wrap;html=1;fontSize=13;strokeColor=#36393d;fillColor=#f9f7ed;rounded=1;" vertex="1" parent="1">
          <mxGeometry x="295" y="285.64" width="195" height="124.36" as="geometry" />
        </mxCell>
        <mxCell id="cwWkL18HJ2zfGbkU8Gne-23" value="" style="shape=flexArrow;endArrow=classic;html=1;rounded=0;" edge="1" parent="1">
          <mxGeometry width="50" height="50" relative="1" as="geometry">
            <mxPoint x="180" y="314.5" as="sourcePoint" />
            <mxPoint x="240" y="314.5" as="targetPoint" />
          </mxGeometry>
        </mxCell>
        <mxCell id="cwWkL18HJ2zfGbkU8Gne-24" value="Init" style="text;html=1;align=center;verticalAlign=middle;resizable=0;points=[];autosize=1;strokeColor=none;fillColor=none;" vertex="1" parent="1">
          <mxGeometry x="355" y="300.64" width="40" height="30" as="geometry" />
        </mxCell>
        <mxCell id="cwWkL18HJ2zfGbkU8Gne-26" value="" style="whiteSpace=wrap;html=1;fontSize=15;strokeColor=default;fillColor=#FFFFFF;dashed=1;" vertex="1" parent="1">
          <mxGeometry x="560" y="265.64" width="100" height="85" as="geometry" />
        </mxCell>
        <mxCell id="cwWkL18HJ2zfGbkU8Gne-27" value="" style="shape=table;html=1;whiteSpace=wrap;startSize=0;container=1;collapsible=0;childLayout=tableLayout;fontSize=15;" vertex="1" parent="1">
          <mxGeometry x="586" y="280.64" width="60" height="60" as="geometry" />
        </mxCell>
        <mxCell id="cwWkL18HJ2zfGbkU8Gne-28" value="" style="shape=tableRow;horizontal=0;startSize=0;swimlaneHead=0;swimlaneBody=0;top=0;left=0;bottom=0;right=0;collapsible=0;dropTarget=0;fillColor=none;points=[[0,0.5],[1,0.5]];portConstraint=eastwest;fontSize=15;strokeColor=default;" vertex="1" parent="cwWkL18HJ2zfGbkU8Gne-27">
          <mxGeometry width="60" height="20" as="geometry" />
        </mxCell>
        <mxCell id="cwWkL18HJ2zfGbkU8Gne-29" value="0" style="shape=partialRectangle;html=1;whiteSpace=wrap;connectable=0;fillColor=none;top=0;left=0;bottom=0;right=0;overflow=hidden;fontSize=15;strokeColor=default;" vertex="1" parent="cwWkL18HJ2zfGbkU8Gne-28">
          <mxGeometry width="20" height="20" as="geometry">
            <mxRectangle width="20" height="20" as="alternateBounds" />
          </mxGeometry>
        </mxCell>
        <mxCell id="cwWkL18HJ2zfGbkU8Gne-30" value="60" style="shape=partialRectangle;html=1;whiteSpace=wrap;connectable=0;fillColor=none;top=0;left=0;bottom=0;right=0;overflow=hidden;fontSize=15;strokeColor=default;" vertex="1" parent="cwWkL18HJ2zfGbkU8Gne-28">
          <mxGeometry x="20" width="20" height="20" as="geometry">
            <mxRectangle width="20" height="20" as="alternateBounds" />
          </mxGeometry>
        </mxCell>
        <mxCell id="cwWkL18HJ2zfGbkU8Gne-31" value="42" style="shape=partialRectangle;html=1;whiteSpace=wrap;connectable=0;fillColor=none;top=0;left=0;bottom=0;right=0;overflow=hidden;fontSize=15;strokeColor=default;" vertex="1" parent="cwWkL18HJ2zfGbkU8Gne-28">
          <mxGeometry x="40" width="20" height="20" as="geometry">
            <mxRectangle width="20" height="20" as="alternateBounds" />
          </mxGeometry>
        </mxCell>
        <mxCell id="cwWkL18HJ2zfGbkU8Gne-32" value="" style="shape=tableRow;horizontal=0;startSize=0;swimlaneHead=0;swimlaneBody=0;top=0;left=0;bottom=0;right=0;collapsible=0;dropTarget=0;fillColor=none;points=[[0,0.5],[1,0.5]];portConstraint=eastwest;fontSize=15;strokeColor=default;" vertex="1" parent="cwWkL18HJ2zfGbkU8Gne-27">
          <mxGeometry y="20" width="60" height="20" as="geometry" />
        </mxCell>
        <mxCell id="cwWkL18HJ2zfGbkU8Gne-33" value="7" style="shape=partialRectangle;html=1;whiteSpace=wrap;connectable=0;fillColor=none;top=0;left=0;bottom=0;right=0;overflow=hidden;fontSize=15;strokeColor=default;" vertex="1" parent="cwWkL18HJ2zfGbkU8Gne-32">
          <mxGeometry width="20" height="20" as="geometry">
            <mxRectangle width="20" height="20" as="alternateBounds" />
          </mxGeometry>
        </mxCell>
        <mxCell id="cwWkL18HJ2zfGbkU8Gne-34" value="0" style="shape=partialRectangle;html=1;whiteSpace=wrap;connectable=0;fillColor=none;top=0;left=0;bottom=0;right=0;overflow=hidden;fontSize=15;strokeColor=default;" vertex="1" parent="cwWkL18HJ2zfGbkU8Gne-32">
          <mxGeometry x="20" width="20" height="20" as="geometry">
            <mxRectangle width="20" height="20" as="alternateBounds" />
          </mxGeometry>
        </mxCell>
        <mxCell id="cwWkL18HJ2zfGbkU8Gne-35" value="33" style="shape=partialRectangle;html=1;whiteSpace=wrap;connectable=0;fillColor=none;top=0;left=0;bottom=0;right=0;overflow=hidden;fontSize=15;strokeColor=default;" vertex="1" parent="cwWkL18HJ2zfGbkU8Gne-32">
          <mxGeometry x="40" width="20" height="20" as="geometry">
            <mxRectangle width="20" height="20" as="alternateBounds" />
          </mxGeometry>
        </mxCell>
        <mxCell id="cwWkL18HJ2zfGbkU8Gne-36" value="" style="shape=tableRow;horizontal=0;startSize=0;swimlaneHead=0;swimlaneBody=0;top=0;left=0;bottom=0;right=0;collapsible=0;dropTarget=0;fillColor=none;points=[[0,0.5],[1,0.5]];portConstraint=eastwest;fontSize=15;strokeColor=default;" vertex="1" parent="cwWkL18HJ2zfGbkU8Gne-27">
          <mxGeometry y="40" width="60" height="20" as="geometry" />
        </mxCell>
        <mxCell id="cwWkL18HJ2zfGbkU8Gne-37" value="90" style="shape=partialRectangle;html=1;whiteSpace=wrap;connectable=0;fillColor=none;top=0;left=0;bottom=0;right=0;overflow=hidden;fontSize=15;strokeColor=default;" vertex="1" parent="cwWkL18HJ2zfGbkU8Gne-36">
          <mxGeometry width="20" height="20" as="geometry">
            <mxRectangle width="20" height="20" as="alternateBounds" />
          </mxGeometry>
        </mxCell>
        <mxCell id="cwWkL18HJ2zfGbkU8Gne-38" value="29" style="shape=partialRectangle;html=1;whiteSpace=wrap;connectable=0;fillColor=none;top=0;left=0;bottom=0;right=0;overflow=hidden;fontSize=15;strokeColor=default;" vertex="1" parent="cwWkL18HJ2zfGbkU8Gne-36">
          <mxGeometry x="20" width="20" height="20" as="geometry">
            <mxRectangle width="20" height="20" as="alternateBounds" />
          </mxGeometry>
        </mxCell>
        <mxCell id="cwWkL18HJ2zfGbkU8Gne-39" value="0" style="shape=partialRectangle;html=1;whiteSpace=wrap;connectable=0;fillColor=none;top=0;left=0;bottom=0;right=0;overflow=hidden;pointerEvents=1;fontSize=15;strokeColor=default;" vertex="1" parent="cwWkL18HJ2zfGbkU8Gne-36">
          <mxGeometry x="40" width="20" height="20" as="geometry">
            <mxRectangle width="20" height="20" as="alternateBounds" />
          </mxGeometry>
        </mxCell>
        <mxCell id="cwWkL18HJ2zfGbkU8Gne-40" value="O" style="text;html=1;align=center;verticalAlign=middle;resizable=0;points=[];autosize=1;strokeColor=none;fillColor=none;fontSize=15;" vertex="1" parent="1">
          <mxGeometry x="596" y="257.64" width="40" height="30" as="geometry" />
        </mxCell>
        <mxCell id="cwWkL18HJ2zfGbkU8Gne-41" value="D" style="text;html=1;align=center;verticalAlign=middle;resizable=0;points=[];autosize=1;strokeColor=none;fillColor=none;fontSize=15;" vertex="1" parent="1">
          <mxGeometry x="560" y="295.64" width="30" height="30" as="geometry" />
        </mxCell>
        <mxCell id="cwWkL18HJ2zfGbkU8Gne-43" value="" style="shape=singleArrow;direction=west;whiteSpace=wrap;html=1;" vertex="1" parent="1">
          <mxGeometry x="490" y="295.64" width="56" height="40" as="geometry" />
        </mxCell>
        <mxCell id="cwWkL18HJ2zfGbkU8Gne-44" value="" style="whiteSpace=wrap;html=1;" vertex="1" parent="1">
          <mxGeometry x="303.5" y="325.64" width="94" height="30" as="geometry" />
        </mxCell>
        <mxCell id="cwWkL18HJ2zfGbkU8Gne-45" value="initialize scene" style="text;html=1;align=center;verticalAlign=middle;resizable=0;points=[];autosize=1;strokeColor=none;fillColor=none;" vertex="1" parent="1">
          <mxGeometry x="302.5" y="325.64" width="100" height="30" as="geometry" />
        </mxCell>
        <mxCell id="cwWkL18HJ2zfGbkU8Gne-47" value="" style="whiteSpace=wrap;html=1;" vertex="1" parent="1">
          <mxGeometry x="338.5" y="347.64" width="94" height="30" as="geometry" />
        </mxCell>
        <mxCell id="cwWkL18HJ2zfGbkU8Gne-48" value="OD to Vehicles" style="text;html=1;align=center;verticalAlign=middle;resizable=0;points=[];autosize=1;strokeColor=none;fillColor=none;" vertex="1" parent="1">
          <mxGeometry x="337.5" y="347.64" width="100" height="30" as="geometry" />
        </mxCell>
      </root>
    </mxGraphModel>
  </diagram>
</mxfile>
